<!DOCTYPE svg PUBLIC "-//W3C//DTD SVG 20010904//EN" "http://www.w3.org/TR/2001/REC-SVG-20010904/DTD/svg10.dtd">
<svg version="1.0" xmlns="http://www.w3.org/2000/svg" width="512px" height="512px" viewBox="0 0 5120 5120" preserveAspectRatio="xMidYMid meet">
<g id="layer101" fill="#000000" stroke="none">
 <path d="M26 5094 l-26 -27 0 -2507 0 -2507 26 -27 27 -26 2507 0 2507 0 27 26 26 27 0 2507 0 2507 -26 27 -27 26 -2507 0 -2507 0 -27 -26z"/>
 </g>
<g id="layer102" fill="#171923" stroke="none">
 <path d="M3217 4596 c-26 -7 -56 -21 -67 -31 -18 -16 -18 -19 -3 -39 l16 -22 45 23 c25 13 56 23 69 23 23 0 63 -31 63 -50 0 -15 -40 -37 -103 -55 -45 -13 -63 -24 -78 -48 -40 -64 -2 -138 78 -153 42 -8 120 9 142 31 13 13 12 17 -3 34 -16 17 -20 18 -46 4 -61 -30 -142 1 -115 43 6 10 42 27 80 39 81 26 105 51 105 107 0 32 -6 46 -31 69 -17 16 -39 29 -48 29 -9 0 -25 2 -36 5 -11 2 -41 -2 -68 -9z"/>
 <path d="M210 4597 c0 -2 34 -80 75 -173 l74 -169 37 0 36 0 74 168 c41 93 74 170 74 173 0 2 -15 4 -33 4 -30 0 -36 -4 -50 -40 l-15 -40 -86 0 -86 0 -16 40 c-14 36 -20 40 -50 40 -19 0 -34 -2 -34 -3z m237 -149 c-3 -7 -15 -37 -28 -66 l-22 -54 -29 62 c-15 35 -28 64 -28 66 0 2 25 4 56 4 41 0 55 -3 51 -12z"/>
 <path d="M630 4425 l0 -175 83 0 c106 0 145 12 187 55 34 35 35 38 35 120 0 82 -1 85 -35 120 -42 43 -81 55 -187 55 l-83 0 0 -175z m199 101 c69 -36 69 -166 0 -202 -16 -8 -53 -14 -84 -14 l-55 0 0 115 0 115 55 0 c31 0 68 -6 84 -14z"/>
 <path d="M1030 4425 l0 -175 48 0 47 0 49 106 50 106 53 -106 53 -106 45 0 45 0 0 175 0 175 -30 0 -30 0 -1 -127 0 -128 -57 113 c-44 88 -61 112 -77 112 -16 0 -33 -24 -77 -112 l-57 -113 0 128 -1 127 -30 0 -30 0 0 -175z"/>
 <path d="M1520 4425 l0 -175 30 0 30 0 0 175 0 175 -30 0 -30 0 0 -175z"/>
 <path d="M1670 4425 l0 -175 29 0 c26 0 42 16 128 127 l98 126 3 -126 3 -127 29 0 30 0 0 175 0 175 -33 0 c-31 0 -41 -9 -128 -122 l-94 -122 -3 122 -3 122 -29 0 -30 0 0 -175z"/>
 <path d="M2162 4583 c-71 -35 -109 -121 -90 -208 12 -58 77 -120 137 -130 68 -11 119 3 167 47 31 29 45 51 52 83 19 88 -19 174 -91 209 -45 21 -132 20 -175 -1z m171 -71 c56 -57 45 -162 -23 -197 -61 -31 -137 -10 -166 47 -32 62 -2 152 61 179 37 16 96 3 128 -29z"/>
 <path d="M2510 4425 l0 -175 115 0 115 0 0 30 0 30 -85 0 -85 0 0 45 0 45 73 0 c41 0 76 2 79 5 3 3 3 17 0 30 -4 24 -8 25 -78 25 l-74 0 0 70 0 70 -30 0 -30 0 0 -175z"/>
 <path d="M2740 4597 c0 -2 34 -80 75 -173 l74 -169 37 0 36 0 74 168 c41 93 74 170 74 173 0 2 -15 4 -33 4 -30 0 -36 -4 -50 -40 l-15 -40 -86 0 -86 0 -16 40 c-14 36 -20 40 -50 40 -19 0 -34 -2 -34 -3z m237 -149 c-3 -7 -15 -37 -28 -66 l-22 -54 -29 62 c-15 35 -28 64 -28 66 0 2 25 4 56 4 41 0 55 -3 51 -12z"/>
 <path d="M3450 4578 c0 -14 39 -70 99 -143 l99 -120 -94 -3 -94 -3 0 -29 0 -30 140 0 140 0 0 24 c0 15 -34 65 -95 139 -52 64 -95 118 -95 121 0 3 43 6 95 6 l95 0 0 30 0 30 -145 0 c-144 0 -145 0 -145 -22z"/>
 <path d="M3890 4529 c0 -70 -1 -74 -60 -169 -33 -53 -60 -100 -60 -104 0 -3 14 -6 30 -6 31 0 36 6 116 136 9 15 17 7 55 -57 42 -68 48 -74 82 -77 l36 -3 -64 105 c-64 104 -65 107 -65 176 l0 70 -35 0 -35 0 0 -71z"/>
 <path d="M4100 4578 c0 -14 39 -70 99 -143 l99 -120 -94 -3 -94 -3 0 -29 0 -30 140 0 140 0 0 24 c0 15 -34 65 -95 139 -52 64 -95 118 -95 121 0 3 43 6 95 6 l95 0 0 30 0 30 -145 0 c-144 0 -145 0 -145 -22z"/>
 <path d="M4460 4425 l0 -175 48 0 47 0 49 106 50 106 53 -106 53 -106 45 0 45 0 0 175 0 175 -30 0 -30 0 -1 -127 0 -128 -57 113 c-44 88 -61 112 -77 112 -16 0 -33 -24 -77 -112 l-57 -113 0 128 -1 127 -30 0 -30 0 0 -175z"/>
 <path d="M160 2060 l0 -1900 2400 0 2400 0 0 1900 0 1900 -1275 0 c-1212 0 -1275 -1 -1265 -17 14 -25 50 -156 50 -181 0 -11 5 -24 10 -27 6 -3 10 -15 10 -25 0 -11 9 -50 21 -87 11 -38 27 -90 34 -118 8 -27 23 -80 34 -118 12 -37 21 -76 21 -87 0 -10 4 -21 9 -25 6 -3 13 -27 17 -53 4 -26 15 -67 24 -92 25 -65 14 -86 -49 -94 -27 -4 -53 -11 -56 -15 -3 -5 -24 -12 -48 -16 -23 -4 -64 -14 -92 -22 -115 -35 -142 -42 -182 -48 -24 -4 -45 -11 -49 -16 -3 -5 -21 -9 -40 -9 -27 0 -34 4 -34 19 0 11 -4 22 -9 25 -4 3 -14 34 -21 68 -7 35 -16 68 -21 73 -4 6 -10 31 -14 58 -4 26 -11 50 -16 53 -5 3 -9 18 -9 34 0 16 -4 32 -10 35 -5 3 -10 17 -10 30 0 13 -4 34 -9 47 -20 50 -61 194 -61 215 0 12 -4 25 -10 28 -5 3 -10 19 -10 35 0 16 -4 32 -10 35 -5 3 -10 19 -10 34 0 15 -4 31 -9 36 -4 6 -13 33 -20 60 -6 28 -19 76 -29 107 l-17 58 -822 0 -823 0 0 -1900z m3888 1310 c71 -17 162 -95 162 -140 0 -8 6 -27 14 -41 7 -15 19 -51 26 -80 7 -30 16 -63 21 -74 4 -11 11 -38 14 -60 4 -22 10 -44 15 -50 4 -5 11 -31 14 -57 4 -26 11 -50 15 -53 5 -2 11 -27 15 -54 4 -28 11 -53 16 -56 6 -3 10 -19 10 -35 0 -16 4 -31 9 -34 8 -6 11 -18 27 -109 3 -20 10 -40 15 -43 5 -3 9 -18 9 -34 0 -16 4 -31 9 -34 5 -3 11 -20 14 -38 7 -45 28 -119 38 -140 5 -10 9 -29 9 -42 0 -14 4 -27 9 -30 5 -3 11 -20 14 -38 6 -36 20 -93 36 -148 5 -19 15 -55 22 -80 6 -25 15 -54 20 -65 4 -11 10 -31 13 -45 10 -48 28 -115 36 -131 5 -9 12 -34 15 -55 4 -22 13 -57 21 -78 17 -44 21 -115 9 -161 -12 -49 -51 -92 -106 -118 -49 -23 -100 -28 -211 -18 -33 2 -97 71 -109 115 -6 22 -15 50 -19 61 -5 11 -11 31 -14 45 -9 43 -28 114 -37 135 -5 11 -13 41 -19 67 -5 26 -21 81 -35 124 -14 42 -25 87 -25 100 0 12 -4 25 -9 28 -5 3 -11 20 -14 38 -6 38 -36 154 -47 183 -5 11 -13 47 -20 80 -7 33 -16 65 -20 70 -5 6 -14 39 -20 75 -6 36 -15 70 -20 75 -5 6 -14 39 -20 75 -7 36 -16 74 -20 85 -4 11 -13 47 -20 80 -7 33 -21 86 -31 118 -10 31 -21 78 -24 103 -3 25 -9 53 -14 63 -22 40 -34 237 -18 293 12 45 83 126 114 131 49 7 67 7 111 -3z m-681 -257 c6 -16 13 -39 16 -53 8 -34 35 -132 58 -208 11 -35 22 -82 25 -105 2 -22 8 -46 13 -51 5 -6 11 -24 14 -41 9 -47 28 -118 38 -137 5 -9 12 -36 15 -60 4 -24 10 -47 14 -53 5 -5 13 -32 19 -60 13 -66 32 -135 42 -160 5 -11 20 -65 34 -120 13 -55 32 -127 40 -160 9 -33 21 -78 27 -100 6 -22 16 -58 23 -80 7 -22 21 -77 31 -123 10 -46 21 -85 26 -88 4 -3 8 -18 8 -34 0 -16 5 -32 10 -35 6 -3 10 -15 10 -27 0 -11 7 -41 15 -67 8 -25 22 -77 30 -115 18 -78 16 -81 -45 -92 -19 -3 -44 -9 -55 -14 -19 -8 -47 -15 -110 -27 -16 -3 -34 -9 -40 -13 -5 -4 -31 -11 -57 -14 -26 -4 -50 -11 -53 -15 -2 -5 -27 -11 -54 -15 -28 -4 -53 -11 -56 -16 -3 -6 -17 -10 -31 -10 -14 0 -33 -4 -43 -10 -10 -5 -54 -17 -97 -26 -43 -8 -83 -19 -89 -22 -5 -4 -32 -12 -60 -19 -27 -6 -66 -16 -85 -22 -19 -5 -62 -17 -95 -26 -116 -32 -170 -47 -215 -60 -25 -7 -63 -16 -85 -20 -22 -4 -44 -10 -50 -15 -5 -5 -32 -13 -60 -19 -60 -12 -133 -31 -160 -41 -11 -4 -57 -16 -103 -26 -46 -9 -85 -21 -88 -26 -3 -4 -14 -8 -25 -8 -11 0 -47 -9 -80 -20 -34 -12 -62 -20 -63 -18 0 2 -7 13 -13 25 -7 13 -13 30 -13 39 0 9 -7 39 -16 68 -27 86 -36 117 -39 139 -7 37 -27 111 -36 129 -5 10 -9 25 -9 34 0 9 -7 37 -15 63 -40 128 -55 184 -55 206 0 13 -4 26 -9 30 -6 3 -13 27 -17 53 -3 26 -10 52 -14 57 -4 6 -10 28 -14 51 -6 44 -33 140 -46 164 -4 9 -13 43 -20 75 -6 33 -16 68 -21 77 -5 10 -9 28 -9 41 0 13 -3 27 -7 31 -8 7 -29 90 -40 154 -3 18 -9 35 -14 38 -5 3 -9 18 -9 33 0 15 -4 31 -10 37 -5 5 -11 23 -12 39 -1 17 -5 35 -9 40 -3 6 -12 35 -19 65 -7 30 -16 62 -20 71 -5 9 -16 57 -26 107 -20 106 -17 114 54 131 64 17 148 40 202 57 25 8 55 14 67 14 12 0 24 4 27 9 3 4 25 11 49 14 24 3 66 13 93 22 27 8 74 23 104 31 30 9 75 22 100 30 25 8 52 14 60 14 14 0 90 21 200 56 25 8 55 14 67 14 12 0 24 4 27 8 3 5 42 16 88 26 46 10 91 22 100 27 10 5 27 9 39 9 11 0 29 5 39 10 11 6 43 15 72 20 29 6 62 14 73 19 11 5 48 15 83 22 34 6 65 16 68 20 3 5 15 9 26 9 19 0 39 5 108 28 8 2 28 6 44 8 16 2 34 8 40 13 9 7 23 12 56 20 3 0 10 -11 17 -26z m369 -31 c11 -68 54 -237 64 -254 5 -9 13 -36 16 -60 4 -24 11 -51 16 -61 5 -9 18 -59 28 -110 11 -50 24 -101 29 -112 15 -30 61 -213 61 -240 0 -13 5 -27 10 -30 6 -3 10 -19 10 -35 0 -16 4 -31 9 -34 5 -3 11 -20 13 -38 6 -43 28 -128 40 -153 5 -11 10 -31 11 -45 3 -24 9 -45 48 -180 10 -36 26 -101 35 -145 9 -44 19 -84 24 -90 4 -5 15 -43 25 -83 19 -79 13 -102 -29 -102 -11 0 -55 -9 -96 -20 -41 -10 -77 -16 -81 -12 -3 4 -14 43 -23 87 -10 44 -22 85 -27 90 -4 6 -11 31 -15 55 -4 25 -10 50 -15 55 -4 6 -10 32 -14 59 -3 27 -9 54 -13 60 -7 11 -22 71 -43 171 -6 28 -15 54 -20 60 -5 5 -9 18 -9 28 0 11 -7 40 -15 66 -8 25 -21 78 -30 116 -8 39 -24 99 -35 135 -51 172 -61 211 -76 285 -9 44 -19 85 -24 90 -5 6 -15 46 -24 90 -9 44 -23 96 -31 116 -7 20 -19 65 -25 100 -7 35 -15 68 -18 74 -11 17 -10 50 2 57 6 4 22 8 36 8 14 1 47 9 73 18 27 9 61 18 77 19 26 2 30 -2 36 -35z m-2804 -541 c82 -19 173 -127 184 -217 3 -21 8 -43 13 -48 4 -6 16 -42 25 -81 28 -113 38 -148 52 -188 8 -20 14 -48 14 -62 0 -13 4 -26 9 -29 5 -3 11 -20 14 -38 5 -33 25 -109 35 -138 3 -8 11 -37 18 -65 20 -82 36 -139 45 -160 4 -11 10 -31 13 -45 2 -14 10 -45 17 -70 6 -25 18 -70 26 -100 8 -30 18 -62 23 -70 4 -9 13 -43 20 -75 6 -33 16 -68 21 -77 5 -10 9 -29 9 -42 0 -14 4 -27 9 -30 4 -3 11 -26 15 -52 3 -26 10 -52 15 -58 5 -6 11 -24 14 -41 3 -16 15 -66 26 -110 12 -44 24 -95 26 -114 3 -19 8 -37 10 -42 3 -4 1 -27 -4 -51 -15 -64 -80 -122 -154 -138 -63 -13 -137 -9 -180 9 -16 6 -32 11 -37 11 -13 0 -50 51 -50 69 0 9 -7 29 -15 45 -8 16 -18 46 -21 68 -4 21 -11 41 -15 44 -5 3 -9 18 -9 34 0 16 -4 32 -10 35 -5 3 -10 19 -10 34 0 15 -3 31 -7 35 -4 4 -8 13 -8 19 -1 17 -15 69 -25 92 -5 11 -11 31 -13 45 -6 27 -50 188 -72 260 -8 25 -17 64 -20 87 -4 24 -11 45 -15 48 -5 3 -12 27 -16 53 -3 26 -11 55 -16 64 -5 10 -13 37 -18 60 -5 24 -21 84 -35 133 -13 50 -34 135 -46 190 -12 55 -27 118 -35 141 -8 23 -16 60 -19 84 -3 24 -8 47 -11 52 -3 5 -7 19 -9 31 -2 12 -6 42 -10 67 -14 87 -8 209 12 238 10 15 21 34 24 42 9 23 80 58 119 59 19 0 52 -3 72 -8z m483 -82 c7 -24 22 -89 35 -144 12 -55 26 -104 30 -110 5 -5 14 -39 20 -75 6 -36 15 -69 20 -75 5 -5 14 -39 20 -75 6 -36 15 -69 20 -75 5 -5 13 -32 19 -60 17 -80 37 -159 45 -176 4 -9 8 -27 10 -40 1 -13 13 -58 25 -99 13 -41 23 -85 23 -98 0 -12 4 -25 9 -28 5 -3 9 -18 9 -33 0 -15 4 -31 10 -37 5 -5 11 -23 13 -39 3 -31 18 -86 43 -165 8 -25 23 -83 33 -130 11 -47 30 -123 44 -170 13 -47 22 -92 20 -100 -2 -9 -16 -20 -31 -26 -43 -18 -173 -45 -183 -38 -5 3 -9 16 -9 29 0 13 -4 27 -10 30 -5 3 -10 15 -10 27 0 11 -7 41 -15 67 -8 25 -22 75 -30 111 -40 163 -54 214 -76 285 -10 34 -23 81 -29 105 -19 87 -63 255 -71 271 -4 9 -17 63 -29 120 -12 57 -26 109 -30 114 -5 6 -11 28 -15 50 -3 22 -15 69 -25 105 -11 36 -26 92 -34 125 -9 33 -28 107 -42 165 -15 58 -31 113 -35 122 -17 33 -11 68 11 68 11 0 46 9 77 19 59 20 101 29 117 27 5 -1 15 -22 21 -47z"/>
 </g>
<g id="layer103" fill="#d1d3d4" stroke="none">
 <path d="M3217 4596 c-26 -7 -56 -21 -67 -31 -18 -16 -18 -19 -3 -39 l16 -22 45 23 c25 13 56 23 69 23 23 0 63 -31 63 -50 0 -15 -40 -37 -103 -55 -45 -13 -63 -24 -78 -48 -40 -64 -2 -138 78 -153 42 -8 120 9 142 31 13 13 12 17 -3 34 -16 17 -20 18 -46 4 -61 -30 -142 1 -115 43 6 10 42 27 80 39 81 26 105 51 105 107 0 32 -6 46 -31 69 -17 16 -39 29 -48 29 -9 0 -25 2 -36 5 -11 2 -41 -2 -68 -9z"/>
 <path d="M210 4597 c0 -2 34 -80 75 -173 l74 -169 37 0 36 0 74 168 c41 93 74 170 74 173 0 2 -15 4 -33 4 -30 0 -36 -4 -50 -40 l-15 -40 -86 0 -86 0 -16 40 c-14 36 -20 40 -50 40 -19 0 -34 -2 -34 -3z m237 -149 c-3 -7 -15 -37 -28 -66 l-22 -54 -29 62 c-15 35 -28 64 -28 66 0 2 25 4 56 4 41 0 55 -3 51 -12z"/>
 <path d="M630 4425 l0 -175 83 0 c106 0 145 12 187 55 34 35 35 38 35 120 0 82 -1 85 -35 120 -42 43 -81 55 -187 55 l-83 0 0 -175z m199 101 c69 -36 69 -166 0 -202 -16 -8 -53 -14 -84 -14 l-55 0 0 115 0 115 55 0 c31 0 68 -6 84 -14z"/>
 <path d="M1030 4425 l0 -175 48 0 47 0 49 106 50 106 53 -106 53 -106 45 0 45 0 0 175 0 175 -30 0 -30 0 -1 -127 0 -128 -57 113 c-44 88 -61 112 -77 112 -16 0 -33 -24 -77 -112 l-57 -113 0 128 -1 127 -30 0 -30 0 0 -175z"/>
 <path d="M1520 4425 l0 -175 30 0 30 0 0 175 0 175 -30 0 -30 0 0 -175z"/>
 <path d="M1670 4425 l0 -175 29 0 c26 0 42 16 128 127 l98 126 3 -126 3 -127 29 0 30 0 0 175 0 175 -33 0 c-31 0 -41 -9 -128 -122 l-94 -122 -3 122 -3 122 -29 0 -30 0 0 -175z"/>
 <path d="M2162 4583 c-71 -35 -109 -121 -90 -208 12 -58 77 -120 137 -130 68 -11 119 3 167 47 31 29 45 51 52 83 19 88 -19 174 -91 209 -45 21 -132 20 -175 -1z m171 -71 c56 -57 45 -162 -23 -197 -61 -31 -137 -10 -166 47 -32 62 -2 152 61 179 37 16 96 3 128 -29z"/>
 <path d="M2510 4425 l0 -175 115 0 115 0 0 30 0 30 -85 0 -85 0 0 45 0 45 73 0 c41 0 76 2 79 5 3 3 3 17 0 30 -4 24 -8 25 -78 25 l-74 0 0 70 0 70 -30 0 -30 0 0 -175z"/>
 <path d="M2740 4597 c0 -2 34 -80 75 -173 l74 -169 37 0 36 0 74 168 c41 93 74 170 74 173 0 2 -15 4 -33 4 -30 0 -36 -4 -50 -40 l-15 -40 -86 0 -86 0 -16 40 c-14 36 -20 40 -50 40 -19 0 -34 -2 -34 -3z m237 -149 c-3 -7 -15 -37 -28 -66 l-22 -54 -29 62 c-15 35 -28 64 -28 66 0 2 25 4 56 4 41 0 55 -3 51 -12z"/>
 <path d="M3450 4578 c0 -14 39 -70 99 -143 l99 -120 -94 -3 -94 -3 0 -29 0 -30 140 0 140 0 0 24 c0 15 -34 65 -95 139 -52 64 -95 118 -95 121 0 3 43 6 95 6 l95 0 0 30 0 30 -145 0 c-144 0 -145 0 -145 -22z"/>
 <path d="M3890 4529 c0 -70 -1 -74 -60 -169 -33 -53 -60 -100 -60 -104 0 -3 14 -6 30 -6 31 0 36 6 116 136 9 15 17 7 55 -57 42 -68 48 -74 82 -77 l36 -3 -64 105 c-64 104 -65 107 -65 176 l0 70 -35 0 -35 0 0 -71z"/>
 <path d="M4100 4578 c0 -14 39 -70 99 -143 l99 -120 -94 -3 -94 -3 0 -29 0 -30 140 0 140 0 0 24 c0 15 -34 65 -95 139 -52 64 -95 118 -95 121 0 3 43 6 95 6 l95 0 0 30 0 30 -145 0 c-144 0 -145 0 -145 -22z"/>
 <path d="M4460 4425 l0 -175 48 0 47 0 49 106 50 106 53 -106 53 -106 45 0 45 0 0 175 0 175 -30 0 -30 0 -1 -127 0 -128 -57 113 c-44 88 -61 112 -77 112 -16 0 -33 -24 -77 -112 l-57 -113 0 128 -1 127 -30 0 -30 0 0 -175z"/>
 <path d="M160 2060 l0 -1900 2400 0 2400 0 0 1900 0 1900 -1271 0 c-1205 0 -1270 -1 -1265 -17 5 -16 44 -157 218 -776 17 -59 28 -110 26 -113 -7 -6 -560 -156 -563 -152 -2 2 -17 53 -34 113 -17 61 -71 252 -120 425 -49 173 -102 361 -117 418 l-29 102 -822 0 -823 0 0 -1900z m3909 1305 c60 -21 109 -64 136 -120 13 -27 63 -192 110 -365 97 -354 198 -723 285 -1035 118 -426 114 -409 101 -470 -24 -105 -119 -162 -256 -153 -92 6 -133 28 -162 88 -33 68 -267 913 -392 1419 -88 353 -98 460 -51 550 19 38 64 85 90 94 29 11 98 7 139 -8z m-652 -426 c29 -107 94 -345 144 -529 50 -184 119 -441 154 -570 35 -129 89 -327 120 -439 30 -112 55 -212 55 -222 0 -21 11 -18 -360 -118 -162 -44 -464 -125 -670 -181 -206 -56 -442 -120 -525 -142 -82 -22 -197 -53 -255 -69 -57 -16 -107 -25 -111 -21 -4 4 -24 70 -44 147 -21 77 -59 219 -86 315 -26 96 -70 258 -97 360 -28 102 -73 268 -101 370 -223 821 -213 774 -185 782 112 32 491 136 789 217 610 165 966 262 1035 281 36 10 69 17 75 16 5 -2 34 -90 62 -197z m318 149 c7 -32 189 -727 239 -913 51 -193 156 -591 192 -733 22 -86 26 -115 17 -120 -25 -16 -205 -54 -213 -46 -8 9 -34 102 -120 434 -26 102 -73 280 -103 395 -31 116 -97 368 -148 560 -51 193 -94 362 -97 377 -4 24 0 28 39 38 24 6 64 17 89 25 78 23 97 20 105 -17z m-2768 -559 c57 -28 127 -107 142 -161 14 -52 79 -292 213 -778 55 -201 133 -486 174 -635 41 -148 78 -295 83 -326 13 -77 0 -124 -45 -170 -50 -52 -114 -72 -207 -67 -80 4 -121 20 -149 59 -18 24 -66 168 -108 324 -10 39 -66 246 -125 460 -130 477 -221 838 -241 965 -31 186 6 305 106 343 35 13 115 6 157 -14z m515 -319 c43 -162 103 -389 133 -505 30 -115 77 -295 105 -400 149 -567 154 -586 140 -595 -16 -10 -172 -50 -195 -50 -21 0 -25 14 -94 278 -33 125 -134 510 -225 856 -91 346 -166 637 -166 646 0 13 22 23 93 43 50 14 101 25 111 24 17 -2 30 -42 98 -297z"/>
 </g>
<g id="layer104" fill="#fefefe" stroke="none">
 <path d="M3225 4596 c-22 -6 -51 -19 -64 -28 -22 -16 -23 -20 -12 -42 l14 -25 40 26 c32 20 49 24 80 20 51 -7 64 -20 51 -53 -7 -20 -20 -30 -54 -39 -75 -20 -116 -42 -128 -70 -19 -41 -14 -63 21 -100 29 -32 37 -35 94 -36 83 -3 136 29 99 60 -10 8 -25 7 -60 -6 -44 -16 -48 -16 -74 -1 -46 29 -22 88 35 88 13 0 31 4 41 8 9 5 30 15 46 23 60 29 57 131 -4 161 -50 24 -79 27 -125 14z"/>
 <path d="M220 4584 c0 -8 8 -32 19 -52 10 -20 25 -53 33 -72 22 -54 57 -131 78 -170 13 -26 25 -36 46 -38 26 -2 31 3 53 50 37 82 63 140 79 178 9 19 23 51 34 71 24 48 24 49 -17 49 -25 0 -35 -4 -35 -15 0 -9 -7 -27 -16 -40 -15 -23 -22 -25 -99 -25 -88 0 -97 5 -109 53 -5 22 -12 27 -36 27 -20 0 -30 -5 -30 -16z m186 -124 c42 0 44 -1 38 -24 -3 -13 -16 -43 -28 -67 l-22 -44 -15 35 c-14 30 -28 61 -48 104 -2 5 4 6 13 3 10 -4 38 -7 62 -7z"/>
 <path d="M630 4425 l0 -177 93 4 c150 7 205 47 214 156 4 46 0 65 -19 101 -32 63 -76 83 -194 89 l-94 5 0 -178z m196 103 c43 -23 53 -39 59 -89 7 -56 -9 -87 -58 -115 -28 -16 -52 -20 -90 -18 l-52 2 -3 108 c-1 59 -1 113 1 118 7 17 108 12 143 -6z"/>
 <path d="M1030 4425 l0 -175 43 0 44 0 55 107 56 107 21 -35 c12 -19 21 -40 21 -47 0 -7 14 -39 30 -72 30 -60 30 -60 75 -60 l45 0 0 175 0 175 -30 0 -30 0 -1 -127 0 -128 -57 113 c-76 150 -80 150 -158 -10 l-59 -123 -3 138 -3 137 -24 0 -25 0 0 -175z"/>
 <path d="M1520 4425 l0 -175 25 0 25 0 0 175 0 175 -25 0 -25 0 0 -175z"/>
 <path d="M1670 4425 l0 -175 25 0 c28 0 47 16 89 78 16 23 32 42 37 42 4 0 10 8 13 18 3 9 21 34 38 54 18 20 38 45 45 55 9 14 12 -8 12 -114 l1 -133 30 0 30 0 0 175 0 175 -28 0 c-26 0 -72 -31 -72 -48 0 -4 -12 -21 -27 -38 -16 -17 -41 -49 -57 -72 -16 -23 -32 -42 -36 -42 -4 0 -12 -11 -18 -25 -24 -52 -32 -26 -32 100 l0 125 -25 0 -25 0 0 -175z"/>
 <path d="M2175 4591 c-38 -17 -92 -85 -103 -130 -15 -60 14 -140 65 -179 32 -24 45 -27 113 -27 68 0 81 3 113 27 24 19 42 46 55 81 28 74 15 130 -45 189 -41 40 -46 42 -111 45 -37 2 -76 -1 -87 -6z m154 -72 c46 -34 59 -87 36 -140 -20 -43 -79 -89 -114 -89 -65 0 -139 92 -126 157 6 35 43 78 80 94 31 14 90 3 124 -22z"/>
 <path d="M2510 4425 l0 -175 115 0 115 0 0 31 0 30 -87 -2 -88 -2 0 49 0 49 78 3 c75 3 77 4 77 28 0 25 -1 25 -77 23 l-78 -2 -3 71 c-3 69 -4 72 -27 72 l-25 0 0 -175z"/>
 <path d="M2750 4584 c0 -8 8 -32 19 -52 10 -20 25 -53 33 -72 22 -54 57 -131 78 -170 13 -26 25 -36 46 -38 26 -2 31 3 53 50 37 82 63 140 79 178 9 19 23 51 34 71 24 48 24 49 -17 49 -25 0 -35 -4 -35 -15 0 -9 -7 -27 -16 -40 -15 -23 -22 -25 -99 -25 -88 0 -97 5 -109 53 -5 22 -12 27 -36 27 -20 0 -30 -5 -30 -16z m186 -124 c42 0 44 -1 38 -24 -3 -13 -16 -43 -28 -67 l-22 -44 -15 35 c-14 30 -28 61 -48 104 -2 5 4 6 13 3 10 -4 38 -7 62 -7z"/>
 <path d="M3460 4579 c0 -23 14 -52 38 -79 25 -26 64 -73 92 -109 14 -18 35 -44 48 -57 12 -14 22 -26 22 -27 0 -1 -45 0 -100 1 l-100 4 0 -31 0 -31 140 0 140 0 0 24 c0 12 -12 37 -27 53 -16 17 -37 42 -48 57 -11 14 -31 39 -45 55 -101 119 -103 107 16 103 l104 -4 0 31 0 31 -140 0 c-135 0 -140 -1 -140 -21z"/>
 <path d="M3891 4527 c3 -60 0 -79 -16 -103 -25 -37 -39 -61 -60 -101 -9 -18 -23 -37 -31 -44 -23 -19 -16 -30 18 -27 31 3 42 15 78 83 6 11 18 33 26 48 l15 28 18 -23 c10 -13 21 -30 24 -38 4 -8 16 -28 27 -45 11 -16 23 -36 26 -42 3 -7 19 -13 35 -13 32 0 31 13 -5 65 -27 37 -42 64 -55 92 -5 11 -15 24 -20 28 -6 3 -11 40 -11 86 l0 79 -36 0 -36 0 3 -73z"/>
 <path d="M4110 4579 c0 -23 14 -52 38 -79 25 -26 64 -73 92 -109 14 -18 35 -44 48 -57 12 -14 22 -26 22 -27 0 -1 -45 0 -100 1 l-100 4 0 -31 0 -31 140 0 140 0 0 24 c0 12 -12 37 -27 53 -16 17 -37 42 -48 57 -11 14 -31 39 -45 55 -101 119 -103 107 16 103 l104 -4 0 31 0 31 -140 0 c-135 0 -140 -1 -140 -21z"/>
 <path d="M4460 4425 l0 -175 43 0 44 0 55 107 56 107 21 -35 c12 -19 21 -40 21 -47 0 -7 14 -39 30 -72 30 -60 30 -60 75 -60 l45 0 0 175 0 175 -30 0 -30 0 -1 -127 0 -128 -57 113 c-76 150 -80 150 -158 -10 l-59 -123 -3 138 -3 137 -24 0 -25 0 0 -175z"/>
 </g>

</svg>