<!DOCTYPE svg PUBLIC "-//W3C//DTD SVG 20010904//EN" "http://www.w3.org/TR/2001/REC-SVG-20010904/DTD/svg10.dtd">
<svg version="1.0" xmlns="http://www.w3.org/2000/svg" width="512px" height="512px" viewBox="0 0 5120 5120" preserveAspectRatio="xMidYMid meet">
<g id="layer101" fill="#000000" stroke="none">
 <path d="M26 5094 l-26 -27 0 -2507 0 -2507 26 -27 27 -26 2507 0 2507 0 27 26 26 27 0 2507 0 2507 -26 27 -27 26 -2507 0 -2507 0 -27 -26z"/>
 </g>
<g id="layer102" fill="#f44336" stroke="none">
 <path d="M2262 4443 c-53 -26 -77 -68 -77 -138 0 -71 24 -113 81 -140 50 -24 137 -17 167 13 31 31 10 49 -31 28 -68 -35 -140 -11 -166 55 -16 40 -16 46 -1 86 19 48 54 73 105 73 55 0 70 -15 70 -70 0 -43 3 -50 20 -50 18 0 20 7 20 66 0 65 0 65 -35 80 -45 19 -112 18 -153 -3z"/>
 <path d="M3172 4443 c-98 -48 -109 -201 -19 -265 41 -30 121 -35 167 -11 52 27 80 75 80 138 0 118 -120 191 -228 138z m128 -38 c34 -17 60 -62 60 -100 0 -122 -169 -158 -214 -45 -42 105 55 196 154 145z"/>
 <path d="M220 4305 c0 -182 4 -183 115 -46 43 55 83 97 87 95 4 -3 8 -48 8 -100 0 -87 1 -94 20 -94 19 0 20 7 20 145 0 184 -4 186 -121 40 l-84 -104 -3 104 c-2 97 -4 105 -22 105 -19 0 -20 -7 -20 -145z"/>
 <path d="M560 4305 c0 -138 1 -145 20 -145 19 0 20 7 20 145 0 138 -1 145 -20 145 -19 0 -20 -7 -20 -145z"/>
 <path d="M690 4305 l0 -145 105 0 c98 0 105 1 105 20 0 18 -7 20 -85 20 l-85 0 0 40 0 40 75 0 c68 0 75 2 75 20 0 18 -7 20 -75 20 l-75 0 0 45 0 45 85 0 c78 0 85 2 85 20 0 19 -7 20 -105 20 l-105 0 0 -145z"/>
 <path d="M950 4434 c0 -8 38 -62 85 -119 47 -57 85 -106 85 -109 0 -3 -38 -6 -85 -6 -78 0 -85 -2 -85 -20 0 -19 7 -20 120 -20 102 0 120 2 120 16 0 8 -38 62 -85 119 -47 57 -85 106 -85 109 0 3 40 6 89 6 58 0 91 4 93 11 2 7 31 -49 64 -122 53 -116 64 -134 86 -137 23 -3 30 8 89 137 35 77 67 137 71 133 4 -4 34 -66 66 -137 51 -112 62 -130 84 -133 26 -3 32 7 134 236 l24 52 -24 0 c-18 0 -29 -10 -43 -37 l-18 -38 -73 -3 -73 -3 -16 41 c-16 39 -17 40 -64 40 -45 0 -48 -2 -66 -37 l-18 -38 -73 -3 -73 -3 -16 41 -16 40 -149 0 c-128 0 -148 -2 -148 -16z m460 -98 c0 -2 -13 -31 -28 -65 l-28 -61 -27 55 c-15 31 -27 60 -27 65 0 6 25 10 55 10 30 0 55 -2 55 -4z m310 0 c0 -2 -13 -31 -28 -65 l-28 -61 -27 55 c-15 31 -27 60 -27 65 0 6 25 10 55 10 30 0 55 -2 55 -4z"/>
 <path d="M1870 4305 c0 -182 4 -183 115 -46 43 55 83 97 87 95 4 -3 8 -48 8 -100 0 -87 1 -94 20 -94 19 0 20 7 20 145 0 184 -4 186 -121 40 l-84 -104 -3 104 c-2 97 -4 105 -22 105 -19 0 -20 -7 -20 -145z"/>
 <path d="M2490 4447 c0 -2 29 -66 64 -143 54 -120 67 -139 88 -142 26 -3 32 8 134 236 l24 52 -24 0 c-18 0 -29 -10 -43 -37 l-18 -38 -73 -3 -73 -3 -16 41 c-12 31 -21 40 -40 40 -12 0 -23 -1 -23 -3z m210 -111 c0 -2 -13 -31 -28 -65 l-28 -61 -27 55 c-15 31 -27 60 -27 65 0 6 25 10 55 10 30 0 55 -2 55 -4z"/>
 <path d="M2810 4435 c0 -9 40 -64 90 -123 l89 -107 -89 -3 c-82 -2 -90 -5 -90 -22 0 -19 7 -20 119 -20 87 0 121 3 124 13 2 6 -37 62 -86 122 l-90 110 92 3 c83 2 91 5 91 22 0 19 -7 20 -125 20 -106 0 -125 -2 -125 -15z"/>
 <path d="M3476 4312 c-25 -75 -46 -140 -46 -145 0 -4 9 -7 19 -7 20 0 37 35 77 162 9 32 20 55 23 52 3 -3 22 -51 42 -107 31 -90 39 -102 59 -102 21 0 27 12 60 110 43 125 36 128 89 -30 23 -66 32 -81 51 -83 16 -3 21 0 18 10 -3 7 -25 73 -49 146 -41 124 -45 132 -69 132 -24 0 -28 -8 -59 -102 -18 -57 -36 -106 -40 -111 -4 -4 -15 19 -25 50 -43 136 -56 163 -81 163 -21 0 -28 -13 -69 -138z"/>
 <path d="M3870 4447 c0 -2 29 -66 64 -143 54 -120 67 -139 88 -142 26 -3 32 8 134 236 l24 52 -24 0 c-18 0 -29 -10 -43 -37 l-18 -38 -73 -3 -73 -3 -16 41 c-12 31 -21 40 -40 40 -12 0 -23 -1 -23 -3z m210 -111 c0 -2 -13 -31 -28 -65 l-28 -61 -27 55 c-15 31 -27 60 -27 65 0 6 25 10 55 10 30 0 55 -2 55 -4z"/>
 <path d="M4230 4305 c0 -182 4 -183 115 -46 43 55 83 97 87 95 4 -3 8 -48 8 -100 0 -87 1 -94 20 -94 19 0 20 7 20 145 0 184 -4 186 -121 40 l-84 -104 -3 104 c-2 97 -4 105 -22 105 -19 0 -20 -7 -20 -145z"/>
 <path d="M4570 4305 c0 -138 1 -145 20 -145 19 0 20 7 20 145 0 138 -1 145 -20 145 -19 0 -20 -7 -20 -145z"/>
 <path d="M4700 4305 l0 -145 105 0 c98 0 105 1 105 20 0 18 -7 20 -85 20 l-85 0 0 40 0 40 75 0 c68 0 75 2 75 20 0 18 -7 20 -75 20 l-75 0 0 45 0 45 85 0 c78 0 85 2 85 20 0 19 -7 20 -105 20 l-105 0 0 -145z"/>
 <path d="M2914 4105 c-4 -9 -2 -21 4 -27 15 -15 44 -1 40 19 -4 23 -36 29 -44 8z"/>
 <path d="M160 2060 l0 -1900 2400 0 2400 0 0 1900 0 1900 -2400 0 -2400 0 0 -1900z m4263 1503 c3 -5 -19 -50 -49 -102 -30 -52 -54 -96 -54 -98 0 -3 -8 -17 -19 -31 -10 -15 -30 -48 -44 -74 -14 -25 -60 -106 -103 -180 -43 -73 -103 -178 -134 -233 -31 -55 -81 -142 -110 -192 l-54 -93 -1290 0 -1291 0 -55 97 c-30 53 -64 112 -75 132 -11 20 -32 56 -47 81 -35 61 -344 595 -374 646 -13 23 -20 44 -17 48 9 9 3711 8 3716 -1z m-613 -1078 c0 -5 -19 -40 -117 -208 -72 -124 -128 -223 -171 -299 -11 -18 -54 -94 -97 -168 -43 -74 -113 -196 -156 -270 l-78 -135 -624 -3 -624 -2 -32 57 c-36 67 -69 125 -213 373 -103 177 -250 432 -298 515 -9 17 -32 56 -49 88 l-33 57 1246 0 c685 0 1246 -2 1246 -5z m-705 -1232 c-21 -38 -50 -88 -65 -113 -15 -25 -91 -157 -170 -295 -78 -137 -152 -266 -164 -285 -12 -19 -46 -79 -76 -132 -29 -54 -57 -98 -60 -98 -6 0 -71 107 -157 260 -11 19 -55 96 -98 170 -195 336 -260 449 -291 503 l-33 57 575 0 576 0 -37 -67z"/>
 <path d="M1560 2358 c0 -7 39 -80 87 -163 164 -286 236 -410 262 -456 14 -25 49 -85 76 -132 l50 -87 532 0 531 0 45 78 c24 42 54 94 66 115 12 21 56 98 98 170 67 117 92 160 172 299 10 18 37 65 59 103 22 39 38 73 35 78 -2 4 -456 7 -1009 7 -796 0 -1004 -3 -1004 -12z"/>
 <path d="M2207 1168 c11 -18 97 -171 193 -340 96 -170 177 -305 181 -300 6 6 331 580 368 650 l12 22 -387 0 -386 0 19 -32z"/>
 </g>
<g id="layer103" fill="#d2d2d2" stroke="none">
 <path d="M2262 4443 c-53 -26 -77 -68 -77 -138 0 -71 24 -113 81 -140 50 -24 137 -17 167 13 31 31 10 49 -31 28 -68 -35 -140 -11 -166 55 -16 40 -16 46 -1 86 19 48 54 73 105 73 55 0 70 -15 70 -70 0 -43 3 -50 20 -50 18 0 20 7 20 66 0 65 0 65 -35 80 -45 19 -112 18 -153 -3z"/>
 <path d="M3172 4443 c-98 -48 -109 -201 -19 -265 41 -30 121 -35 167 -11 52 27 80 75 80 138 0 118 -120 191 -228 138z m128 -38 c34 -17 60 -62 60 -100 0 -122 -169 -158 -214 -45 -42 105 55 196 154 145z"/>
 <path d="M220 4305 c0 -182 4 -183 115 -46 43 55 83 97 87 95 4 -3 8 -48 8 -100 0 -87 1 -94 20 -94 19 0 20 7 20 145 0 184 -4 186 -121 40 l-84 -104 -3 104 c-2 97 -4 105 -22 105 -19 0 -20 -7 -20 -145z"/>
 <path d="M560 4305 c0 -138 1 -145 20 -145 19 0 20 7 20 145 0 138 -1 145 -20 145 -19 0 -20 -7 -20 -145z"/>
 <path d="M690 4305 l0 -145 105 0 c98 0 105 1 105 20 0 18 -7 20 -85 20 l-85 0 0 40 0 40 75 0 c68 0 75 2 75 20 0 18 -7 20 -75 20 l-75 0 0 45 0 45 85 0 c78 0 85 2 85 20 0 19 -7 20 -105 20 l-105 0 0 -145z"/>
 <path d="M950 4434 c0 -8 38 -62 85 -119 47 -57 85 -106 85 -109 0 -3 -38 -6 -85 -6 -78 0 -85 -2 -85 -20 0 -19 7 -20 120 -20 102 0 120 2 120 16 0 8 -38 62 -85 119 -47 57 -85 106 -85 109 0 3 40 6 89 6 58 0 91 4 93 11 2 7 31 -49 64 -122 53 -116 64 -134 86 -137 23 -3 30 8 89 137 35 77 67 137 71 133 4 -4 34 -66 66 -137 51 -112 62 -130 84 -133 26 -3 32 7 134 236 l24 52 -24 0 c-18 0 -29 -10 -43 -37 l-18 -38 -73 -3 -73 -3 -16 41 c-16 39 -17 40 -64 40 -45 0 -48 -2 -66 -37 l-18 -38 -73 -3 -73 -3 -16 41 -16 40 -149 0 c-128 0 -148 -2 -148 -16z m460 -98 c0 -2 -13 -31 -28 -65 l-28 -61 -27 55 c-15 31 -27 60 -27 65 0 6 25 10 55 10 30 0 55 -2 55 -4z m310 0 c0 -2 -13 -31 -28 -65 l-28 -61 -27 55 c-15 31 -27 60 -27 65 0 6 25 10 55 10 30 0 55 -2 55 -4z"/>
 <path d="M1870 4305 c0 -182 4 -183 115 -46 43 55 83 97 87 95 4 -3 8 -48 8 -100 0 -87 1 -94 20 -94 19 0 20 7 20 145 0 184 -4 186 -121 40 l-84 -104 -3 104 c-2 97 -4 105 -22 105 -19 0 -20 -7 -20 -145z"/>
 <path d="M2490 4447 c0 -2 29 -66 64 -143 54 -120 67 -139 88 -142 26 -3 32 8 134 236 l24 52 -24 0 c-18 0 -29 -10 -43 -37 l-18 -38 -73 -3 -73 -3 -16 41 c-12 31 -21 40 -40 40 -12 0 -23 -1 -23 -3z m210 -111 c0 -2 -13 -31 -28 -65 l-28 -61 -27 55 c-15 31 -27 60 -27 65 0 6 25 10 55 10 30 0 55 -2 55 -4z"/>
 <path d="M2810 4435 c0 -9 40 -64 90 -123 l89 -107 -89 -3 c-82 -2 -90 -5 -90 -22 0 -19 7 -20 119 -20 87 0 121 3 124 13 2 6 -37 62 -86 122 l-90 110 92 3 c83 2 91 5 91 22 0 19 -7 20 -125 20 -106 0 -125 -2 -125 -15z"/>
 <path d="M3476 4312 c-25 -75 -46 -140 -46 -145 0 -4 9 -7 19 -7 20 0 37 35 77 162 9 32 20 55 23 52 3 -3 22 -51 42 -107 31 -90 39 -102 59 -102 21 0 27 12 60 110 43 125 36 128 89 -30 23 -66 32 -81 51 -83 16 -3 21 0 18 10 -3 7 -25 73 -49 146 -41 124 -45 132 -69 132 -24 0 -28 -8 -59 -102 -18 -57 -36 -106 -40 -111 -4 -4 -15 19 -25 50 -43 136 -56 163 -81 163 -21 0 -28 -13 -69 -138z"/>
 <path d="M3870 4447 c0 -2 29 -66 64 -143 54 -120 67 -139 88 -142 26 -3 32 8 134 236 l24 52 -24 0 c-18 0 -29 -10 -43 -37 l-18 -38 -73 -3 -73 -3 -16 41 c-12 31 -21 40 -40 40 -12 0 -23 -1 -23 -3z m210 -111 c0 -2 -13 -31 -28 -65 l-28 -61 -27 55 c-15 31 -27 60 -27 65 0 6 25 10 55 10 30 0 55 -2 55 -4z"/>
 <path d="M4230 4305 c0 -182 4 -183 115 -46 43 55 83 97 87 95 4 -3 8 -48 8 -100 0 -87 1 -94 20 -94 19 0 20 7 20 145 0 184 -4 186 -121 40 l-84 -104 -3 104 c-2 97 -4 105 -22 105 -19 0 -20 -7 -20 -145z"/>
 <path d="M4570 4305 c0 -138 1 -145 20 -145 19 0 20 7 20 145 0 138 -1 145 -20 145 -19 0 -20 -7 -20 -145z"/>
 <path d="M4700 4305 l0 -145 105 0 c98 0 105 1 105 20 0 18 -7 20 -85 20 l-85 0 0 40 0 40 75 0 c68 0 75 2 75 20 0 18 -7 20 -75 20 l-75 0 0 45 0 45 85 0 c78 0 85 2 85 20 0 19 -7 20 -105 20 l-105 0 0 -145z"/>
 <path d="M2914 4105 c-4 -9 -2 -21 4 -27 15 -15 44 -1 40 19 -4 23 -36 29 -44 8z"/>
 </g>
<g id="layer104" fill="#fefefe" stroke="none">
 <path d="M2292 4453 c-46 -6 -98 -60 -104 -109 -14 -106 29 -175 116 -187 52 -7 114 9 130 35 17 28 1 30 -47 7 -45 -22 -47 -22 -86 -4 -61 27 -74 46 -74 110 0 63 13 83 72 109 28 13 46 15 72 9 33 -9 34 -11 37 -61 3 -44 6 -52 23 -52 16 0 19 7 19 53 0 39 -5 58 -17 69 -20 17 -90 27 -141 21z"/>
 <path d="M3197 4453 c-42 -7 -93 -63 -99 -109 -17 -132 58 -208 185 -187 47 7 103 66 113 118 16 85 -45 170 -126 178 -25 3 -58 3 -73 0z m98 -37 c88 -37 83 -190 -8 -225 -34 -12 -41 -12 -77 4 -60 27 -73 47 -73 110 0 61 10 78 62 105 44 23 53 24 96 6z"/>
 <path d="M220 4305 c0 -137 1 -145 20 -145 10 0 25 10 31 23 6 12 18 29 25 37 57 65 89 105 119 145 13 18 14 9 15 -92 0 -106 1 -113 20 -113 19 0 20 7 20 145 0 177 -1 178 -87 77 -15 -18 -37 -44 -48 -58 -11 -15 -27 -34 -36 -44 -9 -10 -22 -26 -28 -36 -8 -15 -10 8 -11 94 0 105 -1 112 -20 112 -19 0 -20 -7 -20 -145z"/>
 <path d="M560 4305 c0 -138 1 -145 20 -145 19 0 20 7 20 145 0 138 -1 145 -20 145 -19 0 -20 -7 -20 -145z"/>
 <path d="M690 4305 l0 -145 106 0 c80 0 105 3 102 13 -3 8 -32 13 -86 15 l-82 3 0 49 0 50 70 0 c56 0 70 3 70 15 0 12 -14 15 -70 15 l-70 0 0 50 0 50 85 0 c69 0 85 3 85 15 0 12 -18 15 -105 15 l-105 0 0 -145z"/>
 <path d="M950 4435 c0 -8 8 -24 18 -34 23 -25 62 -72 87 -105 11 -14 32 -39 48 -56 15 -16 27 -34 27 -40 0 -6 -34 -10 -85 -10 -69 0 -85 -3 -85 -15 0 -12 19 -15 115 -15 96 0 115 3 115 15 0 8 -8 24 -17 34 -23 25 -63 72 -88 105 -11 14 -32 40 -47 58 -16 17 -28 35 -28 40 0 4 41 8 90 8 73 0 90 3 90 15 0 13 -20 15 -120 15 -100 0 -120 -2 -120 -15z"/>
 <path d="M1210 4434 c0 -9 13 -42 28 -73 41 -79 80 -163 86 -183 3 -11 15 -18 29 -18 19 0 28 9 42 43 16 40 63 142 92 199 18 35 16 48 -4 48 -17 0 -43 -40 -43 -67 0 -10 -21 -13 -79 -13 -73 0 -80 2 -95 25 -9 13 -16 31 -16 40 0 8 -9 15 -20 15 -12 0 -20 -7 -20 -16z m195 -111 c-4 -10 -11 -29 -15 -43 -4 -14 -15 -38 -23 -54 -15 -27 -17 -28 -22 -10 -4 10 -16 39 -28 64 -12 25 -23 48 -25 53 -2 4 24 7 58 7 55 0 61 -2 55 -17z"/>
 <path d="M1520 4434 c0 -9 13 -42 28 -73 41 -79 80 -163 86 -183 3 -11 15 -18 29 -18 19 0 28 9 42 43 18 43 64 143 97 210 l19 37 -23 0 c-22 0 -48 -36 -48 -67 0 -10 -21 -13 -79 -13 -73 0 -80 2 -95 25 -9 13 -16 31 -16 40 0 8 -9 15 -20 15 -12 0 -20 -7 -20 -16z m195 -111 c-4 -10 -11 -29 -15 -43 -4 -14 -15 -38 -23 -54 -15 -27 -17 -28 -22 -10 -4 10 -16 39 -28 64 -12 25 -23 48 -25 53 -2 4 24 7 58 7 55 0 61 -2 55 -17z"/>
 <path d="M1870 4305 c0 -137 1 -145 20 -145 10 0 25 10 31 23 6 12 18 29 25 37 57 65 89 105 119 145 13 18 14 9 15 -92 0 -106 1 -113 20 -113 19 0 20 7 20 145 0 177 -1 178 -87 77 -15 -18 -37 -44 -48 -58 -11 -15 -27 -34 -36 -44 -9 -10 -22 -26 -28 -36 -8 -15 -10 8 -11 94 0 105 -1 112 -20 112 -19 0 -20 -7 -20 -145z"/>
 <path d="M2500 4434 c0 -9 13 -42 28 -73 41 -79 80 -163 86 -183 3 -11 15 -18 29 -18 19 0 28 9 42 43 18 43 64 143 97 210 l19 37 -23 0 c-22 0 -48 -36 -48 -67 0 -10 -21 -13 -79 -13 -73 0 -80 2 -95 25 -9 13 -16 31 -16 40 0 8 -9 15 -20 15 -12 0 -20 -7 -20 -16z m195 -111 c-4 -10 -11 -29 -15 -43 -4 -14 -15 -38 -23 -54 -15 -27 -17 -28 -22 -10 -4 10 -16 39 -28 64 -12 25 -23 48 -25 53 -2 4 24 7 58 7 55 0 61 -2 55 -17z"/>
 <path d="M2820 4430 c0 -11 8 -29 18 -39 26 -29 64 -75 92 -111 14 -18 33 -40 43 -49 35 -31 21 -40 -70 -43 -58 -2 -88 -7 -91 -15 -3 -10 25 -13 117 -13 77 0 121 4 121 10 0 12 -27 56 -50 81 -24 27 -63 75 -85 103 -11 15 -26 33 -32 41 -7 7 -13 16 -13 19 0 3 41 6 90 6 73 0 90 3 90 15 0 12 -19 15 -115 15 -108 0 -115 -1 -115 -20z"/>
 <path d="M3476 4312 c-25 -75 -46 -140 -46 -145 0 -4 8 -7 19 -7 15 0 25 21 51 103 17 56 35 106 40 111 10 11 35 -42 63 -135 18 -57 27 -75 43 -77 17 -2 23 7 38 55 10 32 27 77 37 100 10 23 19 49 19 57 0 41 18 6 49 -95 31 -99 50 -133 67 -116 4 3 -15 69 -41 146 -37 113 -50 141 -65 141 -12 0 -22 -12 -31 -37 -6 -21 -15 -42 -19 -48 -4 -5 -15 -35 -25 -65 -17 -55 -35 -86 -35 -61 0 6 -9 31 -19 54 -11 23 -27 68 -36 100 -14 48 -20 57 -40 57 -21 0 -28 -13 -69 -138z"/>
 <path d="M3880 4434 c0 -9 13 -42 28 -73 41 -79 80 -163 86 -183 3 -11 15 -18 29 -18 19 0 28 9 42 43 18 43 64 143 97 210 l19 37 -23 0 c-22 0 -48 -36 -48 -67 0 -10 -21 -13 -79 -13 -73 0 -80 2 -95 25 -9 13 -16 31 -16 40 0 8 -9 15 -20 15 -12 0 -20 -7 -20 -16z m195 -111 c-4 -10 -11 -29 -15 -43 -4 -14 -15 -38 -23 -54 -15 -27 -17 -28 -22 -10 -4 10 -16 39 -28 64 -12 25 -23 48 -25 53 -2 4 24 7 58 7 55 0 61 -2 55 -17z"/>
 <path d="M4230 4305 c0 -137 1 -145 20 -145 10 0 25 10 31 23 6 12 18 29 25 37 57 65 89 105 119 145 13 18 14 9 15 -92 0 -106 1 -113 20 -113 19 0 20 7 20 145 0 177 -1 178 -87 77 -15 -18 -37 -44 -48 -58 -11 -15 -27 -34 -36 -44 -9 -10 -22 -26 -28 -36 -8 -15 -10 8 -11 94 0 105 -1 112 -20 112 -19 0 -20 -7 -20 -145z"/>
 <path d="M4570 4305 c0 -138 1 -145 20 -145 19 0 20 7 20 145 0 138 -1 145 -20 145 -19 0 -20 -7 -20 -145z"/>
 <path d="M4700 4305 l0 -145 106 0 c80 0 105 3 102 13 -3 8 -32 13 -86 15 l-82 3 0 49 0 50 70 0 c56 0 70 3 70 15 0 12 -14 15 -70 15 l-70 0 0 50 0 50 85 0 c69 0 85 3 85 15 0 12 -18 15 -105 15 l-105 0 0 -145z"/>
 <path d="M2921 4106 c-9 -10 -8 -16 3 -25 10 -9 16 -8 25 3 9 10 8 16 -3 25 -10 9 -16 8 -25 -3z"/>
 </g>

</svg>