<!DOCTYPE svg PUBLIC "-//W3C//DTD SVG 20010904//EN" "http://www.w3.org/TR/2001/REC-SVG-20010904/DTD/svg10.dtd">
<svg version="1.0" xmlns="http://www.w3.org/2000/svg" width="512px" height="512px" viewBox="0 0 5120 5120" preserveAspectRatio="xMidYMid meet">
<g id="layer101" fill="#000000" stroke="none">
 <path d="M26 5094 l-26 -27 0 -2507 0 -2507 26 -27 27 -26 2507 0 2507 0 27 26 26 27 0 2507 0 2507 -26 27 -27 26 -2507 0 -2507 0 -27 -26z"/>
 </g>
<g id="layer102" fill="#ead836" stroke="none">
 <path d="M1767 4660 c-132 -25 -206 -179 -144 -300 79 -157 303 -157 385 1 32 60 26 151 -12 209 -46 70 -140 107 -229 90z m129 -85 c38 -25 67 -97 59 -145 -23 -137 -204 -164 -268 -40 -35 67 -1 165 67 196 38 18 107 12 142 -11z"/>
 <path d="M3067 4660 c-132 -25 -206 -179 -144 -300 79 -157 303 -157 385 1 32 60 26 151 -12 209 -46 70 -140 107 -229 90z m129 -85 c38 -25 67 -97 59 -145 -23 -137 -204 -164 -268 -40 -35 67 -1 165 67 196 38 18 107 12 142 -11z"/>
 <path d="M3489 4657 c-25 -7 -60 -23 -78 -36 l-33 -24 24 -23 23 -24 49 25 c75 38 132 31 149 -18 9 -25 -24 -54 -75 -67 -111 -28 -148 -62 -148 -136 0 -47 50 -99 104 -110 46 -8 132 10 163 34 21 17 21 17 3 39 -17 22 -20 22 -54 8 -50 -21 -109 -19 -130 4 -26 29 -12 57 37 74 23 8 63 22 88 31 58 21 79 44 86 94 13 99 -88 162 -208 129z"/>
 <path d="M3915 4659 c-88 -20 -155 -108 -155 -204 0 -172 201 -275 340 -174 l42 31 -22 23 -22 23 -46 -25 c-145 -77 -288 85 -184 209 51 61 117 70 190 26 l34 -21 21 22 22 22 -34 29 c-18 15 -53 33 -76 39 -49 12 -54 12 -110 0z"/>
 <path d="M1099 4633 c-25 -66 -129 -367 -129 -375 0 -5 16 -8 37 -6 l36 3 50 143 50 144 45 -146 45 -146 32 0 32 0 43 140 c24 77 46 137 49 134 3 -3 27 -65 52 -137 l46 -132 37 -3 c25 -2 36 1 35 10 0 7 -30 99 -67 203 l-67 190 -37 3 -36 3 -30 -98 c-17 -54 -36 -118 -43 -142 l-13 -44 -12 39 c-7 21 -27 85 -44 142 l-32 102 -34 0 c-28 0 -36 -5 -45 -27z"/>
 <path d="M2120 4455 l0 -205 35 0 35 0 0 170 0 170 90 0 90 0 0 35 0 35 -125 0 -125 0 0 -205z"/>
 <path d="M2450 4455 l0 -205 33 0 c30 0 41 11 150 151 l117 151 0 -151 0 -151 35 0 35 0 0 205 0 205 -39 0 c-37 0 -40 -3 -147 -142 l-109 -142 -3 142 -3 142 -34 0 -35 0 0 -205z"/>
 <path d="M3533 4192 l-22 -17 20 -32 c20 -31 22 -32 45 -17 24 17 23 26 -8 66 -12 16 -14 16 -35 0z"/>
 <path d="M3973 4192 l-22 -17 20 -32 c20 -31 22 -32 45 -17 24 17 23 26 -8 66 -12 16 -14 16 -35 0z"/>
 <path d="M160 2060 l0 -1900 2400 0 2400 0 0 1900 0 1900 -2400 0 -2400 0 0 -1900z m3195 1328 c-5 -25 -85 -548 -85 -560 0 -4 186 -9 414 -10 l414 -3 44 -30 c27 -19 52 -49 69 -81 l26 -51 7 -779 c4 -523 3 -797 -4 -834 -13 -69 -53 -128 -110 -160 l-45 -25 -1495 -6 c-872 -3 -1514 -2 -1540 3 -76 15 -138 72 -159 144 -5 17 -10 392 -12 834 -4 759 -3 807 14 845 23 50 61 91 109 116 35 18 63 19 411 19 206 0 611 3 900 7 l527 6 252 293 c139 162 256 294 261 294 4 0 5 -10 2 -22z"/>
 </g>
<g id="layer103" fill="#ffeb3b" stroke="none">
 <path d="M1767 4660 c-132 -25 -206 -179 -144 -300 79 -157 303 -157 385 1 32 60 26 151 -12 209 -46 70 -140 107 -229 90z m129 -85 c38 -25 67 -97 59 -145 -23 -137 -204 -164 -268 -40 -35 67 -1 165 67 196 38 18 107 12 142 -11z"/>
 <path d="M3067 4660 c-132 -25 -206 -179 -144 -300 79 -157 303 -157 385 1 32 60 26 151 -12 209 -46 70 -140 107 -229 90z m129 -85 c38 -25 67 -97 59 -145 -23 -137 -204 -164 -268 -40 -35 67 -1 165 67 196 38 18 107 12 142 -11z"/>
 <path d="M3489 4657 c-25 -7 -60 -23 -78 -36 l-33 -24 24 -23 23 -24 49 25 c75 38 132 31 149 -18 9 -25 -24 -54 -75 -67 -111 -28 -148 -62 -148 -136 0 -47 50 -99 104 -110 46 -8 132 10 163 34 21 17 21 17 3 39 -17 22 -20 22 -54 8 -50 -21 -109 -19 -130 4 -26 29 -12 57 37 74 23 8 63 22 88 31 58 21 79 44 86 94 13 99 -88 162 -208 129z"/>
 <path d="M3915 4659 c-88 -20 -155 -108 -155 -204 0 -172 201 -275 340 -174 l42 31 -22 23 -22 23 -46 -25 c-145 -77 -288 85 -184 209 51 61 117 70 190 26 l34 -21 21 22 22 22 -34 29 c-18 15 -53 33 -76 39 -49 12 -54 12 -110 0z"/>
 <path d="M1099 4633 c-25 -66 -129 -367 -129 -375 0 -5 16 -8 37 -6 l36 3 50 143 50 144 45 -146 45 -146 32 0 32 0 43 140 c24 77 46 137 49 134 3 -3 27 -65 52 -137 l46 -132 37 -3 c25 -2 36 1 35 10 0 7 -30 99 -67 203 l-67 190 -37 3 -36 3 -30 -98 c-17 -54 -36 -118 -43 -142 l-13 -44 -12 39 c-7 21 -27 85 -44 142 l-32 102 -34 0 c-28 0 -36 -5 -45 -27z"/>
 <path d="M2120 4455 l0 -205 35 0 35 0 0 170 0 170 90 0 90 0 0 35 0 35 -125 0 -125 0 0 -205z"/>
 <path d="M2450 4455 l0 -205 33 0 c30 0 41 11 150 151 l117 151 0 -151 0 -151 35 0 35 0 0 205 0 205 -39 0 c-37 0 -40 -3 -147 -142 l-109 -142 -3 142 -3 142 -34 0 -35 0 0 -205z"/>
 <path d="M3533 4192 l-22 -17 20 -32 c20 -31 22 -32 45 -17 24 17 23 26 -8 66 -12 16 -14 16 -35 0z"/>
 <path d="M3973 4192 l-22 -17 20 -32 c20 -31 22 -32 45 -17 24 17 23 26 -8 66 -12 16 -14 16 -35 0z"/>
 <path d="M160 2060 l0 -1900 2400 0 2400 0 0 1900 0 1900 -2400 0 -2400 0 0 -1900z m3200 1340 c-6 -11 -8 -25 -5 -30 3 -5 2 -18 -4 -28 -5 -9 -12 -47 -16 -82 -3 -36 -8 -78 -11 -95 -12 -79 -14 -102 -14 -132 0 -18 -5 -35 -10 -38 -6 -4 -8 -16 -5 -26 4 -11 1 -26 -5 -34 -7 -8 -9 -26 -6 -39 3 -14 2 -28 -4 -31 -5 -3 -10 -14 -10 -23 0 -16 29 -18 409 -18 383 -1 411 -3 438 -20 15 -11 37 -24 47 -30 11 -6 24 -19 30 -30 6 -10 17 -30 26 -44 14 -24 17 -31 18 -55 8 -95 9 -1626 2 -1630 -5 -3 -7 -12 -4 -19 3 -7 -9 -29 -25 -47 -17 -18 -31 -37 -31 -40 0 -16 -68 -47 -115 -54 -27 -3 -718 -7 -1535 -7 -1330 -1 -1489 0 -1520 14 -39 18 -102 73 -118 103 -7 14 -12 294 -16 850 -6 937 -11 864 74 942 25 22 59 43 75 46 17 3 430 9 920 12 801 5 891 7 907 22 10 9 18 22 18 28 0 7 16 25 35 39 19 15 35 33 35 41 0 7 14 23 30 35 17 12 30 27 30 35 0 8 14 23 30 35 17 12 30 27 30 34 0 8 16 26 35 40 19 15 35 33 35 40 0 8 16 26 35 40 19 15 35 32 35 38 0 7 16 28 36 47 68 69 91 96 97 114 4 9 13 17 22 17 13 0 14 -4 5 -20z"/>
 </g>
<g id="layer104" fill="#fefefe" stroke="none">
 <path d="M1767 4660 c-132 -25 -206 -179 -144 -300 79 -157 303 -157 385 1 32 60 26 151 -12 209 -46 70 -140 107 -229 90z m129 -85 c38 -25 67 -97 59 -145 -23 -137 -204 -164 -268 -40 -35 67 -1 165 67 196 38 18 107 12 142 -11z"/>
 <path d="M3067 4660 c-132 -25 -206 -179 -144 -300 79 -157 303 -157 385 1 32 60 26 151 -12 209 -46 70 -140 107 -229 90z m129 -85 c38 -25 67 -97 59 -145 -23 -137 -204 -164 -268 -40 -35 67 -1 165 67 196 38 18 107 12 142 -11z"/>
 <path d="M3489 4657 c-25 -7 -60 -23 -78 -36 l-33 -24 24 -23 23 -24 49 25 c75 38 132 31 149 -18 9 -25 -24 -54 -75 -67 -111 -28 -148 -62 -148 -136 0 -47 50 -99 104 -110 46 -8 132 10 163 34 21 17 21 17 3 39 -17 22 -20 22 -54 8 -50 -21 -109 -19 -130 4 -26 29 -12 57 37 74 23 8 63 22 88 31 58 21 79 44 86 94 13 99 -88 162 -208 129z"/>
 <path d="M3915 4659 c-88 -20 -155 -108 -155 -204 0 -172 201 -275 340 -174 l42 31 -22 23 -22 23 -46 -25 c-145 -77 -288 85 -184 209 51 61 117 70 190 26 l34 -21 21 22 22 22 -34 29 c-18 15 -53 33 -76 39 -49 12 -54 12 -110 0z"/>
 <path d="M1099 4633 c-25 -66 -129 -367 -129 -375 0 -5 16 -8 37 -6 l36 3 50 143 50 144 45 -146 45 -146 32 0 32 0 43 140 c24 77 46 137 49 134 3 -3 27 -65 52 -137 l46 -132 37 -3 c25 -2 36 1 35 10 0 7 -30 99 -67 203 l-67 190 -37 3 -36 3 -30 -98 c-17 -54 -36 -118 -43 -142 l-13 -44 -12 39 c-7 21 -27 85 -44 142 l-32 102 -34 0 c-28 0 -36 -5 -45 -27z"/>
 <path d="M2120 4455 l0 -205 35 0 35 0 0 170 0 170 90 0 90 0 0 35 0 35 -125 0 -125 0 0 -205z"/>
 <path d="M2450 4455 l0 -205 33 0 c30 0 41 11 150 151 l117 151 0 -151 0 -151 35 0 35 0 0 205 0 205 -39 0 c-37 0 -40 -3 -147 -142 l-109 -142 -3 142 -3 142 -34 0 -35 0 0 -205z"/>
 <path d="M3533 4192 l-22 -17 20 -32 c20 -31 22 -32 45 -17 24 17 23 26 -8 66 -12 16 -14 16 -35 0z"/>
 <path d="M3973 4192 l-22 -17 20 -32 c20 -31 22 -32 45 -17 24 17 23 26 -8 66 -12 16 -14 16 -35 0z"/>
 </g>

</svg>