<!DOCTYPE svg PUBLIC "-//W3C//DTD SVG 20010904//EN" "http://www.w3.org/TR/2001/REC-SVG-20010904/DTD/svg10.dtd">
<svg version="1.0" xmlns="http://www.w3.org/2000/svg" width="512px" height="512px" viewBox="0 0 5120 5120" preserveAspectRatio="xMidYMid meet">
<g id="layer101" fill="#000000" stroke="none">
 <path d="M26 5094 l-26 -27 0 -2507 0 -2507 26 -27 27 -26 2507 0 2507 0 27 26 26 27 0 2507 0 2507 -26 27 -27 26 -2507 0 -2507 0 -27 -26z"/>
 </g>
<g id="layer102" fill="#040125" stroke="none">
 <path d="M1957 4660 c-132 -25 -206 -179 -144 -300 79 -157 303 -157 385 1 32 60 26 151 -12 209 -46 70 -140 107 -229 90z m129 -85 c38 -25 67 -97 59 -145 -23 -137 -204 -164 -268 -40 -35 67 -1 165 67 196 38 18 107 12 142 -11z"/>
 <path d="M1130 4490 l0 -170 -60 0 -60 0 0 -35 0 -35 161 0 160 0 -3 33 c-3 32 -3 32 -65 35 l-63 3 0 169 0 170 -35 0 -35 0 0 -170z"/>
 <path d="M1400 4455 l0 -205 93 0 c121 1 165 12 200 50 22 25 27 40 27 81 0 47 -21 109 -38 109 -4 0 -15 7 -25 15 -18 13 -17 17 24 72 23 32 46 64 52 71 7 9 -1 12 -36 12 -44 0 -45 -1 -96 -70 -48 -67 -53 -70 -91 -70 l-40 0 0 70 0 70 -35 0 -35 0 0 -205z m213 -6 c29 -16 37 -28 37 -63 0 -51 -24 -66 -107 -66 l-73 0 0 70 0 70 61 0 c33 0 70 -5 82 -11z"/>
 <path d="M2310 4455 l0 -205 35 0 35 0 0 170 0 170 90 0 90 0 0 35 0 35 -125 0 -125 0 0 -205z"/>
 <path d="M2640 4455 l0 -205 35 0 35 0 0 170 0 170 90 0 90 0 0 35 0 35 -125 0 -125 0 0 -205z"/>
 <path d="M2970 4455 l0 -205 33 0 c30 0 41 11 150 151 l117 151 0 -151 0 -151 35 0 35 0 0 205 0 205 -39 0 c-37 0 -40 -3 -147 -142 l-109 -142 -3 142 -3 142 -34 0 -35 0 0 -205z"/>
 <path d="M3460 4455 l0 -205 140 0 140 0 0 35 0 35 -105 0 -105 0 0 50 0 50 95 0 95 0 0 35 0 35 -95 0 -95 0 0 50 0 50 110 0 110 0 0 35 0 35 -145 0 -145 0 0 -205z"/>
 <path d="M3920 4490 l0 -170 -60 0 -60 0 0 -35 0 -35 161 0 160 0 -3 33 c-3 32 -3 32 -65 35 l-63 3 0 169 0 170 -35 0 -35 0 0 -170z"/>
 <path d="M160 2060 l0 -1900 2400 0 2400 0 0 1900 0 1900 -2400 0 -2400 0 0 -1900z m2347 1768 c34 -54 43 -163 17 -203 -14 -21 -15 -32 -4 -72 11 -46 21 -124 24 -188 1 -19 6 -30 15 -30 11 0 20 34 36 133 12 73 18 135 13 138 -5 3 -6 15 -2 26 4 15 3 18 -6 13 -18 -11 -9 158 9 179 12 14 48 16 261 16 200 0 250 -3 259 -14 7 -8 14 -52 18 -98 6 -82 5 -84 -23 -113 -17 -17 -38 -35 -49 -41 -18 -10 -19 -15 -7 -58 14 -55 16 -212 2 -221 -11 -7 -13 -67 -4 -101 5 -20 7 -20 48 -6 40 15 45 14 77 -5 19 -11 33 -27 33 -36 -1 -9 2 -14 7 -11 5 2 11 -7 15 -21 7 -28 -3 -78 -14 -71 -4 2 -8 -9 -9 -25 -1 -16 1 -29 6 -29 18 0 81 -70 108 -121 27 -52 28 -59 27 -189 0 -129 -2 -139 -32 -208 -35 -82 -88 -156 -104 -146 -6 4 -8 3 -5 -3 8 -12 -37 -55 -78 -76 -16 -8 -52 -18 -80 -22 -51 -7 -99 -27 -110 -45 -3 -5 17 -33 45 -60 27 -28 59 -68 69 -88 11 -21 30 -44 44 -51 13 -7 34 -30 46 -51 46 -82 12 -193 -72 -235 -14 -7 -25 -28 -34 -65 -33 -132 -94 -295 -198 -530 -75 -167 -245 -504 -263 -520 -9 -8 -17 -19 -17 -25 -1 -21 -29 -65 -41 -65 -7 0 -11 -6 -8 -13 5 -15 -34 -78 -53 -84 -16 -6 -32 28 -97 198 -124 329 -271 825 -305 1029 -7 42 -16 69 -28 75 -9 6 -32 24 -52 41 -32 29 -35 37 -39 100 -5 78 11 120 59 148 16 10 37 28 45 42 9 13 20 22 24 19 5 -3 11 -1 15 5 3 5 1 10 -6 10 -8 0 -7 7 4 22 8 13 20 23 26 23 6 0 11 5 12 10 0 6 10 20 21 32 12 13 20 24 17 26 -54 43 -81 57 -109 57 -130 0 -250 125 -296 310 -22 86 -14 222 16 301 28 72 74 130 98 123 12 -4 13 -3 4 3 -10 7 -8 13 7 27 19 17 19 21 6 47 -26 49 -19 97 19 135 32 32 76 46 76 24 0 -5 6 -7 14 -4 8 3 24 1 35 -5 22 -12 20 -16 36 63 3 14 -1 29 -10 36 -20 17 -20 130 0 207 14 51 14 59 0 69 -8 6 -12 13 -9 16 3 4 0 9 -7 14 -8 4 -10 3 -5 -4 13 -22 -11 -12 -39 15 -26 27 -27 30 -23 121 3 66 9 96 19 103 23 14 496 11 506 -3z"/>
 <path d="M1883 2333 c4 -3 10 -3 14 0 3 4 0 7 -7 7 -7 0 -10 -3 -7 -7z"/>
 <path d="M1973 1763 c4 -3 10 -3 14 0 3 4 0 7 -7 7 -7 0 -10 -3 -7 -7z"/>
 </g>
<g id="layer103" fill="#cd7c06" stroke="none">
 <path d="M1957 4660 c-132 -25 -206 -179 -144 -300 79 -157 303 -157 385 1 32 60 26 151 -12 209 -46 70 -140 107 -229 90z m129 -85 c38 -25 67 -97 59 -145 -23 -137 -204 -164 -268 -40 -35 67 -1 165 67 196 38 18 107 12 142 -11z"/>
 <path d="M1130 4490 l0 -170 -60 0 -60 0 0 -35 0 -35 161 0 160 0 -3 33 c-3 32 -3 32 -65 35 l-63 3 0 169 0 170 -35 0 -35 0 0 -170z"/>
 <path d="M1400 4455 l0 -205 93 0 c121 1 165 12 200 50 22 25 27 40 27 81 0 47 -21 109 -38 109 -4 0 -15 7 -25 15 -18 13 -17 17 24 72 23 32 46 64 52 71 7 9 -1 12 -36 12 -44 0 -45 -1 -96 -70 -48 -67 -53 -70 -91 -70 l-40 0 0 70 0 70 -35 0 -35 0 0 -205z m213 -6 c29 -16 37 -28 37 -63 0 -51 -24 -66 -107 -66 l-73 0 0 70 0 70 61 0 c33 0 70 -5 82 -11z"/>
 <path d="M2310 4455 l0 -205 35 0 35 0 0 170 0 170 90 0 90 0 0 35 0 35 -125 0 -125 0 0 -205z"/>
 <path d="M2640 4455 l0 -205 35 0 35 0 0 170 0 170 90 0 90 0 0 35 0 35 -125 0 -125 0 0 -205z"/>
 <path d="M2970 4455 l0 -205 33 0 c30 0 41 11 150 151 l117 151 0 -151 0 -151 35 0 35 0 0 205 0 205 -39 0 c-37 0 -40 -3 -147 -142 l-109 -142 -3 142 -3 142 -34 0 -35 0 0 -205z"/>
 <path d="M3460 4455 l0 -205 140 0 140 0 0 35 0 35 -105 0 -105 0 0 50 0 50 95 0 95 0 0 35 0 35 -95 0 -95 0 0 50 0 50 110 0 110 0 0 35 0 35 -145 0 -145 0 0 -205z"/>
 <path d="M3920 4490 l0 -170 -60 0 -60 0 0 -35 0 -35 161 0 160 0 -3 33 c-3 32 -3 32 -65 35 l-63 3 0 169 0 170 -35 0 -35 0 0 -170z"/>
 <path d="M160 2060 l0 -1900 2400 0 2400 0 0 1900 0 1900 -2400 0 -2400 0 0 -1900z m2347 1768 c34 -54 43 -163 17 -203 -14 -22 -14 -30 0 -97 9 -40 18 -100 19 -133 3 -42 7 -60 17 -60 10 0 20 38 35 132 18 113 19 134 7 150 -18 23 -12 184 7 207 12 14 47 16 261 16 200 0 250 -3 259 -14 7 -8 14 -52 18 -98 6 -82 5 -84 -23 -113 -17 -17 -38 -35 -49 -41 -18 -10 -19 -15 -7 -58 14 -55 16 -212 2 -221 -11 -7 -13 -67 -4 -102 6 -20 7 -21 41 -6 93 38 171 -53 127 -149 -17 -38 -17 -41 -1 -50 35 -19 76 -67 104 -120 27 -50 28 -60 28 -183 0 -124 -1 -134 -33 -212 -24 -58 -50 -99 -89 -143 -63 -69 -106 -94 -178 -105 -51 -7 -99 -27 -110 -45 -3 -5 17 -33 45 -60 27 -28 59 -68 69 -88 11 -21 30 -44 44 -51 13 -7 34 -30 46 -51 46 -82 12 -193 -72 -235 -14 -7 -25 -28 -34 -65 -60 -242 -288 -758 -490 -1107 -69 -121 -88 -142 -104 -126 -20 20 -98 228 -183 488 -128 393 -183 588 -205 735 -7 43 -16 68 -28 75 -9 6 -32 24 -52 41 -32 29 -35 37 -39 100 -5 79 11 120 59 148 16 10 41 36 56 59 14 23 44 61 66 84 22 24 39 44 36 46 -52 42 -81 57 -109 57 -130 0 -250 125 -296 310 -12 47 -15 89 -11 155 7 119 35 191 103 264 49 54 51 58 38 81 -7 14 -13 42 -14 63 0 31 7 46 34 73 38 38 70 43 116 19 25 -13 29 -13 34 1 10 25 7 92 -4 99 -13 8 -13 142 -1 181 24 77 24 81 -18 105 -21 12 -44 32 -51 44 -17 32 -8 194 11 206 23 15 496 11 506 -3z"/>
 </g>
<g id="layer104" fill="#d38d11" stroke="none">
 <path d="M1957 4660 c-132 -25 -206 -179 -144 -300 79 -157 303 -157 385 1 32 60 26 151 -12 209 -46 70 -140 107 -229 90z m129 -85 c38 -25 67 -97 59 -145 -23 -137 -204 -164 -268 -40 -35 67 -1 165 67 196 38 18 107 12 142 -11z"/>
 <path d="M1130 4490 l0 -170 -60 0 -60 0 0 -35 0 -35 161 0 160 0 -3 33 c-3 32 -3 32 -65 35 l-63 3 0 169 0 170 -35 0 -35 0 0 -170z"/>
 <path d="M1400 4455 l0 -205 93 0 c121 1 165 12 200 50 22 25 27 40 27 81 0 47 -21 109 -38 109 -4 0 -15 7 -25 15 -18 13 -17 17 24 72 23 32 46 64 52 71 7 9 -1 12 -36 12 -44 0 -45 -1 -96 -70 -48 -67 -53 -70 -91 -70 l-40 0 0 70 0 70 -35 0 -35 0 0 -205z m213 -6 c29 -16 37 -28 37 -63 0 -51 -24 -66 -107 -66 l-73 0 0 70 0 70 61 0 c33 0 70 -5 82 -11z"/>
 <path d="M2310 4455 l0 -205 35 0 35 0 0 170 0 170 90 0 90 0 0 35 0 35 -125 0 -125 0 0 -205z"/>
 <path d="M2640 4455 l0 -205 35 0 35 0 0 170 0 170 90 0 90 0 0 35 0 35 -125 0 -125 0 0 -205z"/>
 <path d="M2970 4455 l0 -205 33 0 c30 0 41 11 150 151 l117 151 0 -151 0 -151 35 0 35 0 0 205 0 205 -39 0 c-37 0 -40 -3 -147 -142 l-109 -142 -3 142 -3 142 -34 0 -35 0 0 -205z"/>
 <path d="M3460 4455 l0 -205 140 0 140 0 0 35 0 35 -105 0 -105 0 0 50 0 50 95 0 95 0 0 35 0 35 -95 0 -95 0 0 50 0 50 110 0 110 0 0 35 0 35 -145 0 -145 0 0 -205z"/>
 <path d="M3920 4490 l0 -170 -60 0 -60 0 0 -35 0 -35 161 0 160 0 -3 33 c-3 32 -3 32 -65 35 l-63 3 0 169 0 170 -35 0 -35 0 0 -170z"/>
 <path d="M160 2060 l0 -1900 2400 0 2400 0 0 1900 0 1900 -2400 0 -2400 0 0 -1900z m2350 1770 c16 -10 17 -16 26 -117 4 -47 2 -67 -11 -87 -15 -23 -15 -30 -1 -98 9 -40 18 -100 19 -133 3 -44 7 -60 18 -60 13 0 16 11 34 140 3 22 9 58 13 80 6 29 4 46 -6 63 -18 28 -12 182 7 206 12 14 48 16 258 16 134 0 252 -4 262 -9 14 -8 17 -26 19 -99 2 -86 1 -90 -26 -118 -15 -16 -36 -34 -47 -40 -18 -10 -19 -15 -7 -58 14 -55 16 -212 2 -221 -11 -7 -13 -67 -4 -102 6 -20 7 -21 41 -6 53 21 101 7 124 -37 23 -42 25 -103 4 -120 -23 -19 -18 -35 18 -55 40 -21 91 -108 111 -187 25 -100 2 -265 -51 -364 -30 -57 -119 -151 -162 -173 -20 -10 -58 -22 -86 -26 -50 -7 -99 -27 -110 -45 -3 -5 18 -34 48 -65 30 -30 60 -68 67 -85 7 -16 18 -30 24 -30 13 0 39 -29 67 -73 43 -72 5 -200 -69 -228 -12 -5 -24 -14 -26 -21 -3 -7 -16 -55 -30 -106 -30 -108 -85 -260 -127 -350 -16 -34 -29 -65 -29 -68 0 -8 -72 -158 -172 -359 -109 -217 -225 -418 -240 -413 -16 6 -87 187 -172 438 -41 118 -76 222 -79 230 -4 8 -13 44 -22 80 -9 36 -25 91 -35 122 -26 81 -77 291 -89 367 -6 35 -12 65 -14 67 -1 2 -23 16 -46 32 -93 63 -93 211 0 266 16 9 45 42 65 73 19 30 49 68 67 84 17 16 29 30 26 32 -52 42 -81 57 -109 57 -129 0 -253 128 -294 304 -39 164 -5 323 90 425 49 54 51 58 38 81 -7 14 -13 42 -14 63 0 31 7 46 34 73 38 38 70 43 116 19 25 -13 29 -13 34 1 10 25 7 92 -4 99 -13 8 -13 142 -1 181 24 77 24 81 -18 105 -57 32 -64 52 -58 161 3 51 6 94 7 96 1 7 507 0 520 -8z"/>
 </g>
<g id="layer105" fill="#cf9728" stroke="none">
 <path d="M1957 4660 c-132 -25 -206 -179 -144 -300 79 -157 303 -157 385 1 32 60 26 151 -12 209 -46 70 -140 107 -229 90z m129 -85 c38 -25 67 -97 59 -145 -23 -137 -204 -164 -268 -40 -35 67 -1 165 67 196 38 18 107 12 142 -11z"/>
 <path d="M1130 4490 l0 -170 -60 0 -60 0 0 -35 0 -35 161 0 160 0 -3 33 c-3 32 -3 32 -65 35 l-63 3 0 169 0 170 -35 0 -35 0 0 -170z"/>
 <path d="M1400 4455 l0 -205 93 0 c121 1 165 12 200 50 22 25 27 40 27 81 0 47 -21 109 -38 109 -4 0 -15 7 -25 15 -18 13 -17 17 24 72 23 32 46 64 52 71 7 9 -1 12 -36 12 -44 0 -45 -1 -96 -70 -48 -67 -53 -70 -91 -70 l-40 0 0 70 0 70 -35 0 -35 0 0 -205z m213 -6 c29 -16 37 -28 37 -63 0 -51 -24 -66 -107 -66 l-73 0 0 70 0 70 61 0 c33 0 70 -5 82 -11z"/>
 <path d="M2310 4455 l0 -205 35 0 35 0 0 170 0 170 90 0 90 0 0 35 0 35 -125 0 -125 0 0 -205z"/>
 <path d="M2640 4455 l0 -205 35 0 35 0 0 170 0 170 90 0 90 0 0 35 0 35 -125 0 -125 0 0 -205z"/>
 <path d="M2970 4455 l0 -205 33 0 c30 0 41 11 150 151 l117 151 0 -151 0 -151 35 0 35 0 0 205 0 205 -39 0 c-37 0 -40 -3 -147 -142 l-109 -142 -3 142 -3 142 -34 0 -35 0 0 -205z"/>
 <path d="M3460 4455 l0 -205 140 0 140 0 0 35 0 35 -105 0 -105 0 0 50 0 50 95 0 95 0 0 35 0 35 -95 0 -95 0 0 50 0 50 110 0 110 0 0 35 0 35 -145 0 -145 0 0 -205z"/>
 <path d="M3920 4490 l0 -170 -60 0 -60 0 0 -35 0 -35 161 0 160 0 -3 33 c-3 32 -3 32 -65 35 l-63 3 0 169 0 170 -35 0 -35 0 0 -170z"/>
 <path d="M160 2060 l0 -1900 2400 0 2400 0 0 1900 0 1900 -2400 0 -2400 0 0 -1900z m2147 1780 l212 0 10 -37 c16 -55 13 -153 -4 -187 -12 -23 -13 -36 -4 -65 13 -43 18 -77 22 -156 3 -44 7 -60 18 -60 9 0 14 11 14 32 0 17 3 35 7 39 4 4 5 17 2 28 -3 12 2 42 10 66 21 64 23 95 7 114 -15 18 -19 134 -6 171 17 52 5 50 280 53 276 3 281 2 270 -46 -3 -13 -2 -29 3 -35 6 -7 6 -39 2 -77 -7 -52 -14 -69 -35 -87 -14 -13 -33 -23 -41 -23 -17 0 -19 -41 -3 -57 7 -7 14 -54 17 -105 4 -78 2 -96 -12 -107 -16 -14 -21 -66 -10 -108 6 -20 7 -21 41 -7 42 18 89 10 119 -20 24 -25 32 -103 13 -138 -10 -19 -8 -25 25 -51 20 -16 43 -44 51 -61 8 -17 19 -38 24 -46 28 -47 34 -77 34 -167 -1 -133 -6 -170 -31 -222 -12 -25 -22 -50 -22 -56 0 -7 -9 -20 -20 -30 -11 -10 -20 -24 -20 -32 0 -7 -6 -16 -14 -19 -8 -3 -16 -14 -19 -25 -3 -10 -17 -23 -31 -29 -14 -5 -26 -14 -26 -19 0 -19 -63 -43 -118 -47 -38 -2 -61 -9 -76 -23 -12 -12 -28 -21 -34 -21 -18 0 -14 -20 6 -27 20 -7 52 -38 52 -51 0 -5 9 -17 19 -26 11 -10 24 -30 30 -45 7 -15 25 -32 40 -38 55 -20 92 -164 59 -226 -18 -34 -51 -67 -69 -67 -20 0 -43 -26 -35 -39 3 -5 -1 -21 -9 -37 -7 -15 -12 -31 -9 -36 6 -10 -24 -108 -37 -122 -5 -6 -9 -19 -9 -30 0 -12 -12 -43 -25 -71 -14 -27 -25 -54 -25 -58 0 -5 -12 -34 -26 -65 -15 -31 -36 -77 -46 -102 -89 -201 -305 -629 -334 -661 -8 -8 -14 -21 -14 -27 0 -15 -50 -72 -63 -72 -7 0 -19 17 -29 38 -9 20 -26 59 -37 85 -12 27 -24 62 -28 78 -3 16 -10 32 -14 35 -5 3 -9 13 -9 23 0 10 -7 32 -15 47 -8 16 -15 39 -15 51 0 12 -4 25 -10 28 -5 3 -10 15 -10 26 0 10 -4 27 -9 37 -20 40 -44 104 -47 127 0 6 -4 17 -7 25 -21 47 -46 134 -42 140 3 5 1 11 -4 14 -8 5 -33 89 -37 121 0 6 -6 23 -12 38 -7 16 -14 43 -16 60 -8 59 -19 102 -28 113 -10 14 -18 55 -25 134 -6 68 -12 78 -58 105 -21 11 -46 36 -56 55 -23 42 -25 115 -4 161 15 36 56 79 74 79 6 0 17 16 26 36 8 19 37 58 65 86 46 47 49 52 33 64 -10 7 -24 14 -31 14 -7 0 -15 7 -19 16 -4 10 -17 15 -42 13 -20 -1 -43 1 -51 5 -8 3 -31 11 -50 18 -34 13 -140 115 -140 135 0 6 -8 21 -18 34 -37 48 -64 216 -52 324 5 45 33 135 46 146 8 6 14 16 14 21 0 6 22 30 50 55 l50 45 -17 31 c-57 106 33 206 137 152 25 -13 29 -13 34 1 10 25 7 92 -4 99 -13 8 -13 192 0 200 5 3 7 12 4 19 -3 8 -1 17 5 21 18 10 13 22 -11 29 -55 15 -71 39 -78 122 -4 44 -4 84 -1 89 3 6 6 21 6 35 0 21 6 26 35 31 19 4 44 5 55 3 11 -2 115 -4 232 -4z"/>
 </g>
<g id="layer106" fill="#ff9800" stroke="none">
 <path d="M1957 4660 c-132 -25 -206 -179 -144 -300 79 -157 303 -157 385 1 32 60 26 151 -12 209 -46 70 -140 107 -229 90z m129 -85 c38 -25 67 -97 59 -145 -23 -137 -204 -164 -268 -40 -35 67 -1 165 67 196 38 18 107 12 142 -11z"/>
 <path d="M1130 4490 l0 -170 -60 0 -60 0 0 -35 0 -35 161 0 160 0 -3 33 c-3 32 -3 32 -65 35 l-63 3 0 169 0 170 -35 0 -35 0 0 -170z"/>
 <path d="M1400 4455 l0 -205 93 0 c121 1 165 12 200 50 22 25 27 40 27 81 0 47 -21 109 -38 109 -4 0 -15 7 -25 15 -18 13 -17 17 24 72 23 32 46 64 52 71 7 9 -1 12 -36 12 -44 0 -45 -1 -96 -70 -48 -67 -53 -70 -91 -70 l-40 0 0 70 0 70 -35 0 -35 0 0 -205z m213 -6 c29 -16 37 -28 37 -63 0 -51 -24 -66 -107 -66 l-73 0 0 70 0 70 61 0 c33 0 70 -5 82 -11z"/>
 <path d="M2310 4455 l0 -205 35 0 35 0 0 170 0 170 90 0 90 0 0 35 0 35 -125 0 -125 0 0 -205z"/>
 <path d="M2640 4455 l0 -205 35 0 35 0 0 170 0 170 90 0 90 0 0 35 0 35 -125 0 -125 0 0 -205z"/>
 <path d="M2970 4455 l0 -205 33 0 c30 0 41 11 150 151 l117 151 0 -151 0 -151 35 0 35 0 0 205 0 205 -39 0 c-37 0 -40 -3 -147 -142 l-109 -142 -3 142 -3 142 -34 0 -35 0 0 -205z"/>
 <path d="M3460 4455 l0 -205 140 0 140 0 0 35 0 35 -105 0 -105 0 0 50 0 50 95 0 95 0 0 35 0 35 -95 0 -95 0 0 50 0 50 110 0 110 0 0 35 0 35 -145 0 -145 0 0 -205z"/>
 <path d="M3920 4490 l0 -170 -60 0 -60 0 0 -35 0 -35 161 0 160 0 -3 33 c-3 32 -3 32 -65 35 l-63 3 0 169 0 170 -35 0 -35 0 0 -170z"/>
 <path d="M160 2060 l0 -1900 2400 0 2400 0 0 1900 0 1900 -2400 0 -2400 0 0 -1900z m2362 1767 c3 -6 12 -39 18 -73 10 -54 10 -70 -6 -116 -19 -56 -20 -93 -4 -112 5 -7 9 -21 10 -31 3 -134 6 -160 20 -160 10 0 15 10 15 32 0 17 3 35 7 39 4 4 5 17 2 29 -3 11 2 41 10 66 19 53 20 83 4 112 -12 23 -15 139 -3 172 17 52 5 50 280 53 276 3 281 2 270 -46 -3 -13 -2 -28 2 -34 13 -22 8 -106 -8 -134 -8 -16 -28 -36 -45 -44 -29 -15 -37 -41 -20 -69 5 -7 11 -53 14 -102 4 -71 2 -93 -10 -107 -10 -11 -15 -33 -13 -62 3 -73 1 -71 41 -54 43 18 90 10 120 -20 24 -24 32 -103 14 -136 -10 -19 -6 -27 33 -63 25 -23 57 -68 72 -101 24 -52 28 -70 27 -160 0 -135 -5 -173 -30 -225 -12 -25 -22 -50 -22 -56 0 -7 -9 -20 -20 -30 -11 -10 -20 -24 -20 -32 0 -7 -6 -16 -14 -19 -8 -3 -16 -14 -19 -25 -3 -10 -17 -23 -31 -29 -14 -5 -26 -14 -26 -19 0 -19 -63 -43 -118 -47 -38 -2 -61 -9 -76 -23 -12 -12 -28 -21 -34 -21 -22 0 -13 -19 15 -32 15 -7 34 -26 41 -41 7 -15 17 -27 23 -27 5 0 16 -18 25 -39 10 -26 24 -41 39 -45 14 -4 36 -23 50 -43 20 -31 25 -50 25 -101 0 -85 -30 -137 -94 -162 -18 -7 -26 -15 -22 -25 3 -8 -1 -27 -9 -41 -8 -15 -12 -31 -9 -36 6 -10 -24 -108 -37 -122 -5 -6 -9 -19 -9 -30 0 -12 -12 -43 -25 -71 -14 -27 -25 -54 -25 -58 0 -5 -12 -34 -26 -65 -15 -31 -36 -77 -46 -102 -91 -205 -304 -628 -334 -661 -8 -8 -14 -21 -14 -27 0 -16 -50 -72 -64 -72 -7 0 -21 19 -31 43 -10 23 -26 61 -37 85 -10 24 -21 57 -25 73 -3 16 -10 32 -14 35 -5 3 -9 13 -9 23 0 10 -7 32 -15 47 -8 16 -15 39 -15 51 0 12 -4 25 -10 28 -5 3 -10 15 -10 26 0 10 -4 27 -9 37 -20 40 -44 104 -47 127 0 6 -4 17 -7 25 -21 47 -46 134 -42 140 3 5 1 11 -4 14 -8 5 -33 89 -37 121 0 6 -6 23 -12 38 -7 15 -14 47 -17 69 -3 23 -10 47 -16 54 -6 7 -8 18 -4 24 4 6 2 17 -4 24 -11 13 -20 49 -25 103 -1 13 -5 26 -9 29 -4 4 -4 17 -1 30 8 31 -7 54 -51 79 -48 26 -75 76 -75 136 0 62 21 108 65 144 20 17 43 43 52 60 9 16 38 52 65 79 27 27 47 50 46 51 -21 20 -90 48 -112 46 -15 -1 -33 3 -40 7 -6 5 -29 15 -50 22 -39 13 -146 111 -146 135 0 7 -8 23 -18 36 -37 48 -64 216 -52 324 5 45 33 135 46 146 8 6 14 16 14 21 0 6 22 30 50 55 l50 45 -17 31 c-30 56 -20 119 23 152 26 20 103 19 125 -1 16 -14 18 -14 23 3 7 21 1 91 -8 100 -10 10 -7 191 4 198 5 3 7 12 4 19 -3 8 -1 17 5 21 18 10 13 22 -11 29 -55 15 -71 39 -78 122 -4 44 -4 84 -1 89 3 6 6 21 6 35 0 21 6 26 35 30 68 10 494 -1 502 -13z"/>
 </g>
<g id="layer107" fill="#faa50b" stroke="none">
 <path d="M1957 4660 c-132 -25 -206 -179 -144 -300 79 -157 303 -157 385 1 32 60 26 151 -12 209 -46 70 -140 107 -229 90z m129 -85 c38 -25 67 -97 59 -145 -23 -137 -204 -164 -268 -40 -35 67 -1 165 67 196 38 18 107 12 142 -11z"/>
 <path d="M1130 4490 l0 -170 -60 0 -60 0 0 -35 0 -35 161 0 160 0 -3 33 c-3 32 -3 32 -65 35 l-63 3 0 169 0 170 -35 0 -35 0 0 -170z"/>
 <path d="M1400 4455 l0 -205 93 0 c121 1 165 12 200 50 22 25 27 40 27 81 0 47 -21 109 -38 109 -4 0 -15 7 -25 15 -18 13 -17 17 24 72 23 32 46 64 52 71 7 9 -1 12 -36 12 -44 0 -45 -1 -96 -70 -48 -67 -53 -70 -91 -70 l-40 0 0 70 0 70 -35 0 -35 0 0 -205z m213 -6 c29 -16 37 -28 37 -63 0 -51 -24 -66 -107 -66 l-73 0 0 70 0 70 61 0 c33 0 70 -5 82 -11z"/>
 <path d="M2310 4455 l0 -205 35 0 35 0 0 170 0 170 90 0 90 0 0 35 0 35 -125 0 -125 0 0 -205z"/>
 <path d="M2640 4455 l0 -205 35 0 35 0 0 170 0 170 90 0 90 0 0 35 0 35 -125 0 -125 0 0 -205z"/>
 <path d="M2970 4455 l0 -205 33 0 c30 0 41 11 150 151 l117 151 0 -151 0 -151 35 0 35 0 0 205 0 205 -39 0 c-37 0 -40 -3 -147 -142 l-109 -142 -3 142 -3 142 -34 0 -35 0 0 -205z"/>
 <path d="M3460 4455 l0 -205 140 0 140 0 0 35 0 35 -105 0 -105 0 0 50 0 50 95 0 95 0 0 35 0 35 -95 0 -95 0 0 50 0 50 110 0 110 0 0 35 0 35 -145 0 -145 0 0 -205z"/>
 <path d="M3920 4490 l0 -170 -60 0 -60 0 0 -35 0 -35 161 0 160 0 -3 33 c-3 32 -3 32 -65 35 l-63 3 0 169 0 170 -35 0 -35 0 0 -170z"/>
 <path d="M2062 3929 c-1 -9 -5 -32 -8 -50 -4 -28 -3 -31 6 -16 6 9 9 32 7 50 -2 17 -5 25 -5 16z"/>
 <path d="M2603 3838 c-15 -19 -26 -71 -13 -63 5 3 10 13 10 22 0 9 7 25 17 35 9 10 11 18 6 18 -6 0 -15 -6 -20 -12z"/>
 <path d="M1977 3833 c-4 -3 -7 -20 -7 -36 0 -17 3 -27 8 -23 5 6 11 66 6 66 0 0 -4 -3 -7 -7z"/>
 <path d="M3140 3830 c0 -7 3 -10 7 -7 3 4 3 10 0 14 -4 3 -7 0 -7 -7z"/>
 <path d="M2530 3790 c0 -7 3 -10 7 -7 3 4 3 10 0 14 -4 3 -7 0 -7 -7z"/>
 <path d="M3140 3778 c0 -9 5 -20 10 -23 13 -8 13 5 0 25 -8 13 -10 13 -10 -2z"/>
 <path d="M2542 3750 c0 -14 2 -19 5 -12 2 6 2 18 0 25 -3 6 -5 1 -5 -13z"/>
 <path d="M2530 3624 c-15 -52 -15 -83 2 -99 6 -7 7 3 3 28 -5 22 -2 49 5 67 7 16 10 35 8 41 -2 7 -11 -9 -18 -37z"/>
 <path d="M3140 3626 c-5 -13 -19 -31 -32 -40 -12 -9 -17 -16 -11 -16 13 0 63 56 63 71 0 17 -10 9 -20 -15z"/>
 <path d="M1970 3631 c0 -6 4 -13 10 -16 6 -3 7 1 4 9 -7 18 -14 21 -14 7z"/>
 <path d="M2581 3625 c0 -5 6 -19 14 -29 8 -11 15 -15 15 -10 0 6 -7 19 -15 30 -8 10 -14 15 -14 9z"/>
 <path d="M1990 3596 c0 -3 9 -10 20 -16 11 -6 20 -8 20 -6 0 3 -9 10 -20 16 -11 6 -20 8 -20 6z"/>
 <path d="M3065 3560 c3 -5 8 -10 11 -10 2 0 4 5 4 10 0 6 -5 10 -11 10 -5 0 -7 -4 -4 -10z"/>
 <path d="M2060 3544 c0 -8 5 -12 10 -9 6 3 10 10 10 16 0 5 -4 9 -10 9 -5 0 -10 -7 -10 -16z"/>
 <path d="M2597 3543 c-4 -3 -7 -13 -7 -22 1 -13 3 -13 11 2 11 19 8 33 -4 20z"/>
 <path d="M3066 3532 c-3 -6 -2 -13 4 -17 5 -3 11 -18 11 -33 1 -20 3 -22 6 -7 5 27 -11 72 -21 57z"/>
 <path d="M2542 3470 c0 -14 2 -19 5 -12 2 6 2 18 0 25 -3 6 -5 1 -5 -13z"/>
 <path d="M2580 3480 c0 -7 3 -10 7 -7 3 4 3 10 0 14 -4 3 -7 0 -7 -7z"/>
 <path d="M2543 3345 c2 -5 10 -10 17 -10 7 0 15 5 17 10 2 6 -6 11 -17 11 -11 0 -19 -5 -17 -11z"/>
 <path d="M2050 3279 c0 -5 5 -7 10 -4 6 3 10 8 10 11 0 2 -4 4 -10 4 -5 0 -10 -5 -10 -11z"/>
 <path d="M3060 3274 c0 -8 5 -12 10 -9 6 3 10 10 10 16 0 5 -4 9 -10 9 -5 0 -10 -7 -10 -16z"/>
 <path d="M1919 3203 c-11 -15 -11 -16 1 -5 21 18 100 15 122 -5 10 -9 18 -11 18 -5 0 33 -117 45 -141 15z"/>
 <path d="M3133 3203 c4 -3 10 -3 14 0 3 4 0 7 -7 7 -7 0 -10 -3 -7 -7z"/>
 <path d="M3103 3193 c4 -3 10 -3 14 0 3 4 0 7 -7 7 -7 0 -10 -3 -7 -7z"/>
 <path d="M3183 3193 c4 -3 10 -3 14 0 3 4 0 7 -7 7 -7 0 -10 -3 -7 -7z"/>
 <path d="M3070 3179 c0 -5 5 -7 10 -4 6 3 10 8 10 11 0 2 -4 4 -10 4 -5 0 -10 -5 -10 -11z"/>
 <path d="M3216 3176 c6 -17 34 -30 34 -16 0 5 -9 14 -20 20 -16 8 -18 8 -14 -4z"/>
 <path d="M1876 3164 c-4 -9 -4 -19 -1 -22 2 -3 7 3 11 12 4 9 4 19 1 22 -2 3 -7 -3 -11 -12z"/>
 <path d="M1874 3058 c3 -10 9 -24 12 -32 3 -8 -7 -23 -25 -36 -37 -25 -65 -68 -34 -51 10 5 32 25 50 44 l32 33 -21 30 c-11 16 -17 21 -14 12z"/>
 <path d="M3236 3025 c-9 -26 -7 -32 5 -12 6 10 9 21 6 23 -2 3 -7 -2 -11 -11z"/>
 <path d="M3292 2950 c21 -23 38 -47 38 -55 0 -8 4 -17 10 -20 6 -4 6 4 -1 22 -10 27 -66 93 -79 93 -4 0 10 -18 32 -40z"/>
 <path d="M1790 2905 c-7 -9 -11 -18 -8 -20 3 -3 11 1 18 10 7 9 11 18 8 20 -3 3 -11 -1 -18 -10z"/>
 <path d="M1770 2860 c0 -7 3 -10 7 -7 3 4 3 10 0 14 -4 3 -7 0 -7 -7z"/>
 <path d="M1760 2830 c0 -7 3 -10 7 -7 3 4 3 10 0 14 -4 3 -7 0 -7 -7z"/>
 <path d="M3360 2830 c0 -7 3 -10 7 -7 3 4 3 10 0 14 -4 3 -7 0 -7 -7z"/>
 <path d="M1751 2794 c0 -11 3 -14 6 -6 3 7 2 16 -1 19 -3 4 -6 -2 -5 -13z"/>
 <path d="M3371 2774 c0 -11 3 -14 6 -6 3 7 2 16 -1 19 -3 4 -6 -2 -5 -13z"/>
 <path d="M1740 2741 c0 -25 6 -27 13 -6 4 8 2 17 -3 20 -6 4 -10 -3 -10 -14z"/>
 <path d="M1746 2570 c3 -30 10 -59 16 -65 7 -7 8 -1 3 20 -4 17 -12 46 -16 65 -6 27 -7 22 -3 -20z"/>
 <path d="M3367 2595 c-4 -8 -2 -17 3 -20 6 -4 10 3 10 14 0 25 -6 27 -13 6z"/>
 <path d="M3360 2530 c0 -7 3 -10 7 -7 3 4 3 10 0 14 -4 3 -7 0 -7 -7z"/>
 <path d="M3327 2453 c-4 -3 -7 -14 -7 -23 0 -9 -9 -25 -20 -35 -11 -10 -20 -24 -20 -32 0 -7 -7 -16 -15 -19 -8 -4 -15 -14 -15 -23 0 -21 41 29 70 87 20 39 23 62 7 45z"/>
 <path d="M1780 2435 c0 -18 84 -134 111 -154 l33 -24 -23 32 c-13 18 -30 35 -38 38 -8 3 -28 30 -45 59 -27 49 -38 63 -38 49z"/>
 <path d="M3194 2268 l-19 -23 23 19 c12 11 22 21 22 23 0 8 -8 2 -26 -19z"/>
 <path d="M1944 2246 c11 -9 27 -16 35 -16 21 0 2 16 -29 24 -24 7 -24 6 -6 -8z"/>
 <path d="M3150 2240 c-9 -6 -10 -10 -3 -10 6 0 15 5 18 10 8 12 4 12 -15 0z"/>
 <path d="M2003 2223 c4 -3 10 -3 14 0 3 4 0 7 -7 7 -7 0 -10 -3 -7 -7z"/>
 <path d="M2117 2192 l33 -28 -36 -35 c-20 -19 -40 -42 -45 -52 -6 -10 15 8 45 39 31 32 55 59 53 60 -1 1 -20 11 -42 23 l-40 21 32 -28z"/>
 <path d="M2995 2200 c-10 -11 -24 -20 -32 -20 -19 0 -16 -20 5 -27 9 -3 26 -13 37 -22 13 -10 11 -6 -5 12 l-25 29 30 24 c17 13 25 24 19 24 -6 0 -19 -9 -29 -20z"/>
 <path d="M3036 2090 c11 -14 27 -40 34 -57 7 -18 16 -33 21 -33 14 0 -26 73 -52 95 l-24 20 21 -25z"/>
 <path d="M2029 2013 c-13 -16 -12 -17 4 -4 9 7 17 15 17 17 0 8 -8 3 -21 -13z"/>
 <path d="M1960 1958 c-22 -36 -26 -53 -10 -43 6 3 10 13 10 21 0 7 9 19 20 26 21 14 26 28 10 28 -6 0 -19 -15 -30 -32z"/>
 <path d="M3145 1966 c10 -14 19 -26 22 -26 7 0 -17 39 -28 46 -6 3 -3 -5 6 -20z"/>
 <path d="M3180 1852 l5 -77 3 69 c2 38 -1 73 -5 77 -4 4 -6 -27 -3 -69z"/>
 <path d="M1960 1740 c6 -11 13 -20 16 -20 2 0 0 9 -6 20 -6 11 -13 20 -16 20 -2 0 0 -9 6 -20z"/>
 <path d="M3136 1724 c-22 -21 -20 -27 4 -14 11 6 20 15 20 20 0 14 -6 12 -24 -6z"/>
 <path d="M2045 1680 c3 -5 8 -10 11 -10 3 0 2 5 -1 10 -3 6 -8 10 -11 10 -3 0 -2 -4 1 -10z"/>
 <path d="M3065 1679 c-11 -17 1 -21 15 -4 8 9 8 15 2 15 -6 0 -14 -5 -17 -11z"/>
 <path d="M3047 1605 c-4 -8 -2 -17 3 -20 6 -4 10 3 10 14 0 25 -6 27 -13 6z"/>
 <path d="M2060 1584 c0 -8 5 -12 10 -9 6 4 8 11 5 16 -9 14 -15 11 -15 -7z"/>
 <path d="M3040 1550 c0 -7 3 -10 7 -7 3 4 3 10 0 14 -4 3 -7 0 -7 -7z"/>
 <path d="M2070 1529 c0 -11 4 -18 10 -14 5 3 7 12 3 20 -7 21 -13 19 -13 -6z"/>
 <path d="M3007 1463 c-4 -3 -7 -13 -7 -22 1 -13 3 -13 11 2 11 19 8 33 -4 20z"/>
 <path d="M2103 1406 c4 -10 7 -24 7 -32 0 -9 4 -13 9 -10 11 7 3 44 -12 53 -7 4 -8 0 -4 -11z"/>
 <path d="M2986 1395 c-9 -26 -7 -32 5 -12 6 10 9 21 6 23 -2 3 -7 -2 -11 -11z"/>
 <path d="M2121 1334 c0 -11 3 -14 6 -6 3 7 2 16 -1 19 -3 4 -6 -2 -5 -13z"/>
 <path d="M2954 1325 c-3 -8 -4 -20 -2 -27 3 -7 7 -1 10 15 6 29 1 36 -8 12z"/>
 <path d="M2130 1300 c0 -7 3 -10 7 -7 3 4 3 10 0 14 -4 3 -7 0 -7 -7z"/>
 <path d="M2150 1230 c0 -7 3 -10 7 -7 3 4 3 10 0 14 -4 3 -7 0 -7 -7z"/>
 <path d="M2910 1219 c-6 -11 -10 -25 -7 -32 2 -6 9 3 15 21 12 36 8 42 -8 11z"/>
 <path d="M2160 1200 c0 -7 3 -10 7 -7 3 4 3 10 0 14 -4 3 -7 0 -7 -7z"/>
 <path d="M2170 1160 c0 -7 3 -10 7 -7 3 4 3 10 0 14 -4 3 -7 0 -7 -7z"/>
 <path d="M2885 1159 c-4 -6 -5 -12 -2 -15 2 -3 7 2 10 11 7 17 1 20 -8 4z"/>
 <path d="M2180 1124 c0 -8 5 -12 10 -9 6 4 8 11 5 16 -9 14 -15 11 -15 -7z"/>
 <path d="M2864 1113 c-3 -10 -18 -43 -35 -74 -16 -31 -29 -63 -28 -70 0 -8 14 13 30 46 31 61 51 115 43 115 -3 0 -7 -8 -10 -17z"/>
 <path d="M2190 1090 c0 -7 3 -10 7 -7 3 4 3 10 0 14 -4 3 -7 0 -7 -7z"/>
 <path d="M2210 1030 c0 -7 3 -10 7 -7 3 4 3 10 0 14 -4 3 -7 0 -7 -7z"/>
 <path d="M2250 910 c0 -7 3 -10 7 -7 3 4 3 10 0 14 -4 3 -7 0 -7 -7z"/>
 <path d="M2260 873 c0 -4 5 -15 10 -23 8 -13 10 -13 10 2 0 9 -4 20 -10 23 -5 3 -10 3 -10 -2z"/>
 <path d="M2734 834 c-32 -70 -33 -74 -29 -74 8 0 57 102 51 107 -3 3 -13 -12 -22 -33z"/>
 <path d="M2291 794 c0 -11 3 -14 6 -6 3 7 2 16 -1 19 -3 4 -6 -2 -5 -13z"/>
 <path d="M2300 751 c0 -11 5 -23 10 -26 6 -3 10 3 10 14 0 11 -4 23 -10 26 -5 3 -10 -3 -10 -14z"/>
 <path d="M2320 700 c0 -7 3 -10 7 -7 3 4 3 10 0 14 -4 3 -7 0 -7 -7z"/>
 <path d="M2656 673 c-6 -14 -5 -15 5 -6 7 7 10 15 7 18 -3 3 -9 -2 -12 -12z"/>
 <path d="M2330 675 c0 -5 5 -17 10 -25 5 -8 10 -10 10 -5 0 6 -5 17 -10 25 -5 8 -10 11 -10 5z"/>
 <path d="M2620 618 c-20 -33 -28 -66 -9 -38 19 29 39 70 34 70 -3 0 -14 -15 -25 -32z"/>
 <path d="M2350 611 c0 -5 5 -13 10 -16 6 -3 10 -2 10 4 0 5 -4 13 -10 16 -5 3 -10 2 -10 -4z"/>
 <path d="M2574 528 c-4 -7 -3 -8 4 -4 7 4 12 9 12 12 0 8 -9 4 -16 -8z"/>
 <path d="M2390 510 c0 -7 3 -10 7 -7 3 4 3 10 0 14 -4 3 -7 0 -7 -7z"/>
 <path d="M2400 483 c0 -4 5 -15 10 -23 8 -13 10 -13 10 2 0 9 -4 20 -10 23 -5 3 -10 3 -10 -2z"/>
 <path d="M2543 478 c-12 -16 -24 -48 -18 -48 2 0 11 14 20 30 16 31 15 40 -2 18z"/>
 <path d="M2500 405 c-7 -9 -8 -15 -2 -15 5 0 12 7 16 15 3 8 4 15 2 15 -2 0 -9 -7 -16 -15z"/>
 <path d="M2440 393 c0 -5 8 -20 17 -33 12 -17 20 -54 24 -110 l6 -85 1 83 c1 47 -3 93 -10 105 -14 26 -38 52 -38 40z"/>
 </g>
<g id="layer108" fill="#e3aa2a" stroke="none">
 <path d="M1957 4660 c-132 -25 -206 -179 -144 -300 79 -157 303 -157 385 1 32 60 26 151 -12 209 -46 70 -140 107 -229 90z m129 -85 c38 -25 67 -97 59 -145 -23 -137 -204 -164 -268 -40 -35 67 -1 165 67 196 38 18 107 12 142 -11z"/>
 <path d="M1130 4490 l0 -170 -60 0 -60 0 0 -35 0 -35 161 0 160 0 -3 33 c-3 32 -3 32 -65 35 l-63 3 0 169 0 170 -35 0 -35 0 0 -170z"/>
 <path d="M1400 4455 l0 -205 93 0 c121 1 165 12 200 50 22 25 27 40 27 81 0 47 -21 109 -38 109 -4 0 -15 7 -25 15 -18 13 -17 17 24 72 23 32 46 64 52 71 7 9 -1 12 -36 12 -44 0 -45 -1 -96 -70 -48 -67 -53 -70 -91 -70 l-40 0 0 70 0 70 -35 0 -35 0 0 -205z m213 -6 c29 -16 37 -28 37 -63 0 -51 -24 -66 -107 -66 l-73 0 0 70 0 70 61 0 c33 0 70 -5 82 -11z"/>
 <path d="M2310 4455 l0 -205 35 0 35 0 0 170 0 170 90 0 90 0 0 35 0 35 -125 0 -125 0 0 -205z"/>
 <path d="M2640 4455 l0 -205 35 0 35 0 0 170 0 170 90 0 90 0 0 35 0 35 -125 0 -125 0 0 -205z"/>
 <path d="M2970 4455 l0 -205 33 0 c30 0 41 11 150 151 l117 151 0 -151 0 -151 35 0 35 0 0 205 0 205 -39 0 c-37 0 -40 -3 -147 -142 l-109 -142 -3 142 -3 142 -34 0 -35 0 0 -205z"/>
 <path d="M3460 4455 l0 -205 140 0 140 0 0 35 0 35 -105 0 -105 0 0 50 0 50 95 0 95 0 0 35 0 35 -95 0 -95 0 0 50 0 50 110 0 110 0 0 35 0 35 -145 0 -145 0 0 -205z"/>
 <path d="M3920 4490 l0 -170 -60 0 -60 0 0 -35 0 -35 161 0 160 0 -3 33 c-3 32 -3 32 -65 35 l-63 3 0 169 0 170 -35 0 -35 0 0 -170z"/>
 <path d="M2590 3790 c0 -7 3 -10 7 -7 3 4 3 10 0 14 -4 3 -7 0 -7 -7z"/>
 <path d="M3141 3774 c0 -11 3 -14 6 -6 3 7 2 16 -1 19 -3 4 -6 -2 -5 -13z"/>
 <path d="M2540 3740 c0 -7 3 -10 7 -7 3 4 3 10 0 14 -4 3 -7 0 -7 -7z"/>
 <path d="M2540 3660 c0 -7 3 -10 7 -7 3 4 3 10 0 14 -4 3 -7 0 -7 -7z"/>
 <path d="M2065 3550 c3 -5 8 -10 11 -10 2 0 4 5 4 10 0 6 -5 10 -11 10 -5 0 -7 -4 -4 -10z"/>
 <path d="M2540 3460 c0 -7 3 -10 7 -7 3 4 3 10 0 14 -4 3 -7 0 -7 -7z"/>
 <path d="M3060 3270 c0 -7 3 -10 7 -7 3 4 3 10 0 14 -4 3 -7 0 -7 -7z"/>
 <path d="M2045 3190 c3 -5 8 -10 11 -10 3 0 2 5 -1 10 -3 6 -8 10 -11 10 -3 0 -2 -4 1 -10z"/>
 <path d="M1889 3003 c-13 -16 -12 -17 4 -4 9 7 17 15 17 17 0 8 -8 3 -21 -13z"/>
 <path d="M1840 2965 c-20 -24 -6 -28 15 -5 10 11 13 20 8 20 -6 0 -16 -7 -23 -15z"/>
 <path d="M1794 2898 c-4 -7 -3 -8 4 -4 7 4 12 9 12 12 0 8 -9 4 -16 -8z"/>
 <path d="M3280 2370 c0 -7 3 -10 7 -7 3 4 3 10 0 14 -4 3 -7 0 -7 -7z"/>
 <path d="M1865 2310 c10 -11 23 -20 28 -20 6 0 2 9 -8 20 -10 11 -23 20 -28 20 -6 0 -2 -9 8 -20z"/>
 <path d="M3004 2208 c-4 -7 -3 -8 4 -4 7 4 12 9 12 12 0 8 -9 4 -16 -8z"/>
 <path d="M2141 2181 c13 -11 26 -17 28 -15 5 5 -30 33 -43 34 -4 0 2 -9 15 -19z"/>
 <path d="M2952 2168 c2 -6 10 -14 16 -16 7 -2 10 2 6 12 -7 18 -28 22 -22 4z"/>
 <path d="M3060 2050 c0 -7 3 -10 7 -7 3 4 3 10 0 14 -4 3 -7 0 -7 -7z"/>
 <path d="M1950 1930 c0 -7 3 -10 7 -7 3 4 3 10 0 14 -4 3 -7 0 -7 -7z"/>
 <path d="M3182 1850 c0 -19 2 -27 5 -17 2 9 2 25 0 35 -3 9 -5 1 -5 -18z"/>
 <path d="M3064 1678 c-4 -7 -3 -8 4 -4 12 7 16 16 8 16 -3 0 -8 -5 -12 -12z"/>
 <path d="M3046 1603 c-6 -14 -5 -15 5 -6 7 7 10 15 7 18 -3 3 -9 -2 -12 -12z"/>
 <path d="M2065 1590 c3 -5 8 -10 11 -10 3 0 2 5 -1 10 -3 6 -8 10 -11 10 -3 0 -2 -4 1 -10z"/>
 <path d="M2075 1530 c3 -5 8 -10 11 -10 3 0 2 5 -1 10 -3 6 -8 10 -11 10 -3 0 -2 -4 1 -10z"/>
 <path d="M2105 1410 c3 -5 8 -10 11 -10 3 0 2 5 -1 10 -3 6 -8 10 -11 10 -3 0 -2 -4 1 -10z"/>
 <path d="M2270 860 c0 -7 3 -10 7 -7 3 4 3 10 0 14 -4 3 -7 0 -7 -7z"/>
 <path d="M2307 749 c4 -13 8 -18 11 -10 2 7 -1 18 -6 23 -8 8 -9 4 -5 -13z"/>
 <path d="M2534 468 c-4 -7 -3 -8 4 -4 12 7 16 16 8 16 -3 0 -8 -5 -12 -12z"/>
 </g>
<g id="layer109" fill="#ffffff" stroke="none">
 <path d="M1957 4660 c-132 -25 -206 -179 -144 -300 79 -157 303 -157 385 1 32 60 26 151 -12 209 -46 70 -140 107 -229 90z m129 -85 c38 -25 67 -97 59 -145 -23 -137 -204 -164 -268 -40 -35 67 -1 165 67 196 38 18 107 12 142 -11z"/>
 <path d="M1130 4490 l0 -170 -60 0 -60 0 0 -35 0 -35 161 0 160 0 -3 33 c-3 32 -3 32 -65 35 l-63 3 0 169 0 170 -35 0 -35 0 0 -170z"/>
 <path d="M1400 4455 l0 -205 93 0 c121 1 165 12 200 50 22 25 27 40 27 81 0 47 -21 109 -38 109 -4 0 -15 7 -25 15 -18 13 -17 17 24 72 23 32 46 64 52 71 7 9 -1 12 -36 12 -44 0 -45 -1 -96 -70 -48 -67 -53 -70 -91 -70 l-40 0 0 70 0 70 -35 0 -35 0 0 -205z m213 -6 c29 -16 37 -28 37 -63 0 -51 -24 -66 -107 -66 l-73 0 0 70 0 70 61 0 c33 0 70 -5 82 -11z"/>
 <path d="M2310 4455 l0 -205 35 0 35 0 0 170 0 170 90 0 90 0 0 35 0 35 -125 0 -125 0 0 -205z"/>
 <path d="M2640 4455 l0 -205 35 0 35 0 0 170 0 170 90 0 90 0 0 35 0 35 -125 0 -125 0 0 -205z"/>
 <path d="M2970 4455 l0 -205 33 0 c30 0 41 11 150 151 l117 151 0 -151 0 -151 35 0 35 0 0 205 0 205 -39 0 c-37 0 -40 -3 -147 -142 l-109 -142 -3 142 -3 142 -34 0 -35 0 0 -205z"/>
 <path d="M3460 4455 l0 -205 140 0 140 0 0 35 0 35 -105 0 -105 0 0 50 0 50 95 0 95 0 0 35 0 35 -95 0 -95 0 0 50 0 50 110 0 110 0 0 35 0 35 -145 0 -145 0 0 -205z"/>
 <path d="M3920 4490 l0 -170 -60 0 -60 0 0 -35 0 -35 161 0 160 0 -3 33 c-3 32 -3 32 -65 35 l-63 3 0 169 0 170 -35 0 -35 0 0 -170z"/>
 </g>

</svg>