<!DOCTYPE svg PUBLIC "-//W3C//DTD SVG 20010904//EN" "http://www.w3.org/TR/2001/REC-SVG-20010904/DTD/svg10.dtd">
<svg version="1.0" xmlns="http://www.w3.org/2000/svg" width="512px" height="512px" viewBox="0 0 5120 5120" preserveAspectRatio="xMidYMid meet">
<g id="layer101" fill="#000000" stroke="none">
 <path d="M26 5094 l-26 -27 0 -2507 0 -2507 26 -27 27 -26 2507 0 2507 0 27 26 26 27 0 2507 0 2507 -26 27 -27 26 -2507 0 -2507 0 -27 -26z"/>
 </g>
<g id="layer102" fill="#03a9f4" stroke="none">
 <path d="M807 4660 c-132 -25 -206 -179 -144 -300 79 -157 303 -157 385 1 32 60 26 151 -12 209 -46 70 -140 107 -229 90z m129 -85 c38 -25 67 -97 59 -145 -23 -137 -204 -164 -268 -40 -35 67 -1 165 67 196 38 18 107 12 142 -11z"/>
 <path d="M3417 4660 c-132 -25 -206 -179 -144 -300 79 -157 303 -157 385 1 32 60 26 151 -12 209 -46 70 -140 107 -229 90z m129 -85 c38 -25 67 -97 59 -145 -23 -137 -204 -164 -268 -40 -35 67 -1 165 67 196 38 18 107 12 142 -11z"/>
 <path d="M3839 4657 c-25 -7 -60 -23 -78 -36 l-33 -24 24 -23 23 -24 49 25 c75 38 132 31 149 -18 9 -25 -24 -54 -75 -67 -111 -28 -148 -62 -148 -136 0 -47 50 -99 104 -110 46 -8 132 10 163 34 21 17 21 17 3 39 -17 22 -20 22 -54 8 -50 -21 -109 -19 -130 4 -26 29 -12 57 37 74 23 8 63 22 88 31 58 21 79 44 86 94 13 99 -88 162 -208 129z"/>
 <path d="M4265 4659 c-88 -20 -155 -108 -155 -204 0 -172 201 -275 340 -174 l42 31 -22 23 -22 23 -46 -25 c-145 -77 -288 85 -184 209 51 61 117 70 190 26 l34 -21 21 22 22 22 -34 29 c-18 15 -53 33 -76 39 -49 12 -54 12 -110 0z"/>
 <path d="M1230 4490 l0 -170 -60 0 -60 0 0 -35 0 -35 161 0 160 0 -3 33 c-3 32 -3 32 -65 35 l-63 3 0 169 0 170 -35 0 -35 0 0 -170z"/>
 <path d="M1579 4633 c-25 -66 -129 -367 -129 -375 0 -5 16 -8 37 -6 l36 3 50 143 50 144 45 -146 45 -146 32 0 32 0 43 140 c24 77 46 137 49 134 3 -3 27 -65 52 -137 l46 -132 37 -3 c25 -2 36 1 35 10 0 7 -30 99 -67 203 l-67 190 -37 3 -36 3 -30 -98 c-17 -54 -36 -118 -43 -142 l-13 -44 -12 39 c-7 21 -27 85 -44 142 l-32 102 -34 0 c-28 0 -36 -5 -45 -27z"/>
 <path d="M2030 4657 c0 -1 40 -92 88 -202 l89 -200 39 0 39 0 87 195 c48 107 87 198 87 203 1 4 -16 7 -36 7 -36 0 -39 -3 -56 -45 l-19 -45 -103 0 -102 0 -17 45 c-17 43 -20 45 -57 45 -21 0 -39 -1 -39 -3z m280 -164 c0 -5 -14 -41 -32 -80 l-32 -73 -33 75 c-18 42 -33 78 -33 80 0 3 29 5 65 5 36 0 65 -3 65 -7z"/>
 <path d="M2520 4455 l0 -205 93 0 c121 1 165 12 200 50 22 25 27 40 27 81 0 47 -21 109 -38 109 -4 0 -15 7 -25 15 -18 13 -17 17 24 72 23 32 46 64 52 71 7 9 -1 12 -36 12 -44 0 -45 -1 -96 -70 -48 -67 -53 -70 -91 -70 l-40 0 0 70 0 70 -35 0 -35 0 0 -205z m213 -6 c29 -16 37 -28 37 -63 0 -51 -24 -66 -107 -66 l-73 0 0 70 0 70 61 0 c33 0 70 -5 82 -11z"/>
 <path d="M3020 4490 l0 -170 -60 0 -60 0 0 -35 0 -35 161 0 160 0 -3 33 c-3 32 -3 32 -65 35 l-63 3 0 169 0 170 -35 0 -35 0 0 -170z"/>
 <path d="M3853 4192 l-22 -17 20 -32 c20 -31 22 -32 45 -17 24 17 23 26 -8 66 -12 16 -14 16 -35 0z"/>
 <path d="M4303 4192 l-22 -17 20 -32 c20 -31 22 -32 45 -17 24 17 23 26 -8 66 -12 16 -14 16 -35 0z"/>
 <path d="M160 2060 l0 -1900 2400 0 2400 0 0 1900 0 1900 -2400 0 -2400 0 0 -1900z m2729 1554 c142 -30 248 -64 367 -119 448 -208 785 -612 910 -1090 9 -33 17 -69 19 -80 1 -11 8 -47 15 -80 18 -81 18 -429 0 -510 -7 -33 -14 -69 -15 -80 -2 -11 -10 -47 -19 -80 -107 -408 -367 -764 -723 -987 -177 -112 -337 -176 -558 -224 -106 -23 -143 -26 -320 -27 -203 -1 -224 2 -421 49 -326 77 -654 290 -883 572 -62 76 -157 232 -204 331 -55 120 -92 232 -123 380 -25 112 -27 147 -27 321 0 174 2 209 27 321 60 284 162 501 336 718 227 282 547 488 879 566 36 9 86 21 111 27 144 34 448 31 629 -8z"/>
 <path d="M2097 3330 c-86 -29 -260 -114 -327 -161 -55 -37 -150 -113 -150 -119 0 -5 144 -110 152 -110 2 0 29 30 59 68 30 37 76 91 104 121 50 54 207 190 242 209 41 23 2 19 -80 -8z"/>
 <path d="M2930 3347 c8 -7 48 -40 89 -73 99 -79 188 -168 263 -264 34 -45 66 -77 72 -73 25 14 146 107 146 113 0 6 -102 84 -165 127 -85 58 -250 134 -365 167 -41 12 -51 13 -40 3z"/>
 <path d="M2367 3181 c-31 -21 -89 -64 -128 -95 -38 -31 -123 -84 -187 -117 -130 -66 -277 -167 -307 -209 -84 -119 -130 -189 -152 -233 -30 -59 -44 -46 -18 16 10 23 21 51 26 62 4 11 17 42 28 69 12 27 20 50 19 51 -43 28 -84 58 -129 97 -31 26 -61 48 -65 48 -22 0 -122 -156 -175 -270 -16 -36 -34 -74 -39 -85 -32 -67 -90 -300 -90 -360 l0 -35 145 0 145 0 -7 -27 c-5 -16 -8 -70 -8 -120 l1 -93 -138 0 -138 0 0 -45 c0 -55 27 -178 67 -305 36 -113 177 -368 228 -410 12 -10 21 -8 51 16 19 16 50 40 68 54 17 14 45 35 60 48 l29 22 -26 58 c-32 73 -68 174 -63 180 2 2 16 -19 29 -47 22 -43 68 -113 152 -231 30 -43 178 -144 310 -211 66 -33 136 -73 155 -88 79 -62 157 -119 193 -139 l37 -21 0 54 0 54 32 -10 c42 -12 134 -12 175 0 l32 9 3 -53 3 -53 75 51 c41 27 94 66 116 86 23 20 102 66 175 104 144 72 293 172 324 217 84 118 130 188 152 231 29 58 42 60 17 3 -9 -22 -20 -48 -25 -59 -4 -11 -19 -47 -33 -79 l-26 -59 22 -16 c12 -9 41 -29 64 -46 23 -16 58 -43 78 -58 19 -16 40 -26 46 -22 16 10 103 142 144 220 74 139 156 408 156 509 l0 36 -138 0 -138 0 1 93 c0 50 -3 104 -8 120 l-7 27 140 0 c113 0 142 3 146 14 9 22 -32 216 -67 320 -46 138 -182 382 -229 411 -6 4 -25 -5 -43 -19 -18 -15 -62 -49 -98 -76 l-66 -50 43 -107 c48 -120 56 -153 19 -81 -21 41 -68 113 -150 228 -32 45 -181 145 -328 220 -75 38 -159 88 -186 111 -26 23 -77 61 -112 84 l-64 43 -3 -53 -3 -53 -32 9 c-41 12 -133 12 -175 0 l-32 -10 0 55 c0 30 -3 54 -7 53 -5 0 -34 -17 -66 -38z m323 -776 l0 -405 119 0 c66 0 122 -3 124 -7 3 -5 10 -53 17 -108 6 -55 13 -114 17 -132 l5 -32 -138 -3 -139 -3 3 -100 c5 -140 9 -143 156 -147 l111 -3 0 -140 0 -140 -180 1 c-205 0 -265 12 -337 67 -23 18 -56 55 -73 82 -30 48 -30 51 -35 214 l-5 166 -85 5 -85 5 0 135 0 135 88 3 87 3 0 404 0 405 175 0 175 0 0 -405z m-1139 42 c-10 -9 -11 -8 -5 6 3 10 9 15 12 12 3 -3 0 -11 -7 -18z m6 -934 c-4 -3 -7 0 -7 7 0 7 3 10 7 7 3 -4 3 -10 0 -14z"/>
 <path d="M1734 1021 c-21 -16 -55 -43 -74 -60 l-35 -31 35 -30 c96 -84 289 -194 428 -244 79 -28 122 -35 88 -13 -47 30 -176 139 -221 188 -28 30 -79 91 -115 137 -35 45 -64 82 -65 82 -1 0 -20 -13 -41 -29z"/>
 <path d="M3306 1004 c-39 -61 -266 -289 -333 -334 -29 -19 -53 -38 -53 -42 0 -17 193 54 297 109 76 40 190 116 243 163 l35 30 -35 30 c-31 27 -118 90 -123 90 -1 0 -15 -21 -31 -46z"/>
 </g>
<g id="layer103" fill="#fefefe" stroke="none">
 <path d="M807 4660 c-132 -25 -206 -179 -144 -300 79 -157 303 -157 385 1 32 60 26 151 -12 209 -46 70 -140 107 -229 90z m129 -85 c38 -25 67 -97 59 -145 -23 -137 -204 -164 -268 -40 -35 67 -1 165 67 196 38 18 107 12 142 -11z"/>
 <path d="M3417 4660 c-132 -25 -206 -179 -144 -300 79 -157 303 -157 385 1 32 60 26 151 -12 209 -46 70 -140 107 -229 90z m129 -85 c38 -25 67 -97 59 -145 -23 -137 -204 -164 -268 -40 -35 67 -1 165 67 196 38 18 107 12 142 -11z"/>
 <path d="M3839 4657 c-25 -7 -60 -23 -78 -36 l-33 -24 24 -23 23 -24 49 25 c75 38 132 31 149 -18 9 -25 -24 -54 -75 -67 -111 -28 -148 -62 -148 -136 0 -47 50 -99 104 -110 46 -8 132 10 163 34 21 17 21 17 3 39 -17 22 -20 22 -54 8 -50 -21 -109 -19 -130 4 -26 29 -12 57 37 74 23 8 63 22 88 31 58 21 79 44 86 94 13 99 -88 162 -208 129z"/>
 <path d="M4265 4659 c-88 -20 -155 -108 -155 -204 0 -172 201 -275 340 -174 l42 31 -22 23 -22 23 -46 -25 c-145 -77 -288 85 -184 209 51 61 117 70 190 26 l34 -21 21 22 22 22 -34 29 c-18 15 -53 33 -76 39 -49 12 -54 12 -110 0z"/>
 <path d="M1230 4490 l0 -170 -60 0 -60 0 0 -35 0 -35 161 0 160 0 -3 33 c-3 32 -3 32 -65 35 l-63 3 0 169 0 170 -35 0 -35 0 0 -170z"/>
 <path d="M1579 4633 c-25 -66 -129 -367 -129 -375 0 -5 16 -8 37 -6 l36 3 50 143 50 144 45 -146 45 -146 32 0 32 0 43 140 c24 77 46 137 49 134 3 -3 27 -65 52 -137 l46 -132 37 -3 c25 -2 36 1 35 10 0 7 -30 99 -67 203 l-67 190 -37 3 -36 3 -30 -98 c-17 -54 -36 -118 -43 -142 l-13 -44 -12 39 c-7 21 -27 85 -44 142 l-32 102 -34 0 c-28 0 -36 -5 -45 -27z"/>
 <path d="M2030 4657 c0 -1 40 -92 88 -202 l89 -200 39 0 39 0 87 195 c48 107 87 198 87 203 1 4 -16 7 -36 7 -36 0 -39 -3 -56 -45 l-19 -45 -103 0 -102 0 -17 45 c-17 43 -20 45 -57 45 -21 0 -39 -1 -39 -3z m280 -164 c0 -5 -14 -41 -32 -80 l-32 -73 -33 75 c-18 42 -33 78 -33 80 0 3 29 5 65 5 36 0 65 -3 65 -7z"/>
 <path d="M2520 4455 l0 -205 93 0 c121 1 165 12 200 50 22 25 27 40 27 81 0 47 -21 109 -38 109 -4 0 -15 7 -25 15 -18 13 -17 17 24 72 23 32 46 64 52 71 7 9 -1 12 -36 12 -44 0 -45 -1 -96 -70 -48 -67 -53 -70 -91 -70 l-40 0 0 70 0 70 -35 0 -35 0 0 -205z m213 -6 c29 -16 37 -28 37 -63 0 -51 -24 -66 -107 -66 l-73 0 0 70 0 70 61 0 c33 0 70 -5 82 -11z"/>
 <path d="M3020 4490 l0 -170 -60 0 -60 0 0 -35 0 -35 161 0 160 0 -3 33 c-3 32 -3 32 -65 35 l-63 3 0 169 0 170 -35 0 -35 0 0 -170z"/>
 <path d="M3853 4192 l-22 -17 20 -32 c20 -31 22 -32 45 -17 24 17 23 26 -8 66 -12 16 -14 16 -35 0z"/>
 <path d="M4303 4192 l-22 -17 20 -32 c20 -31 22 -32 45 -17 24 17 23 26 -8 66 -12 16 -14 16 -35 0z"/>
 </g>

</svg>