<!DOCTYPE svg PUBLIC "-//W3C//DTD SVG 20010904//EN" "http://www.w3.org/TR/2001/REC-SVG-20010904/DTD/svg10.dtd">
<svg version="1.0" xmlns="http://www.w3.org/2000/svg" width="512px" height="512px" viewBox="0 0 5120 5120" preserveAspectRatio="xMidYMid meet">
<g id="layer101" fill="#000000" stroke="none">
 <path d="M26 5094 l-26 -27 0 -2507 0 -2507 26 -27 27 -26 2507 0 2507 0 27 26 26 27 0 2507 0 2507 -26 27 -27 26 -2507 0 -2507 0 -27 -26z"/>
 </g>
<g id="layer102" fill="#88229a" stroke="none">
 <path d="M235 4659 c-88 -20 -155 -108 -155 -204 0 -172 201 -275 340 -174 l42 31 -22 23 -22 23 -46 -25 c-145 -77 -288 85 -184 209 51 61 117 70 190 26 l34 -21 21 22 22 22 -34 29 c-18 15 -53 33 -76 39 -49 12 -54 12 -110 0z"/>
 <path d="M4075 4659 c-88 -20 -155 -108 -155 -204 0 -172 201 -275 340 -174 l42 31 -22 23 -22 23 -46 -25 c-145 -77 -288 85 -184 209 51 61 117 70 190 26 l34 -21 21 22 22 22 -34 29 c-18 15 -53 33 -76 39 -49 12 -54 12 -110 0z"/>
 <path d="M540 4455 l0 -205 140 0 140 0 0 35 0 35 -105 0 -105 0 0 50 0 50 95 0 95 0 0 35 0 35 -95 0 -95 0 0 50 0 50 110 0 110 0 0 35 0 35 -145 0 -145 0 0 -205z"/>
 <path d="M920 4455 l0 -205 33 0 c30 0 41 11 150 151 l117 151 0 -151 0 -151 35 0 35 0 0 205 0 205 -39 0 c-37 0 -40 -3 -147 -142 l-109 -142 -3 142 -3 142 -34 0 -35 0 0 -205z"/>
 <path d="M1490 4490 l0 -170 -60 0 -60 0 0 -35 0 -35 161 0 160 0 -3 33 c-3 32 -3 32 -65 35 l-63 3 0 169 0 170 -35 0 -35 0 0 -170z"/>
 <path d="M1760 4455 l0 -205 93 0 c121 1 165 12 200 50 22 25 27 40 27 81 0 47 -21 109 -38 109 -4 0 -15 7 -25 15 -18 13 -17 17 24 72 23 32 46 64 52 71 7 9 -1 12 -36 12 -44 0 -45 -1 -96 -70 -48 -67 -53 -70 -91 -70 l-40 0 0 70 0 70 -35 0 -35 0 0 -205z m213 -6 c29 -16 37 -28 37 -63 0 -51 -24 -66 -107 -66 l-73 0 0 70 0 70 61 0 c33 0 70 -5 82 -11z"/>
 <path d="M2120 4657 c0 -1 40 -92 88 -202 l89 -200 39 0 39 0 87 195 c48 107 87 198 87 203 1 4 -16 7 -36 7 -36 0 -39 -3 -56 -45 l-19 -45 -103 0 -102 0 -17 45 c-17 43 -20 45 -57 45 -21 0 -39 -1 -39 -3z m280 -164 c0 -5 -14 -41 -32 -80 l-32 -73 -33 75 c-18 42 -33 78 -33 80 0 3 29 5 65 5 36 0 65 -3 65 -7z"/>
 <path d="M2620 4455 l0 -205 35 0 35 0 0 170 0 170 90 0 90 0 0 35 0 35 -125 0 -125 0 0 -205z"/>
 <path d="M2950 4455 l0 -205 35 0 35 0 0 205 0 205 -35 0 -35 0 0 -205z"/>
 <path d="M3100 4631 c0 -23 26 -61 114 -168 l113 -138 -111 -5 -111 -5 -3 -32 -3 -33 165 0 166 0 0 29 c0 23 -26 62 -115 170 -63 77 -115 142 -115 145 0 3 52 6 115 6 l115 0 0 30 0 30 -165 0 -165 0 0 -29z"/>
 <path d="M3460 4657 c0 -1 40 -92 88 -202 l89 -200 39 0 39 0 87 195 c48 107 87 198 87 203 1 4 -16 7 -36 7 -36 0 -39 -3 -56 -45 l-19 -45 -103 0 -102 0 -17 45 c-17 43 -20 45 -57 45 -21 0 -39 -1 -39 -3z m280 -164 c0 -5 -14 -41 -32 -80 l-32 -73 -33 75 c-18 42 -33 78 -33 80 0 3 29 5 65 5 36 0 65 -3 65 -7z"/>
 <path d="M4373 4640 c-38 -23 -39 -27 -14 -60 19 -24 20 -24 40 -6 30 27 80 25 103 -3 15 -20 18 -41 18 -137 l0 -114 -65 0 -65 0 0 -35 0 -35 100 0 100 0 0 156 c0 174 -10 213 -61 239 -41 22 -117 19 -156 -5z"/>
 <path d="M4640 4657 c0 -1 40 -92 88 -202 l89 -200 39 0 39 0 87 195 c48 107 87 198 87 203 1 4 -16 7 -36 7 -36 0 -39 -3 -56 -45 l-19 -45 -103 0 -102 0 -17 45 c-17 43 -20 45 -57 45 -21 0 -39 -1 -39 -3z m280 -164 c0 -5 -14 -41 -32 -80 l-32 -73 -33 75 c-18 42 -33 78 -33 80 0 3 29 5 65 5 36 0 65 -3 65 -7z"/>
 <path d="M160 2060 l0 -1900 2400 0 2400 0 0 1900 0 1900 -2400 0 -2400 0 0 -1900z m479 1468 c97 -56 225 -130 285 -165 60 -35 114 -62 120 -60 6 3 41 58 78 124 99 174 89 167 122 81 15 -40 34 -86 42 -103 7 -16 39 -93 70 -170 31 -77 85 -212 120 -299 35 -88 63 -160 62 -161 -2 -1 -43 -7 -93 -14 -49 -6 -100 -13 -112 -15 -11 -3 -41 -7 -65 -10 -23 -3 -157 -22 -296 -42 -140 -19 -262 -34 -271 -32 -15 2 -4 26 60 138 43 74 79 138 79 142 0 3 -89 57 -197 119 -109 62 -238 137 -287 166 -49 29 -93 54 -99 56 -5 1 16 48 48 102 32 55 77 133 99 172 23 40 45 73 50 73 5 0 88 -46 185 -102z m4047 29 c22 -39 67 -117 99 -172 32 -54 53 -101 48 -102 -6 -2 -50 -27 -99 -56 -49 -29 -178 -104 -286 -166 -109 -62 -198 -116 -198 -119 0 -4 36 -68 79 -142 64 -112 75 -136 60 -138 -9 -2 -131 13 -271 32 -139 20 -273 39 -296 42 -24 3 -54 7 -65 10 -12 2 -62 9 -112 15 -49 7 -91 13 -93 14 -1 1 27 73 62 161 35 87 89 222 120 299 31 77 63 154 70 170 8 17 27 63 42 103 33 86 23 93 122 -81 37 -66 72 -121 78 -124 6 -2 64 27 130 65 65 38 193 113 284 166 91 52 170 96 175 96 6 0 28 -33 51 -73z m-1886 -597 c51 -12 133 -44 205 -80 210 -105 340 -235 445 -445 83 -166 104 -258 104 -445 0 -187 -21 -279 -104 -445 -105 -210 -235 -340 -445 -445 -166 -83 -258 -104 -445 -104 -187 0 -279 21 -445 104 -210 105 -340 235 -445 445 -83 166 -104 258 -104 445 0 187 21 279 104 445 99 199 231 335 420 434 178 93 307 123 500 116 79 -2 156 -11 210 -25z m-1894 -1510 c88 -11 182 -24 209 -30 28 -5 77 -12 110 -15 83 -9 318 -45 323 -50 2 -2 -49 -133 -113 -292 -64 -158 -135 -336 -158 -396 -23 -59 -46 -106 -50 -104 -5 1 -42 61 -83 132 -41 71 -77 132 -82 136 -4 4 -61 -24 -127 -63 -201 -118 -464 -268 -468 -268 -3 0 -28 42 -57 93 -29 50 -73 125 -97 165 -25 41 -42 80 -40 86 3 7 52 39 109 71 56 32 187 107 290 167 182 106 187 110 174 131 -55 89 -146 249 -146 258 0 7 10 9 24 5 13 -3 95 -15 182 -26z m3514 19 c0 -9 -76 -142 -146 -256 -13 -21 -7 -25 174 -131 103 -60 234 -135 290 -167 57 -32 106 -64 109 -71 2 -6 -15 -45 -40 -86 -24 -40 -68 -115 -97 -165 -29 -51 -54 -93 -57 -93 -4 0 -267 150 -468 268 -66 39 -123 67 -127 63 -5 -4 -41 -65 -82 -136 -41 -71 -78 -131 -83 -132 -4 -2 -27 45 -50 105 -23 59 -94 237 -158 395 -64 159 -115 290 -113 292 5 5 174 32 283 45 50 6 135 17 190 26 95 15 336 50 363 53 6 0 12 -4 12 -10z"/>
 </g>
<g id="layer103" fill="#9c27b0" stroke="none">
 <path d="M235 4659 c-88 -20 -155 -108 -155 -204 0 -172 201 -275 340 -174 l42 31 -22 23 -22 23 -46 -25 c-145 -77 -288 85 -184 209 51 61 117 70 190 26 l34 -21 21 22 22 22 -34 29 c-18 15 -53 33 -76 39 -49 12 -54 12 -110 0z"/>
 <path d="M4075 4659 c-88 -20 -155 -108 -155 -204 0 -172 201 -275 340 -174 l42 31 -22 23 -22 23 -46 -25 c-145 -77 -288 85 -184 209 51 61 117 70 190 26 l34 -21 21 22 22 22 -34 29 c-18 15 -53 33 -76 39 -49 12 -54 12 -110 0z"/>
 <path d="M540 4455 l0 -205 140 0 140 0 0 35 0 35 -105 0 -105 0 0 50 0 50 95 0 95 0 0 35 0 35 -95 0 -95 0 0 50 0 50 110 0 110 0 0 35 0 35 -145 0 -145 0 0 -205z"/>
 <path d="M920 4455 l0 -205 33 0 c30 0 41 11 150 151 l117 151 0 -151 0 -151 35 0 35 0 0 205 0 205 -39 0 c-37 0 -40 -3 -147 -142 l-109 -142 -3 142 -3 142 -34 0 -35 0 0 -205z"/>
 <path d="M1490 4490 l0 -170 -60 0 -60 0 0 -35 0 -35 161 0 160 0 -3 33 c-3 32 -3 32 -65 35 l-63 3 0 169 0 170 -35 0 -35 0 0 -170z"/>
 <path d="M1760 4455 l0 -205 93 0 c121 1 165 12 200 50 22 25 27 40 27 81 0 47 -21 109 -38 109 -4 0 -15 7 -25 15 -18 13 -17 17 24 72 23 32 46 64 52 71 7 9 -1 12 -36 12 -44 0 -45 -1 -96 -70 -48 -67 -53 -70 -91 -70 l-40 0 0 70 0 70 -35 0 -35 0 0 -205z m213 -6 c29 -16 37 -28 37 -63 0 -51 -24 -66 -107 -66 l-73 0 0 70 0 70 61 0 c33 0 70 -5 82 -11z"/>
 <path d="M2120 4657 c0 -1 40 -92 88 -202 l89 -200 39 0 39 0 87 195 c48 107 87 198 87 203 1 4 -16 7 -36 7 -36 0 -39 -3 -56 -45 l-19 -45 -103 0 -102 0 -17 45 c-17 43 -20 45 -57 45 -21 0 -39 -1 -39 -3z m280 -164 c0 -5 -14 -41 -32 -80 l-32 -73 -33 75 c-18 42 -33 78 -33 80 0 3 29 5 65 5 36 0 65 -3 65 -7z"/>
 <path d="M2620 4455 l0 -205 35 0 35 0 0 170 0 170 90 0 90 0 0 35 0 35 -125 0 -125 0 0 -205z"/>
 <path d="M2950 4455 l0 -205 35 0 35 0 0 205 0 205 -35 0 -35 0 0 -205z"/>
 <path d="M3100 4631 c0 -23 26 -61 114 -168 l113 -138 -111 -5 -111 -5 -3 -32 -3 -33 165 0 166 0 0 29 c0 23 -26 62 -115 170 -63 77 -115 142 -115 145 0 3 52 6 115 6 l115 0 0 30 0 30 -165 0 -165 0 0 -29z"/>
 <path d="M3460 4657 c0 -1 40 -92 88 -202 l89 -200 39 0 39 0 87 195 c48 107 87 198 87 203 1 4 -16 7 -36 7 -36 0 -39 -3 -56 -45 l-19 -45 -103 0 -102 0 -17 45 c-17 43 -20 45 -57 45 -21 0 -39 -1 -39 -3z m280 -164 c0 -5 -14 -41 -32 -80 l-32 -73 -33 75 c-18 42 -33 78 -33 80 0 3 29 5 65 5 36 0 65 -3 65 -7z"/>
 <path d="M4373 4640 c-38 -23 -39 -27 -14 -60 19 -24 20 -24 40 -6 30 27 80 25 103 -3 15 -20 18 -41 18 -137 l0 -114 -65 0 -65 0 0 -35 0 -35 100 0 100 0 0 156 c0 174 -10 213 -61 239 -41 22 -117 19 -156 -5z"/>
 <path d="M4640 4657 c0 -1 40 -92 88 -202 l89 -200 39 0 39 0 87 195 c48 107 87 198 87 203 1 4 -16 7 -36 7 -36 0 -39 -3 -56 -45 l-19 -45 -103 0 -102 0 -17 45 c-17 43 -20 45 -57 45 -21 0 -39 -1 -39 -3z m280 -164 c0 -5 -14 -41 -32 -80 l-32 -73 -33 75 c-18 42 -33 78 -33 80 0 3 29 5 65 5 36 0 65 -3 65 -7z"/>
 <path d="M160 2060 l0 -1900 2400 0 2400 0 0 1900 0 1900 -2400 0 -2400 0 0 -1900z m334 1560 c9 0 25 -9 36 -20 11 -11 25 -20 30 -20 17 0 170 -91 170 -101 0 -5 9 -9 20 -9 11 0 29 -9 40 -20 11 -11 26 -20 33 -20 7 0 20 -9 30 -20 9 -11 25 -20 35 -20 10 0 25 -9 35 -20 9 -11 26 -20 37 -20 11 0 23 -7 26 -15 4 -8 14 -15 23 -15 9 0 22 -5 29 -12 9 -9 16 -1 30 33 11 24 27 50 36 58 9 7 16 21 16 31 0 9 9 25 20 35 11 10 20 26 20 35 0 10 6 23 14 29 8 7 17 23 20 36 4 14 12 25 20 25 13 0 54 -96 80 -186 6 -23 16 -47 23 -55 6 -8 15 -28 19 -44 4 -17 11 -35 16 -42 5 -7 7 -16 4 -21 -3 -5 2 -20 12 -33 24 -32 43 -79 37 -89 -3 -4 2 -13 11 -20 8 -7 13 -19 10 -26 -3 -7 2 -18 10 -24 8 -7 14 -19 14 -26 0 -15 4 -24 35 -82 9 -18 14 -36 11 -39 -3 -4 1 -15 11 -25 9 -10 13 -21 10 -25 -4 -3 -1 -13 7 -22 7 -9 17 -26 20 -38 7 -21 4 -23 -28 -23 -19 0 -38 -5 -42 -11 -3 -6 -17 -8 -29 -5 -13 3 -27 1 -31 -5 -4 -6 -20 -8 -39 -5 -19 4 -36 2 -39 -3 -3 -5 -15 -7 -26 -4 -11 3 -27 0 -35 -7 -8 -7 -26 -9 -44 -5 -17 4 -32 2 -36 -5 -4 -7 -19 -9 -35 -5 -17 4 -31 2 -35 -5 -4 -7 -18 -9 -30 -6 -13 3 -26 2 -29 -3 -4 -5 -18 -8 -34 -6 -15 2 -31 0 -37 -3 -5 -4 -23 -5 -38 -3 -15 1 -34 -3 -42 -9 -8 -6 -23 -9 -34 -5 -10 3 -22 2 -25 -4 -3 -5 -24 -7 -45 -5 -22 3 -42 0 -46 -6 -3 -5 -17 -7 -31 -4 -13 3 -31 1 -38 -5 -37 -31 -20 30 24 86 11 14 20 31 20 38 0 6 9 20 20 30 11 10 20 26 20 35 0 9 9 25 19 34 10 9 21 28 24 42 4 21 -4 29 -57 60 -33 20 -69 45 -79 55 -10 10 -27 19 -38 19 -11 0 -22 7 -25 15 -4 8 -15 15 -25 15 -10 0 -28 9 -39 20 -11 11 -25 20 -30 20 -11 0 -269 145 -284 160 -4 5 1 18 13 31 11 13 21 30 21 39 0 9 9 25 20 35 11 10 20 26 20 35 0 10 7 23 15 30 8 7 15 18 15 24 0 7 16 35 35 62 19 27 35 54 35 59 0 6 7 21 17 34 15 22 17 22 28 7 7 -9 20 -16 29 -16z m4176 -24 c0 -6 16 -33 35 -60 19 -27 35 -55 35 -62 0 -6 7 -17 15 -24 8 -7 15 -20 15 -30 0 -9 9 -25 20 -35 11 -10 20 -26 20 -35 0 -9 10 -26 21 -39 12 -13 17 -26 13 -31 -15 -15 -273 -160 -284 -160 -5 0 -19 -9 -30 -20 -11 -11 -29 -20 -39 -20 -10 0 -21 -7 -25 -15 -3 -8 -14 -15 -25 -15 -11 0 -28 -9 -38 -19 -10 -10 -46 -35 -79 -55 -53 -31 -61 -39 -57 -60 3 -14 14 -33 24 -42 10 -9 19 -25 19 -34 0 -9 9 -25 20 -35 11 -10 20 -24 20 -30 0 -7 9 -24 20 -38 44 -56 61 -117 24 -86 -7 6 -25 8 -38 5 -14 -3 -28 -1 -31 4 -4 6 -24 9 -46 6 -21 -2 -42 0 -45 5 -3 6 -15 7 -25 4 -11 -4 -26 -1 -34 5 -8 6 -27 10 -42 9 -15 -2 -33 -1 -38 3 -6 3 -22 5 -37 3 -16 -2 -30 1 -34 6 -3 5 -16 6 -29 3 -12 -3 -26 -1 -30 6 -4 7 -18 9 -35 5 -16 -4 -31 -2 -35 5 -4 7 -19 9 -36 5 -18 -4 -36 -2 -44 5 -8 7 -24 10 -35 7 -11 -3 -23 -1 -26 4 -3 5 -20 7 -39 3 -19 -3 -35 -1 -39 5 -4 6 -18 8 -31 5 -12 -3 -26 -1 -29 5 -4 6 -23 11 -42 11 -32 0 -35 2 -28 23 3 12 13 29 20 38 8 9 11 19 7 22 -3 4 1 15 10 25 10 10 14 21 11 25 -3 3 2 21 11 39 31 58 35 67 35 82 0 7 6 19 14 26 8 6 13 17 10 24 -3 7 2 19 10 26 9 7 14 16 11 20 -6 10 13 57 37 89 10 13 15 28 12 33 -3 5 -1 14 4 21 5 7 12 25 16 42 4 16 13 36 19 44 7 8 17 32 23 55 26 90 67 186 80 186 8 0 16 -11 20 -25 3 -13 12 -29 20 -36 8 -6 14 -19 14 -29 0 -9 9 -25 20 -35 11 -10 20 -26 20 -35 0 -10 7 -24 16 -31 9 -8 25 -34 36 -58 14 -34 21 -42 30 -33 7 7 20 12 29 12 9 0 19 7 23 15 3 8 15 15 26 15 11 0 28 9 37 20 10 11 25 20 35 20 10 0 26 9 35 20 10 11 23 20 30 20 7 0 22 9 33 20 11 11 29 20 40 20 11 0 20 4 20 9 0 10 153 101 170 101 5 0 19 9 30 20 11 11 29 20 39 20 10 0 22 8 26 18 6 15 8 15 26 -7 10 -13 19 -28 19 -35z m-1930 -619 c14 -4 43 -10 65 -15 64 -15 110 -32 205 -76 38 -17 48 -23 125 -75 93 -63 183 -153 246 -246 52 -77 58 -87 75 -125 53 -115 63 -147 91 -275 4 -16 7 -95 7 -175 0 -80 -3 -158 -7 -175 -28 -128 -38 -160 -91 -275 -17 -38 -23 -48 -75 -125 -63 -93 -153 -183 -246 -246 -77 -52 -87 -58 -125 -75 -115 -53 -147 -63 -275 -91 -39 -9 -311 -9 -350 0 -128 28 -160 38 -275 91 -38 17 -47 23 -125 75 -95 65 -181 151 -246 246 -52 77 -58 87 -75 125 -53 115 -63 147 -91 275 -9 39 -9 311 0 350 28 128 38 160 91 275 17 38 23 48 75 125 65 95 151 181 246 246 90 60 94 63 190 104 63 28 138 49 209 60 16 3 31 7 34 10 6 6 291 -1 322 -8z m-1993 -1499 c7 -5 17 -7 23 -3 6 4 17 1 25 -5 9 -7 28 -10 45 -7 16 4 32 2 36 -4 3 -6 19 -7 35 -4 16 4 34 3 41 -2 7 -4 22 -9 33 -10 11 -1 38 -5 60 -8 22 -4 56 -7 75 -6 19 0 40 -5 46 -10 7 -5 24 -7 37 -3 14 3 32 2 39 -2 7 -5 22 -10 33 -11 11 -2 38 -6 60 -9 22 -3 56 -6 75 -7 19 -1 41 -6 48 -10 7 -5 21 -6 31 -2 51 16 93 -24 56 -55 -8 -7 -12 -16 -9 -21 3 -5 -1 -21 -9 -36 -8 -16 -34 -77 -57 -138 -24 -60 -49 -117 -56 -126 -8 -9 -11 -18 -8 -22 4 -4 0 -17 -8 -29 -8 -13 -18 -36 -22 -53 -4 -16 -16 -50 -27 -75 -11 -25 -27 -61 -35 -80 -8 -19 -19 -42 -23 -50 -5 -9 -12 -30 -15 -47 -4 -17 -14 -37 -22 -44 -8 -6 -14 -18 -14 -26 0 -23 -35 -11 -38 14 -2 11 -12 29 -23 39 -10 9 -19 25 -19 34 0 9 -9 25 -20 35 -11 10 -20 22 -20 27 0 11 -48 78 -67 95 -11 8 -19 6 -38 -10 -13 -12 -50 -35 -82 -51 -32 -17 -70 -38 -85 -48 -14 -10 -33 -18 -40 -18 -8 0 -23 -9 -33 -20 -10 -11 -26 -20 -35 -20 -9 0 -25 -9 -35 -20 -10 -11 -26 -20 -35 -20 -9 0 -25 -9 -35 -20 -10 -11 -26 -20 -35 -20 -9 0 -25 -10 -36 -21 -17 -20 -103 -65 -108 -57 -1 1 -21 37 -45 78 -23 41 -49 86 -57 100 -8 14 -22 39 -29 57 -8 17 -19 34 -25 38 -5 3 -10 13 -10 22 0 9 -8 21 -17 28 -14 11 -15 15 -4 28 11 15 82 60 150 96 14 8 39 25 54 38 16 12 37 23 48 23 10 0 19 4 19 9 0 11 87 61 106 61 8 0 22 9 31 20 10 11 25 20 35 20 10 0 26 9 35 20 10 11 23 20 31 20 18 0 62 30 62 43 0 6 -18 41 -40 78 -22 37 -40 74 -40 82 0 8 -9 22 -20 32 -11 10 -20 26 -20 35 0 9 -9 25 -20 35 -11 10 -20 21 -20 25 0 11 53 9 67 -2z m3693 5 c0 -3 -9 -16 -20 -30 -11 -14 -20 -31 -20 -38 0 -6 -9 -20 -20 -30 -11 -10 -20 -24 -20 -32 0 -8 -18 -45 -40 -82 -22 -37 -40 -72 -40 -78 0 -13 44 -43 62 -43 8 0 21 -9 31 -20 9 -11 25 -20 35 -20 10 0 25 -9 35 -20 9 -11 23 -20 31 -20 19 0 106 -50 106 -61 0 -5 9 -9 19 -9 11 0 32 -11 48 -23 15 -13 40 -30 54 -38 68 -36 139 -81 150 -96 11 -13 10 -17 -4 -28 -9 -7 -17 -19 -17 -28 0 -9 -5 -19 -10 -22 -6 -4 -17 -21 -25 -38 -7 -18 -21 -43 -29 -57 -8 -14 -34 -59 -57 -100 -24 -41 -44 -77 -45 -78 -5 -8 -91 37 -108 57 -11 11 -27 21 -36 21 -9 0 -25 9 -35 20 -10 11 -26 20 -35 20 -9 0 -25 9 -35 20 -10 11 -26 20 -35 20 -9 0 -25 9 -35 20 -10 11 -25 20 -33 20 -7 0 -26 8 -40 18 -15 10 -53 31 -85 48 -32 16 -69 39 -82 51 -19 16 -27 18 -38 10 -19 -17 -67 -84 -67 -95 0 -5 -9 -17 -20 -27 -11 -10 -20 -26 -20 -35 0 -9 -9 -25 -19 -34 -11 -10 -21 -28 -23 -39 -3 -23 -38 -37 -38 -16 0 7 -7 20 -16 30 -8 9 -16 29 -18 43 -2 15 -8 32 -14 38 -7 7 -12 16 -12 21 0 7 -14 42 -55 132 -7 17 -17 44 -21 60 -4 17 -14 40 -22 53 -8 12 -12 25 -8 29 3 4 0 13 -8 22 -7 9 -32 66 -56 126 -23 61 -49 122 -57 138 -8 15 -12 31 -9 36 3 5 -1 14 -9 21 -37 31 5 71 56 55 10 -4 24 -3 31 2 7 4 29 9 48 10 19 1 53 4 75 7 22 3 49 7 60 9 11 1 26 6 33 11 7 4 25 5 39 2 13 -4 30 -2 37 3 6 5 27 10 46 10 19 -1 53 2 75 6 22 3 49 7 60 8 11 1 26 6 33 10 7 5 25 6 41 2 16 -3 32 -2 35 4 4 6 20 8 36 4 17 -3 36 0 44 6 7 6 20 9 29 5 8 -3 18 -1 21 5 6 9 66 13 66 4z"/>
 </g>
<g id="layer104" fill="#ffffff" stroke="none">
 <path d="M235 4659 c-88 -20 -155 -108 -155 -204 0 -172 201 -275 340 -174 l42 31 -22 23 -22 23 -46 -25 c-145 -77 -288 85 -184 209 51 61 117 70 190 26 l34 -21 21 22 22 22 -34 29 c-18 15 -53 33 -76 39 -49 12 -54 12 -110 0z"/>
 <path d="M4075 4659 c-88 -20 -155 -108 -155 -204 0 -172 201 -275 340 -174 l42 31 -22 23 -22 23 -46 -25 c-145 -77 -288 85 -184 209 51 61 117 70 190 26 l34 -21 21 22 22 22 -34 29 c-18 15 -53 33 -76 39 -49 12 -54 12 -110 0z"/>
 <path d="M540 4455 l0 -205 140 0 140 0 0 35 0 35 -105 0 -105 0 0 50 0 50 95 0 95 0 0 35 0 35 -95 0 -95 0 0 50 0 50 110 0 110 0 0 35 0 35 -145 0 -145 0 0 -205z"/>
 <path d="M920 4455 l0 -205 33 0 c30 0 41 11 150 151 l117 151 0 -151 0 -151 35 0 35 0 0 205 0 205 -39 0 c-37 0 -40 -3 -147 -142 l-109 -142 -3 142 -3 142 -34 0 -35 0 0 -205z"/>
 <path d="M1490 4490 l0 -170 -60 0 -60 0 0 -35 0 -35 161 0 160 0 -3 33 c-3 32 -3 32 -65 35 l-63 3 0 169 0 170 -35 0 -35 0 0 -170z"/>
 <path d="M1760 4455 l0 -205 93 0 c121 1 165 12 200 50 22 25 27 40 27 81 0 47 -21 109 -38 109 -4 0 -15 7 -25 15 -18 13 -17 17 24 72 23 32 46 64 52 71 7 9 -1 12 -36 12 -44 0 -45 -1 -96 -70 -48 -67 -53 -70 -91 -70 l-40 0 0 70 0 70 -35 0 -35 0 0 -205z m213 -6 c29 -16 37 -28 37 -63 0 -51 -24 -66 -107 -66 l-73 0 0 70 0 70 61 0 c33 0 70 -5 82 -11z"/>
 <path d="M2120 4657 c0 -1 40 -92 88 -202 l89 -200 39 0 39 0 87 195 c48 107 87 198 87 203 1 4 -16 7 -36 7 -36 0 -39 -3 -56 -45 l-19 -45 -103 0 -102 0 -17 45 c-17 43 -20 45 -57 45 -21 0 -39 -1 -39 -3z m280 -164 c0 -5 -14 -41 -32 -80 l-32 -73 -33 75 c-18 42 -33 78 -33 80 0 3 29 5 65 5 36 0 65 -3 65 -7z"/>
 <path d="M2620 4455 l0 -205 35 0 35 0 0 170 0 170 90 0 90 0 0 35 0 35 -125 0 -125 0 0 -205z"/>
 <path d="M2950 4455 l0 -205 35 0 35 0 0 205 0 205 -35 0 -35 0 0 -205z"/>
 <path d="M3100 4631 c0 -23 26 -61 114 -168 l113 -138 -111 -5 -111 -5 -3 -32 -3 -33 165 0 166 0 0 29 c0 23 -26 62 -115 170 -63 77 -115 142 -115 145 0 3 52 6 115 6 l115 0 0 30 0 30 -165 0 -165 0 0 -29z"/>
 <path d="M3460 4657 c0 -1 40 -92 88 -202 l89 -200 39 0 39 0 87 195 c48 107 87 198 87 203 1 4 -16 7 -36 7 -36 0 -39 -3 -56 -45 l-19 -45 -103 0 -102 0 -17 45 c-17 43 -20 45 -57 45 -21 0 -39 -1 -39 -3z m280 -164 c0 -5 -14 -41 -32 -80 l-32 -73 -33 75 c-18 42 -33 78 -33 80 0 3 29 5 65 5 36 0 65 -3 65 -7z"/>
 <path d="M4373 4640 c-38 -23 -39 -27 -14 -60 19 -24 20 -24 40 -6 30 27 80 25 103 -3 15 -20 18 -41 18 -137 l0 -114 -65 0 -65 0 0 -35 0 -35 100 0 100 0 0 156 c0 174 -10 213 -61 239 -41 22 -117 19 -156 -5z"/>
 <path d="M4640 4657 c0 -1 40 -92 88 -202 l89 -200 39 0 39 0 87 195 c48 107 87 198 87 203 1 4 -16 7 -36 7 -36 0 -39 -3 -56 -45 l-19 -45 -103 0 -102 0 -17 45 c-17 43 -20 45 -57 45 -21 0 -39 -1 -39 -3z m280 -164 c0 -5 -14 -41 -32 -80 l-32 -73 -33 75 c-18 42 -33 78 -33 80 0 3 29 5 65 5 36 0 65 -3 65 -7z"/>
 </g>

</svg>