<!DOCTYPE svg PUBLIC "-//W3C//DTD SVG 20010904//EN" "http://www.w3.org/TR/2001/REC-SVG-20010904/DTD/svg10.dtd">
<svg version="1.0" xmlns="http://www.w3.org/2000/svg" width="530px" height="507px" viewBox="0 0 5300 5070" preserveAspectRatio="xMidYMid meet">
<g id="layer101" fill="#000000" stroke="none">
 <path d="M0 2535 l0 -2535 2650 0 2650 0 0 2535 0 2535 -2650 0 -2650 0 0 -2535z"/>
 </g>
<g id="layer102" fill="#00897b" stroke="none">
 <path d="M180 4665 l0 -195 100 0 c111 0 170 17 188 53 32 67 19 148 -29 175 -16 9 -29 21 -29 25 0 4 17 31 38 60 59 80 58 77 13 77 -38 0 -43 -4 -86 -65 -45 -63 -48 -65 -91 -65 l-44 0 0 65 0 65 -30 0 -30 0 0 -195z m214 -16 c32 -25 35 -70 6 -99 -16 -16 -33 -20 -90 -20 l-70 0 0 70 0 70 64 0 c49 0 69 -5 90 -21z"/>
 <path d="M675 4843 c-141 -74 -155 -259 -27 -348 39 -27 52 -30 117 -30 65 0 78 3 117 30 127 88 114 275 -24 346 -46 24 -140 25 -183 2z m155 -56 c92 -46 93 -204 1 -252 -95 -49 -201 17 -201 126 0 82 55 139 135 139 22 0 51 -6 65 -13z"/>
 <path d="M1020 4833 c0 -21 29 -64 110 -163 l111 -135 -111 -3 -110 -3 0 -29 0 -30 155 0 155 0 0 29 c0 22 -26 61 -110 162 l-110 134 115 3 115 3 0 29 0 30 -160 0 -160 0 0 -27z"/>
 <path d="M1430 4665 l0 -197 108 3 c95 4 112 7 153 31 59 35 83 82 83 163 -1 64 -17 106 -56 141 -42 39 -72 48 -180 52 l-108 5 0 -198z m203 121 c56 -23 72 -50 72 -121 0 -49 -4 -68 -20 -85 -29 -33 -77 -50 -140 -50 l-55 0 0 135 0 135 55 0 c31 0 70 -6 88 -14z"/>
 <path d="M1870 4665 l0 -195 100 0 c111 0 170 17 188 53 32 67 19 148 -29 175 -16 9 -29 21 -29 25 0 4 17 31 38 60 59 80 58 77 13 77 -38 0 -43 -4 -86 -65 -45 -63 -48 -65 -91 -65 l-44 0 0 65 0 65 -30 0 -30 0 0 -195z m214 -16 c32 -25 35 -70 6 -99 -16 -16 -33 -20 -90 -20 l-70 0 0 70 0 70 64 0 c49 0 69 -5 90 -21z"/>
 <path d="M2365 4843 c-141 -74 -155 -259 -27 -348 39 -27 52 -30 117 -30 65 0 78 3 117 30 127 88 114 275 -24 346 -46 24 -140 25 -183 2z m155 -56 c92 -46 93 -204 1 -252 -95 -49 -201 17 -201 126 0 82 55 139 135 139 22 0 51 -6 65 -13z"/>
 <path d="M2750 4665 l0 -195 95 0 c145 0 185 24 185 109 0 30 -6 44 -23 58 l-24 17 31 21 c39 26 51 73 32 120 -22 51 -62 65 -191 65 l-105 0 0 -195z m218 119 c31 -21 26 -64 -8 -81 -14 -7 -53 -13 -87 -13 l-63 0 0 55 0 55 68 0 c46 0 75 -5 90 -16z m-14 -176 c20 -29 20 -34 -4 -58 -16 -16 -33 -20 -80 -20 l-60 0 0 50 0 50 64 0 c56 0 67 -3 80 -22z"/>
 <path d="M3140 4665 l0 -195 33 0 c29 1 40 12 131 131 55 71 105 134 113 140 11 10 13 -13 13 -130 l0 -141 30 0 30 0 0 195 0 195 -34 0 c-31 0 -41 -9 -142 -140 l-109 -140 -3 140 -3 140 -29 0 -30 0 0 -195z"/>
 <path d="M3610 4665 l0 -195 30 0 30 0 0 195 0 195 -30 0 -30 0 0 -195z"/>
 <path d="M3780 4665 l0 -195 135 0 135 0 0 30 0 30 -105 0 -105 0 0 55 0 55 95 0 c95 0 95 0 95 25 0 25 0 25 -95 25 l-95 0 0 55 0 55 105 0 105 0 0 30 0 30 -135 0 -135 0 0 -195z"/>
 <path d="M4150 4665 l0 -195 33 0 c29 1 40 12 131 131 55 71 105 134 113 140 11 10 13 -13 13 -130 l0 -141 30 0 30 0 0 195 0 195 -34 0 c-31 0 -41 -9 -142 -140 l-109 -140 -3 140 -3 140 -29 0 -30 0 0 -195z"/>
 <path d="M4620 4665 l0 -195 30 0 30 0 0 195 0 195 -30 0 -30 0 0 -195z"/>
 <path d="M4790 4665 l0 -195 135 0 135 0 0 30 0 30 -105 0 -105 0 0 55 0 55 95 0 c95 0 95 0 95 25 0 25 0 25 -95 25 l-95 0 0 55 0 55 105 0 105 0 0 30 0 30 -135 0 -135 0 0 -195z"/>
 <path d="M180 2237 c0 -1568 3 -2036 12 -2045 17 -17 4899 -17 4916 0 9 9 12 477 12 2045 l0 2033 -2470 0 -2470 0 0 -2033z m2275 1814 c298 -147 278 -574 -32 -691 -84 -32 -215 -25 -294 14 -71 35 -139 104 -175 176 -23 45 -29 72 -32 145 -5 105 15 172 74 249 105 138 302 184 459 107z m991 -477 l311 -116 -11 -29 c-7 -20 -15 -28 -26 -23 -8 3 -148 55 -310 116 -162 61 -298 113 -302 117 -11 9 2 51 16 51 6 0 151 -52 322 -116z m915 80 c115 -34 207 -119 249 -231 32 -84 25 -215 -14 -293 -36 -72 -104 -141 -175 -176 -79 -39 -210 -46 -294 -14 -251 94 -327 409 -146 605 100 108 243 149 380 109z m-2616 -43 c0 -21 -36 -48 -245 -183 -135 -87 -248 -158 -252 -158 -4 0 -12 10 -19 21 -8 17 -8 24 3 34 32 31 484 315 498 312 8 -1 15 -13 15 -26z m1435 -741 c266 -300 491 -554 501 -565 19 -21 16 -69 -3 -63 -5 2 -250 273 -543 603 -500 563 -532 601 -517 618 20 23 -31 76 562 -593z m-740 437 c0 -2 14 -48 31 -103 16 -54 36 -121 44 -149 7 -27 31 -111 54 -185 22 -74 39 -135 38 -136 -1 -1 -12 -4 -23 -8 -23 -7 -26 0 -80 189 -11 39 -79 265 -110 367 -3 10 2 18 13 21 26 7 33 7 33 4z m1405 -28 c4 -11 5 -22 2 -25 -2 -2 -189 -32 -416 -65 -394 -58 -413 -60 -432 -43 -10 9 -16 20 -13 23 4 5 784 125 841 130 6 1 15 -8 18 -20z m-1729 -23 c7 -19 -61 -152 -81 -160 -45 -17 -45 -5 0 84 43 86 68 109 81 76z m-1045 -92 c115 -34 207 -119 249 -231 32 -84 25 -215 -14 -293 -36 -72 -104 -141 -175 -176 -79 -39 -210 -46 -294 -14 -251 94 -327 409 -146 605 100 108 243 149 380 109z m1747 -35 c7 -12 11 -23 8 -26 -6 -6 -198 -32 -238 -33 -23 0 -28 5 -28 23 0 22 7 24 103 39 138 21 140 21 155 -3z m-410 -66 c4 -27 46 -18 -528 -102 -358 -53 -476 -67 -482 -58 -10 15 -10 37 0 37 4 1 228 34 497 74 270 41 495 73 500 72 6 -2 11 -12 13 -23z m1510 -25 c2 -12 -65 -51 -274 -157 -255 -131 -277 -140 -289 -124 -7 10 -11 21 -8 26 9 14 538 276 553 274 8 -1 16 -10 18 -19z m-2082 -365 c-67 -137 -151 -304 -187 -373 -35 -69 -68 -138 -73 -155 -6 -16 -13 -32 -17 -35 -3 -3 -84 -159 -178 -347 -164 -329 -191 -371 -207 -329 -4 11 401 839 456 931 9 17 23 48 30 70 7 22 18 47 25 55 7 8 58 106 114 217 81 162 105 202 123 206 13 2 26 5 30 6 4 0 -48 -110 -116 -246z m2200 172 c4 -9 -9 -48 -29 -88 -19 -39 -40 -90 -47 -112 -6 -22 -20 -58 -30 -80 -24 -55 -236 -564 -270 -650 -15 -38 -66 -162 -114 -274 -47 -112 -86 -209 -86 -215 0 -6 -9 -28 -20 -49 -11 -20 -20 -45 -20 -55 0 -10 -8 -29 -17 -42 -10 -14 -34 -63 -54 -110 -27 -65 -40 -85 -55 -85 -30 0 -22 38 34 156 28 58 54 119 58 135 4 16 49 130 101 253 51 124 93 231 93 239 0 8 9 29 19 46 11 17 70 153 131 301 62 149 121 286 131 305 11 19 19 41 19 48 0 7 20 59 44 115 24 56 51 119 60 140 15 38 42 49 52 22z m274 -32 c0 -5 -11 -224 -25 -488 -14 -264 -25 -483 -25 -487 0 -5 -11 -8 -25 -8 -14 0 -25 3 -25 8 0 4 11 223 25 487 14 264 25 483 25 488 0 4 11 7 25 7 14 0 25 -3 25 -7z m-1100 -128 c7 -9 11 -17 9 -19 -19 -17 -174 -86 -185 -82 -32 12 -11 37 64 75 87 45 95 47 112 26z m-420 -20 c107 -37 211 -144 242 -248 20 -68 15 -183 -11 -250 -30 -76 -114 -167 -189 -204 -51 -25 -68 -28 -162 -28 -93 0 -111 3 -162 27 -74 34 -146 107 -184 183 -26 54 -29 70 -29 160 0 93 2 105 33 167 85 173 283 256 462 193z m1338 -17 c3 -28 4 -27 -92 -44 -37 -6 -38 -6 -31 17 11 37 24 47 58 52 53 7 62 3 65 -25z m-288 -35 c0 -36 -19 -44 -143 -66 l-126 -21 -25 23 c-14 14 -24 26 -22 28 5 5 263 50 294 52 15 1 22 -5 22 -16z m-486 -92 l27 -28 -78 -12 c-43 -7 -90 -15 -104 -18 -23 -4 -27 -1 -31 26 -4 28 -2 31 26 36 25 5 98 18 127 24 3 1 18 -12 33 -28z m-1788 3 c58 -15 64 -19 58 -38 -3 -11 -9 -24 -13 -28 -5 -6 -118 15 -126 24 -4 4 6 58 12 58 2 0 33 -7 69 -16z m409 -99 c83 -19 160 -37 173 -40 19 -5 21 -10 16 -33 -4 -15 -8 -28 -9 -30 -3 -3 -378 88 -383 93 -9 9 28 54 41 50 6 -2 80 -20 162 -40z m-561 -86 c47 -51 86 -97 86 -103 0 -6 -5 -18 -10 -26 -8 -13 -12 -12 -28 5 -10 11 -53 57 -96 102 -52 55 -77 87 -73 98 12 29 36 14 121 -76z m-418 -43 c1 -1 -22 -158 -52 -351 -29 -192 -54 -353 -54 -357 0 -14 -60 -9 -60 5 0 16 98 664 105 695 5 19 10 21 33 16 15 -4 28 -7 28 -8z m2998 -341 c118 -133 123 -141 108 -159 -19 -21 -2 -37 -201 187 -91 103 -102 120 -96 144 l6 26 29 -29 c16 -16 85 -92 154 -169z m-2081 -144 c-1 -3 -9 -10 -17 -16 -13 -8 -44 19 -160 134 -142 142 -144 145 -128 166 17 23 18 22 162 -128 80 -83 144 -153 143 -156z m1481 185 c83 -29 151 -57 153 -62 2 -6 -3 -18 -10 -28 -13 -17 -24 -15 -227 53 -118 39 -215 73 -217 75 -2 2 1 15 6 29 l10 26 68 -20 c37 -11 135 -43 217 -73z m-1057 -6 c11 -17 9 -22 -20 -43 -75 -56 -358 -247 -364 -247 -4 0 -16 -8 -27 -19 -12 -10 -167 -118 -345 -240 -297 -203 -324 -220 -337 -204 -10 14 -10 21 -1 30 7 6 154 109 327 227 173 118 331 226 350 241 48 36 394 273 400 274 3 1 11 -8 17 -19z m1512 -155 c2 -3 -1 -16 -7 -29 l-11 -25 -75 25 -76 26 15 29 15 29 67 -25 c37 -14 69 -28 72 -30z m-950 -302 c33 -133 64 -250 70 -260 9 -18 33 -135 28 -138 -1 -1 -14 -5 -29 -9 -25 -6 -28 -3 -36 31 -21 83 -52 209 -56 223 -17 62 -87 344 -89 362 -1 16 5 23 23 28 14 4 26 6 27 6 1 -1 29 -110 62 -243z m1422 221 c115 -34 207 -119 249 -231 32 -84 25 -215 -14 -293 -36 -72 -104 -141 -175 -176 -79 -39 -210 -46 -294 -14 -251 94 -327 409 -146 605 100 108 243 149 380 109z m-2100 -261 c166 -169 287 -294 428 -445 61 -64 74 -98 38 -98 -7 0 -76 66 -152 147 -200 210 -411 429 -477 496 -32 32 -58 59 -58 62 0 3 18 9 41 14 3 0 84 -79 180 -176z m-1198 -138 c68 -34 135 -101 173 -176 39 -76 46 -208 14 -292 -96 -254 -411 -327 -610 -141 -200 187 -138 513 117 620 51 22 70 24 153 21 80 -3 104 -8 153 -32z m2755 -12 c2 -13 2 -23 0 -23 -11 0 -258 -31 -286 -35 l-33 -6 14 28 c14 27 21 29 139 44 152 21 162 20 166 -8z m-484 -55 c-3 -13 -7 -24 -8 -25 0 -1 -39 -6 -86 -12 -47 -6 -101 -14 -121 -17 -33 -5 -37 -3 -41 20 -5 23 -2 26 36 31 235 31 229 31 220 3z m-432 -53 c3 -14 2 -25 -1 -25 -3 0 -53 -7 -111 -15 -141 -19 -176 -19 -184 1 -4 9 -4 19 -1 23 5 4 198 32 281 40 7 1 14 -10 16 -24z m-467 -55 c10 -11 16 -22 14 -24 -8 -7 -1093 -135 -1101 -130 -13 8 -9 44 5 45 6 0 239 29 517 63 278 35 514 64 526 65 11 0 29 -8 39 -19z m1463 -121 c3 -18 -320 -294 -346 -294 -10 0 -17 8 -17 18 0 22 323 298 345 294 8 -1 16 -9 18 -18z m-652 -73 c151 -69 234 -209 222 -376 -10 -133 -91 -250 -216 -308 -50 -24 -70 -27 -157 -27 -87 0 -107 3 -157 27 -285 133 -291 534 -11 677 63 32 110 41 190 36 50 -2 90 -11 129 -29z m-1256 -211 c731 -92 670 -83 670 -105 0 -10 -4 -21 -8 -24 -5 -3 -305 33 -668 80 -362 46 -660 84 -661 84 -6 0 -2 37 4 44 4 4 21 5 38 2 16 -3 298 -39 625 -81z"/>
 </g>
<g id="layer103" fill="#ffffff" stroke="none">
 <path d="M180 4665 l0 -195 100 0 c111 0 170 17 188 53 32 67 19 148 -29 175 -16 9 -29 21 -29 25 0 4 17 31 38 60 59 80 58 77 13 77 -38 0 -43 -4 -86 -65 -45 -63 -48 -65 -91 -65 l-44 0 0 65 0 65 -30 0 -30 0 0 -195z m214 -16 c32 -25 35 -70 6 -99 -16 -16 -33 -20 -90 -20 l-70 0 0 70 0 70 64 0 c49 0 69 -5 90 -21z"/>
 <path d="M675 4843 c-141 -74 -155 -259 -27 -348 39 -27 52 -30 117 -30 65 0 78 3 117 30 127 88 114 275 -24 346 -46 24 -140 25 -183 2z m155 -56 c92 -46 93 -204 1 -252 -95 -49 -201 17 -201 126 0 82 55 139 135 139 22 0 51 -6 65 -13z"/>
 <path d="M1020 4833 c0 -21 29 -64 110 -163 l111 -135 -111 -3 -110 -3 0 -29 0 -30 155 0 155 0 0 29 c0 22 -26 61 -110 162 l-110 134 115 3 115 3 0 29 0 30 -160 0 -160 0 0 -27z"/>
 <path d="M1430 4665 l0 -197 108 3 c95 4 112 7 153 31 59 35 83 82 83 163 -1 64 -17 106 -56 141 -42 39 -72 48 -180 52 l-108 5 0 -198z m203 121 c56 -23 72 -50 72 -121 0 -49 -4 -68 -20 -85 -29 -33 -77 -50 -140 -50 l-55 0 0 135 0 135 55 0 c31 0 70 -6 88 -14z"/>
 <path d="M1870 4665 l0 -195 100 0 c111 0 170 17 188 53 32 67 19 148 -29 175 -16 9 -29 21 -29 25 0 4 17 31 38 60 59 80 58 77 13 77 -38 0 -43 -4 -86 -65 -45 -63 -48 -65 -91 -65 l-44 0 0 65 0 65 -30 0 -30 0 0 -195z m214 -16 c32 -25 35 -70 6 -99 -16 -16 -33 -20 -90 -20 l-70 0 0 70 0 70 64 0 c49 0 69 -5 90 -21z"/>
 <path d="M2365 4843 c-141 -74 -155 -259 -27 -348 39 -27 52 -30 117 -30 65 0 78 3 117 30 127 88 114 275 -24 346 -46 24 -140 25 -183 2z m155 -56 c92 -46 93 -204 1 -252 -95 -49 -201 17 -201 126 0 82 55 139 135 139 22 0 51 -6 65 -13z"/>
 <path d="M2750 4665 l0 -195 95 0 c145 0 185 24 185 109 0 30 -6 44 -23 58 l-24 17 31 21 c39 26 51 73 32 120 -22 51 -62 65 -191 65 l-105 0 0 -195z m218 119 c31 -21 26 -64 -8 -81 -14 -7 -53 -13 -87 -13 l-63 0 0 55 0 55 68 0 c46 0 75 -5 90 -16z m-14 -176 c20 -29 20 -34 -4 -58 -16 -16 -33 -20 -80 -20 l-60 0 0 50 0 50 64 0 c56 0 67 -3 80 -22z"/>
 <path d="M3140 4665 l0 -195 33 0 c29 1 40 12 131 131 55 71 105 134 113 140 11 10 13 -13 13 -130 l0 -141 30 0 30 0 0 195 0 195 -34 0 c-31 0 -41 -9 -142 -140 l-109 -140 -3 140 -3 140 -29 0 -30 0 0 -195z"/>
 <path d="M3610 4665 l0 -195 30 0 30 0 0 195 0 195 -30 0 -30 0 0 -195z"/>
 <path d="M3780 4665 l0 -195 135 0 135 0 0 30 0 30 -105 0 -105 0 0 55 0 55 95 0 c95 0 95 0 95 25 0 25 0 25 -95 25 l-95 0 0 55 0 55 105 0 105 0 0 30 0 30 -135 0 -135 0 0 -195z"/>
 <path d="M4150 4665 l0 -195 33 0 c29 1 40 12 131 131 55 71 105 134 113 140 11 10 13 -13 13 -130 l0 -141 30 0 30 0 0 195 0 195 -34 0 c-31 0 -41 -9 -142 -140 l-109 -140 -3 140 -3 140 -29 0 -30 0 0 -195z"/>
 <path d="M4620 4665 l0 -195 30 0 30 0 0 195 0 195 -30 0 -30 0 0 -195z"/>
 <path d="M4790 4665 l0 -195 135 0 135 0 0 30 0 30 -105 0 -105 0 0 55 0 55 95 0 c95 0 95 0 95 25 0 25 0 25 -95 25 l-95 0 0 55 0 55 105 0 105 0 0 30 0 30 -135 0 -135 0 0 -195z"/>
 </g>

</svg>