<!DOCTYPE svg PUBLIC "-//W3C//DTD SVG 20010904//EN" "http://www.w3.org/TR/2001/REC-SVG-20010904/DTD/svg10.dtd">
<svg version="1.0" xmlns="http://www.w3.org/2000/svg" width="522px" height="522px" viewBox="0 0 5220 5220" preserveAspectRatio="xMidYMid meet">
<g id="layer101" fill="#000000" stroke="none">
 <path d="M0 2610 l0 -2610 2610 0 2610 0 0 2610 0 2610 -2610 0 -2610 0 0 -2610z"/>
 </g>
<g id="layer102" fill="#8ac24a" stroke="none">
 <path d="M180 4595 l0 -195 100 0 c111 0 170 17 188 53 32 67 19 148 -29 175 -16 9 -29 21 -29 25 0 4 17 31 38 60 59 80 58 77 13 77 -38 0 -43 -4 -86 -65 -45 -63 -48 -65 -91 -65 l-44 0 0 65 0 65 -30 0 -30 0 0 -195z m214 -16 c32 -25 35 -70 6 -99 -16 -16 -33 -20 -90 -20 l-70 0 0 70 0 70 64 0 c49 0 69 -5 90 -21z"/>
 <path d="M675 4773 c-141 -74 -155 -259 -27 -348 39 -27 52 -30 117 -30 65 0 78 3 117 30 127 88 114 275 -24 346 -46 24 -140 25 -183 2z m155 -56 c92 -46 93 -204 1 -252 -95 -49 -201 17 -201 126 0 82 55 139 135 139 22 0 51 -6 65 -13z"/>
 <path d="M1020 4763 c0 -21 29 -64 110 -163 l111 -135 -111 -3 -110 -3 0 -29 0 -30 155 0 155 0 0 29 c0 22 -26 61 -110 162 l-110 134 115 3 115 3 0 29 0 30 -160 0 -160 0 0 -27z"/>
 <path d="M1430 4595 l0 -197 108 3 c95 4 112 7 153 31 59 35 83 82 83 163 -1 64 -17 106 -56 141 -42 39 -72 48 -180 52 l-108 5 0 -198z m203 121 c56 -23 72 -50 72 -121 0 -49 -4 -68 -20 -85 -29 -33 -77 -50 -140 -50 l-55 0 0 135 0 135 55 0 c31 0 70 -6 88 -14z"/>
 <path d="M1870 4595 l0 -195 100 0 c111 0 170 17 188 53 32 67 19 148 -29 175 -16 9 -29 21 -29 25 0 4 17 31 38 60 59 80 58 77 13 77 -38 0 -43 -4 -86 -65 -45 -63 -48 -65 -91 -65 l-44 0 0 65 0 65 -30 0 -30 0 0 -195z m214 -16 c32 -25 35 -70 6 -99 -16 -16 -33 -20 -90 -20 l-70 0 0 70 0 70 64 0 c49 0 69 -5 90 -21z"/>
 <path d="M2365 4773 c-141 -74 -155 -259 -27 -348 39 -27 52 -30 117 -30 65 0 78 3 117 30 127 88 114 275 -24 346 -46 24 -140 25 -183 2z m155 -56 c92 -46 93 -204 1 -252 -95 -49 -201 17 -201 126 0 82 55 139 135 139 22 0 51 -6 65 -13z"/>
 <path d="M2750 4595 l0 -195 95 0 c145 0 185 24 185 109 0 30 -6 44 -23 58 l-24 17 31 21 c39 26 51 73 32 120 -22 51 -62 65 -191 65 l-105 0 0 -195z m218 119 c31 -21 26 -64 -8 -81 -14 -7 -53 -13 -87 -13 l-63 0 0 55 0 55 68 0 c46 0 75 -5 90 -16z m-14 -176 c20 -29 20 -34 -4 -58 -16 -16 -33 -20 -80 -20 l-60 0 0 50 0 50 64 0 c56 0 67 -3 80 -22z"/>
 <path d="M3140 4595 l0 -195 33 0 c29 1 40 12 131 131 55 71 105 134 113 140 11 10 13 -13 13 -130 l0 -141 30 0 30 0 0 195 0 195 -34 0 c-31 0 -41 -9 -142 -140 l-109 -140 -3 140 -3 140 -29 0 -30 0 0 -195z"/>
 <path d="M3610 4595 l0 -195 30 0 30 0 0 195 0 195 -30 0 -30 0 0 -195z"/>
 <path d="M3780 4595 l0 -195 135 0 135 0 0 30 0 30 -105 0 -105 0 0 55 0 55 95 0 c95 0 95 0 95 25 0 25 0 25 -95 25 l-95 0 0 55 0 55 105 0 105 0 0 30 0 30 -135 0 -135 0 0 -195z"/>
 <path d="M4150 4595 l0 -195 33 0 c29 1 40 12 131 131 55 71 105 134 113 140 11 10 13 -13 13 -130 l0 -141 30 0 30 0 0 195 0 195 -34 0 c-31 0 -41 -9 -142 -140 l-109 -140 -3 140 -3 140 -29 0 -30 0 0 -195z"/>
 <path d="M4620 4595 l0 -195 30 0 30 0 0 195 0 195 -30 0 -30 0 0 -195z"/>
 <path d="M4790 4595 l0 -195 135 0 135 0 0 30 0 30 -105 0 -105 0 0 55 0 55 95 0 c95 0 95 0 95 25 0 25 0 25 -95 25 l-95 0 0 55 0 55 105 0 105 0 0 30 0 30 -135 0 -135 0 0 -195z"/>
 <path d="M100 2205 c0 -2052 0 -2065 20 -2085 20 -20 33 -20 2490 -20 2457 0 2470 0 2490 20 20 20 20 33 20 2085 l0 2065 -2510 0 -2510 0 0 -2065z m2912 1585 c208 -64 345 -283 310 -496 -37 -226 -222 -384 -447 -384 -281 0 -492 246 -446 521 15 94 51 167 116 237 57 62 129 107 204 128 72 19 189 17 263 -6z m-2052 -100 c79 -15 153 -52 211 -107 113 -106 153 -202 147 -358 -3 -87 -8 -109 -35 -168 -86 -182 -288 -290 -481 -258 -141 24 -275 121 -334 242 -166 342 120 719 492 649z m1380 -412 c0 -30 -4 -38 -17 -38 -10 0 -211 -18 -446 -41 -235 -22 -434 -38 -442 -35 -10 3 -15 20 -15 46 0 31 4 40 18 41 9 0 213 19 452 42 294 29 437 39 442 32 4 -5 8 -27 8 -47z m180 -319 c0 -14 -1270 -1533 -1284 -1537 -6 -1 -24 11 -40 27 l-28 29 643 770 643 770 33 -25 c18 -14 33 -29 33 -34z m1172 -215 c150 -113 274 -210 276 -214 4 -10 -38 -70 -49 -70 -10 0 -553 410 -557 420 -4 10 38 70 49 70 4 0 130 -93 281 -206z m-2109 -142 l247 -248 -32 -31 -33 -31 -252 247 -252 248 32 31 c17 18 34 32 37 32 3 0 117 -112 253 -248z m1831 -129 c80 -199 146 -364 146 -366 0 -6 -81 -39 -85 -35 -7 7 -296 730 -293 732 6 5 83 34 84 32 1 0 68 -164 148 -363z m-541 346 c20 -5 37 -13 37 -17 0 -4 -27 -115 -62 -248 l-62 -240 -43 9 c-24 6 -43 15 -43 20 0 22 123 487 129 487 3 0 23 -5 44 -11z m1628 -29 c168 -31 311 -163 353 -325 57 -215 -43 -434 -241 -527 -227 -107 -489 -15 -600 210 -38 75 -38 77 -38 197 0 120 0 122 38 197 91 186 287 285 488 248z m-3526 -188 c7 -5 -4 -168 -36 -507 -26 -275 -48 -508 -48 -517 -1 -14 -10 -18 -41 -18 -26 0 -43 5 -46 14 -3 8 15 237 40 508 25 271 46 501 46 511 0 13 8 17 38 17 20 0 42 -4 47 -8z m1582 -348 c75 -21 170 -89 225 -162 105 -139 118 -334 33 -491 -33 -60 -124 -150 -183 -180 -134 -68 -302 -66 -434 6 -69 38 -153 130 -190 210 -62 131 -49 307 32 431 110 171 310 243 517 186z m-555 -103 l27 -38 -37 -27 -37 -26 -27 32 c-15 18 -28 37 -28 43 0 11 51 54 65 54 6 1 22 -17 37 -38z m1946 -63 c7 -35 5 -44 -7 -50 -18 -8 -780 -165 -888 -182 l-73 -12 -6 35 c-3 20 -7 40 -8 45 -2 8 891 197 961 205 6 0 16 -18 21 -41z m-259 -357 c40 -101 68 -187 64 -191 -12 -11 -73 -33 -78 -29 -3 4 -60 147 -121 307 l-24 63 42 18 c24 10 44 18 44 17 1 0 34 -84 73 -185z m730 88 c17 -6 31 -14 31 -17 0 -7 -91 -285 -95 -290 -3 -4 -69 20 -79 28 -12 11 83 290 98 290 7 0 27 -5 45 -11z m-2425 -301 c11 -20 19 -38 16 -41 -3 -2 -133 -79 -290 -170 l-284 -167 -23 37 c-13 21 -23 40 -23 43 0 8 564 338 574 336 5 -1 18 -18 30 -38z m-981 -88 c126 -39 236 -146 284 -277 29 -81 32 -213 6 -294 -43 -132 -162 -250 -294 -290 -105 -32 -230 -25 -322 18 -76 36 -166 116 -204 181 -80 136 -82 313 -6 454 51 94 180 193 280 217 70 17 187 12 256 -9z m3229 -1 c289 -94 404 -452 224 -697 -94 -127 -225 -187 -390 -180 -83 3 -102 8 -168 41 -242 119 -330 408 -195 639 52 90 178 184 274 207 71 17 188 12 255 -10z m-1413 -98 c64 -17 247 -62 406 -102 160 -40 291 -73 292 -74 6 -3 -21 -85 -28 -85 -8 0 -216 51 -705 171 l-130 33 9 43 c7 26 16 43 25 43 8 0 67 -13 131 -29z m741 -590 l0 -49 -922 -6 c-508 -3 -985 -9 -1060 -12 l-138 -6 0 51 0 51 398 1 c396 2 1541 13 1660 17 l62 2 0 -49z"/>
 </g>
<g id="layer103" fill="#ffffff" stroke="none">
 <path d="M180 4595 l0 -195 100 0 c111 0 170 17 188 53 32 67 19 148 -29 175 -16 9 -29 21 -29 25 0 4 17 31 38 60 59 80 58 77 13 77 -38 0 -43 -4 -86 -65 -45 -63 -48 -65 -91 -65 l-44 0 0 65 0 65 -30 0 -30 0 0 -195z m214 -16 c32 -25 35 -70 6 -99 -16 -16 -33 -20 -90 -20 l-70 0 0 70 0 70 64 0 c49 0 69 -5 90 -21z"/>
 <path d="M675 4773 c-141 -74 -155 -259 -27 -348 39 -27 52 -30 117 -30 65 0 78 3 117 30 127 88 114 275 -24 346 -46 24 -140 25 -183 2z m155 -56 c92 -46 93 -204 1 -252 -95 -49 -201 17 -201 126 0 82 55 139 135 139 22 0 51 -6 65 -13z"/>
 <path d="M1020 4763 c0 -21 29 -64 110 -163 l111 -135 -111 -3 -110 -3 0 -29 0 -30 155 0 155 0 0 29 c0 22 -26 61 -110 162 l-110 134 115 3 115 3 0 29 0 30 -160 0 -160 0 0 -27z"/>
 <path d="M1430 4595 l0 -197 108 3 c95 4 112 7 153 31 59 35 83 82 83 163 -1 64 -17 106 -56 141 -42 39 -72 48 -180 52 l-108 5 0 -198z m203 121 c56 -23 72 -50 72 -121 0 -49 -4 -68 -20 -85 -29 -33 -77 -50 -140 -50 l-55 0 0 135 0 135 55 0 c31 0 70 -6 88 -14z"/>
 <path d="M1870 4595 l0 -195 100 0 c111 0 170 17 188 53 32 67 19 148 -29 175 -16 9 -29 21 -29 25 0 4 17 31 38 60 59 80 58 77 13 77 -38 0 -43 -4 -86 -65 -45 -63 -48 -65 -91 -65 l-44 0 0 65 0 65 -30 0 -30 0 0 -195z m214 -16 c32 -25 35 -70 6 -99 -16 -16 -33 -20 -90 -20 l-70 0 0 70 0 70 64 0 c49 0 69 -5 90 -21z"/>
 <path d="M2365 4773 c-141 -74 -155 -259 -27 -348 39 -27 52 -30 117 -30 65 0 78 3 117 30 127 88 114 275 -24 346 -46 24 -140 25 -183 2z m155 -56 c92 -46 93 -204 1 -252 -95 -49 -201 17 -201 126 0 82 55 139 135 139 22 0 51 -6 65 -13z"/>
 <path d="M2750 4595 l0 -195 95 0 c145 0 185 24 185 109 0 30 -6 44 -23 58 l-24 17 31 21 c39 26 51 73 32 120 -22 51 -62 65 -191 65 l-105 0 0 -195z m218 119 c31 -21 26 -64 -8 -81 -14 -7 -53 -13 -87 -13 l-63 0 0 55 0 55 68 0 c46 0 75 -5 90 -16z m-14 -176 c20 -29 20 -34 -4 -58 -16 -16 -33 -20 -80 -20 l-60 0 0 50 0 50 64 0 c56 0 67 -3 80 -22z"/>
 <path d="M3140 4595 l0 -195 33 0 c29 1 40 12 131 131 55 71 105 134 113 140 11 10 13 -13 13 -130 l0 -141 30 0 30 0 0 195 0 195 -34 0 c-31 0 -41 -9 -142 -140 l-109 -140 -3 140 -3 140 -29 0 -30 0 0 -195z"/>
 <path d="M3610 4595 l0 -195 30 0 30 0 0 195 0 195 -30 0 -30 0 0 -195z"/>
 <path d="M3780 4595 l0 -195 135 0 135 0 0 30 0 30 -105 0 -105 0 0 55 0 55 95 0 c95 0 95 0 95 25 0 25 0 25 -95 25 l-95 0 0 55 0 55 105 0 105 0 0 30 0 30 -135 0 -135 0 0 -195z"/>
 <path d="M4150 4595 l0 -195 33 0 c29 1 40 12 131 131 55 71 105 134 113 140 11 10 13 -13 13 -130 l0 -141 30 0 30 0 0 195 0 195 -34 0 c-31 0 -41 -9 -142 -140 l-109 -140 -3 140 -3 140 -29 0 -30 0 0 -195z"/>
 <path d="M4620 4595 l0 -195 30 0 30 0 0 195 0 195 -30 0 -30 0 0 -195z"/>
 <path d="M4790 4595 l0 -195 135 0 135 0 0 30 0 30 -105 0 -105 0 0 55 0 55 95 0 c95 0 95 0 95 25 0 25 0 25 -95 25 l-95 0 0 55 0 55 105 0 105 0 0 30 0 30 -135 0 -135 0 0 -195z"/>
 </g>

</svg>