<!DOCTYPE svg PUBLIC "-//W3C//DTD SVG 20010904//EN" "http://www.w3.org/TR/2001/REC-SVG-20010904/DTD/svg10.dtd">
<svg version="1.0" xmlns="http://www.w3.org/2000/svg" width="512px" height="512px" viewBox="0 0 5120 5120" preserveAspectRatio="xMidYMid meet">
<g id="layer101" fill="#000000" stroke="none">
 <path d="M26 5094 l-26 -27 0 -2507 0 -2507 26 -27 27 -26 2507 0 2507 0 27 26 26 27 0 2507 0 2507 -26 27 -27 26 -2507 0 -2507 0 -27 -26z"/>
 </g>
<g id="layer102" fill="#00897b" stroke="none">
 <path d="M285 4554 c-46 -24 -50 -31 -31 -53 18 -19 18 -19 49 0 39 23 100 25 118 3 21 -25 -1 -47 -72 -71 -72 -25 -99 -51 -99 -95 0 -42 17 -68 55 -84 41 -17 67 -17 118 -3 41 11 56 31 38 53 -9 11 -18 11 -54 -1 -51 -17 -97 -5 -97 26 0 25 15 36 81 55 69 20 94 45 94 98 0 59 -37 88 -113 88 -32 0 -70 -7 -87 -16z"/>
 <path d="M550 4410 l0 -160 115 0 115 0 0 25 c0 25 -1 25 -85 25 l-85 0 0 40 0 40 75 0 c73 0 75 1 75 25 0 24 -2 25 -75 25 l-75 0 0 45 0 45 90 0 c89 0 90 0 90 25 l0 25 -120 0 -120 0 0 -160z"/>
 <path d="M850 4409 l0 -161 106 4 c102 3 107 4 130 31 18 21 24 40 24 74 0 38 -5 50 -31 74 l-32 30 30 42 c48 68 48 67 10 67 -30 0 -38 -7 -72 -55 -33 -48 -42 -55 -71 -55 l-34 0 0 55 c0 54 0 55 -30 55 l-30 0 0 -161z m181 -9 c13 -7 19 -21 19 -45 0 -43 -20 -55 -89 -55 l-51 0 0 55 0 55 51 0 c28 0 59 -5 70 -10z"/>
 <path d="M1180 4410 l0 -160 30 0 30 0 0 160 0 160 -30 0 -30 0 0 -160z"/>
 <path d="M1389 4547 c-19 -12 -44 -42 -57 -67 -71 -137 67 -281 213 -225 127 48 142 228 25 294 -53 29 -135 29 -181 -2z m167 -61 c29 -29 34 -41 34 -79 0 -54 -26 -91 -74 -107 -47 -15 -80 -4 -117 38 -28 31 -31 40 -26 81 7 61 50 101 108 101 33 0 47 -6 75 -34z"/>
 <path d="M1752 4536 l-37 -34 -3 -126 -4 -126 31 0 31 0 0 113 c0 106 2 115 23 135 32 30 77 29 108 -4 21 -23 24 -36 27 -135 4 -107 5 -109 28 -109 24 0 24 0 24 118 0 99 -3 122 -19 146 -27 41 -57 55 -119 56 -46 0 -57 -4 -90 -34z"/>
 <path d="M2085 4554 c-46 -24 -50 -31 -31 -53 18 -19 18 -19 49 0 39 23 100 25 118 3 21 -25 -1 -47 -72 -71 -72 -25 -99 -51 -99 -95 0 -42 17 -68 55 -84 41 -17 67 -17 118 -3 41 11 56 31 38 53 -9 11 -18 11 -54 -1 -51 -17 -97 -5 -97 26 0 25 15 36 81 55 69 20 94 45 94 98 0 59 -37 88 -113 88 -32 0 -70 -7 -87 -16z"/>
 <path d="M2570 4410 l0 -160 85 0 c89 0 137 15 149 45 12 34 6 75 -16 95 -18 16 -19 20 -5 20 22 0 47 38 47 73 0 18 -11 39 -29 58 -29 28 -32 29 -130 29 l-101 0 0 -160z m181 100 c11 -6 19 -21 19 -36 0 -30 -31 -44 -96 -44 l-44 0 0 45 0 45 51 0 c28 0 59 -5 70 -10z m-17 -136 c19 -7 21 -45 4 -62 -7 -7 -34 -12 -60 -12 l-48 0 0 40 0 40 44 0 c24 0 51 -3 60 -6z"/>
 <path d="M2932 4536 l-37 -34 -3 -126 -4 -126 31 0 31 0 0 113 c0 106 2 115 23 135 32 30 77 29 108 -4 21 -23 24 -36 27 -135 4 -107 5 -109 28 -109 24 0 24 0 24 118 0 99 -3 122 -19 146 -27 41 -57 55 -119 56 -46 0 -57 -4 -90 -34z"/>
 <path d="M3275 4554 c-46 -24 -50 -31 -31 -53 18 -19 18 -19 49 0 39 23 100 25 118 3 21 -25 -1 -47 -72 -71 -72 -25 -99 -51 -99 -95 0 -42 17 -68 55 -84 41 -17 67 -17 118 -3 41 11 56 31 38 53 -9 11 -18 11 -54 -1 -51 -17 -97 -5 -97 26 0 25 15 36 81 55 69 20 94 45 94 98 0 59 -37 88 -113 88 -32 0 -70 -7 -87 -16z"/>
 <path d="M3530 4410 l0 -160 30 0 30 0 0 160 0 160 -30 0 -30 0 0 -160z"/>
 <path d="M3680 4410 l0 -160 30 0 c25 0 40 15 120 116 l90 116 0 -116 0 -116 30 0 30 0 0 160 0 160 -32 -1 c-30 0 -41 -11 -118 -111 l-85 -111 -3 111 -3 112 -29 0 -30 0 0 -160z"/>
 <path d="M4060 4410 l0 -160 115 0 115 0 0 25 c0 25 -1 25 -85 25 l-85 0 0 40 0 40 75 0 c73 0 75 1 75 25 0 24 -2 25 -75 25 l-75 0 0 45 0 45 90 0 c89 0 90 0 90 25 l0 25 -120 0 -120 0 0 -160z"/>
 <path d="M4385 4554 c-46 -24 -50 -31 -31 -53 18 -19 18 -19 49 0 39 23 100 25 118 3 21 -25 -1 -47 -72 -71 -72 -25 -99 -51 -99 -95 0 -42 17 -68 55 -84 41 -17 67 -17 118 -3 41 11 56 31 38 53 -9 11 -18 11 -54 -1 -51 -17 -97 -5 -97 26 0 25 15 36 81 55 69 20 94 45 94 98 0 59 -37 88 -113 88 -32 0 -70 -7 -87 -16z"/>
 <path d="M4675 4554 c-46 -24 -50 -31 -31 -53 18 -19 18 -19 49 0 39 23 100 25 118 3 21 -25 -1 -47 -72 -71 -72 -25 -99 -51 -99 -95 0 -42 17 -68 55 -84 41 -17 67 -17 118 -3 41 11 56 31 38 53 -9 11 -18 11 -54 -1 -51 -17 -97 -5 -97 26 0 25 15 36 81 55 69 20 94 45 94 98 0 59 -37 88 -113 88 -32 0 -70 -7 -87 -16z"/>
 <path d="M2340 4435 c0 -25 1 -25 80 -25 79 0 80 0 80 25 0 25 -1 25 -80 25 -79 0 -80 0 -80 -25z"/>
 <path d="M160 2060 l0 -1900 2400 0 2400 0 0 1900 0 1900 -2400 0 -2400 0 0 -1900z m4264 1501 c5 -8 -55 -116 -349 -626 -76 -132 -155 -269 -176 -305 l-37 -65 -1295 -3 -1296 -2 -44 77 c-24 43 -60 105 -79 138 -36 62 -104 179 -136 237 -11 18 -54 94 -97 168 -183 315 -214 373 -209 381 7 12 3711 12 3718 0z m-638 -1128 c-18 -32 -66 -116 -108 -188 -42 -71 -86 -148 -98 -170 -12 -22 -74 -128 -136 -237 -62 -108 -125 -218 -140 -245 -15 -26 -46 -79 -69 -118 l-41 -70 -626 -3 -626 -2 -25 42 c-13 24 -41 72 -62 108 -20 36 -46 81 -57 100 -11 19 -71 123 -133 230 -62 107 -123 213 -135 235 -12 22 -64 112 -116 201 -52 88 -94 164 -94 167 0 4 562 7 1249 7 l1250 0 -33 -57z m-646 -1119 c0 -6 -21 -43 -169 -298 -28 -49 -51 -91 -51 -93 0 -3 -8 -17 -19 -31 -10 -15 -32 -52 -49 -82 -126 -228 -274 -475 -284 -475 -11 0 -76 103 -131 205 -7 14 -65 115 -129 225 -64 110 -124 216 -135 235 -11 19 -55 96 -98 170 -43 74 -80 138 -82 143 -2 4 255 7 571 7 317 0 576 -3 576 -6z"/>
 <path d="M951 3403 c20 -35 70 -122 117 -205 11 -18 52 -89 92 -158 40 -69 102 -178 139 -242 l66 -118 1200 0 1200 0 99 173 c54 94 150 262 214 372 63 110 116 203 119 208 2 4 -732 7 -1632 7 l-1637 0 23 -37z"/>
 <path d="M1560 2353 c0 -6 12 -28 178 -313 49 -85 99 -172 111 -193 57 -102 174 -303 183 -314 8 -10 128 -13 538 -13 l528 0 130 228 c173 302 310 540 334 580 l20 32 -1011 0 c-556 0 -1011 -3 -1011 -7z"/>
 </g>
<g id="layer103" fill="#ffffff" stroke="none">
 <path d="M285 4554 c-46 -24 -50 -31 -31 -53 18 -19 18 -19 49 0 39 23 100 25 118 3 21 -25 -1 -47 -72 -71 -72 -25 -99 -51 -99 -95 0 -42 17 -68 55 -84 41 -17 67 -17 118 -3 41 11 56 31 38 53 -9 11 -18 11 -54 -1 -51 -17 -97 -5 -97 26 0 25 15 36 81 55 69 20 94 45 94 98 0 59 -37 88 -113 88 -32 0 -70 -7 -87 -16z"/>
 <path d="M550 4410 l0 -160 115 0 115 0 0 25 c0 25 -1 25 -85 25 l-85 0 0 40 0 40 75 0 c73 0 75 1 75 25 0 24 -2 25 -75 25 l-75 0 0 45 0 45 90 0 c89 0 90 0 90 25 l0 25 -120 0 -120 0 0 -160z"/>
 <path d="M850 4409 l0 -161 106 4 c102 3 107 4 130 31 18 21 24 40 24 74 0 38 -5 50 -31 74 l-32 30 30 42 c48 68 48 67 10 67 -30 0 -38 -7 -72 -55 -33 -48 -42 -55 -71 -55 l-34 0 0 55 c0 54 0 55 -30 55 l-30 0 0 -161z m181 -9 c13 -7 19 -21 19 -45 0 -43 -20 -55 -89 -55 l-51 0 0 55 0 55 51 0 c28 0 59 -5 70 -10z"/>
 <path d="M1180 4410 l0 -160 30 0 30 0 0 160 0 160 -30 0 -30 0 0 -160z"/>
 <path d="M1389 4547 c-19 -12 -44 -42 -57 -67 -71 -137 67 -281 213 -225 127 48 142 228 25 294 -53 29 -135 29 -181 -2z m167 -61 c29 -29 34 -41 34 -79 0 -54 -26 -91 -74 -107 -47 -15 -80 -4 -117 38 -28 31 -31 40 -26 81 7 61 50 101 108 101 33 0 47 -6 75 -34z"/>
 <path d="M1752 4536 l-37 -34 -3 -126 -4 -126 31 0 31 0 0 113 c0 106 2 115 23 135 32 30 77 29 108 -4 21 -23 24 -36 27 -135 4 -107 5 -109 28 -109 24 0 24 0 24 118 0 99 -3 122 -19 146 -27 41 -57 55 -119 56 -46 0 -57 -4 -90 -34z"/>
 <path d="M2085 4554 c-46 -24 -50 -31 -31 -53 18 -19 18 -19 49 0 39 23 100 25 118 3 21 -25 -1 -47 -72 -71 -72 -25 -99 -51 -99 -95 0 -42 17 -68 55 -84 41 -17 67 -17 118 -3 41 11 56 31 38 53 -9 11 -18 11 -54 -1 -51 -17 -97 -5 -97 26 0 25 15 36 81 55 69 20 94 45 94 98 0 59 -37 88 -113 88 -32 0 -70 -7 -87 -16z"/>
 <path d="M2570 4410 l0 -160 85 0 c89 0 137 15 149 45 12 34 6 75 -16 95 -18 16 -19 20 -5 20 22 0 47 38 47 73 0 18 -11 39 -29 58 -29 28 -32 29 -130 29 l-101 0 0 -160z m181 100 c11 -6 19 -21 19 -36 0 -30 -31 -44 -96 -44 l-44 0 0 45 0 45 51 0 c28 0 59 -5 70 -10z m-17 -136 c19 -7 21 -45 4 -62 -7 -7 -34 -12 -60 -12 l-48 0 0 40 0 40 44 0 c24 0 51 -3 60 -6z"/>
 <path d="M2932 4536 l-37 -34 -3 -126 -4 -126 31 0 31 0 0 113 c0 106 2 115 23 135 32 30 77 29 108 -4 21 -23 24 -36 27 -135 4 -107 5 -109 28 -109 24 0 24 0 24 118 0 99 -3 122 -19 146 -27 41 -57 55 -119 56 -46 0 -57 -4 -90 -34z"/>
 <path d="M3275 4554 c-46 -24 -50 -31 -31 -53 18 -19 18 -19 49 0 39 23 100 25 118 3 21 -25 -1 -47 -72 -71 -72 -25 -99 -51 -99 -95 0 -42 17 -68 55 -84 41 -17 67 -17 118 -3 41 11 56 31 38 53 -9 11 -18 11 -54 -1 -51 -17 -97 -5 -97 26 0 25 15 36 81 55 69 20 94 45 94 98 0 59 -37 88 -113 88 -32 0 -70 -7 -87 -16z"/>
 <path d="M3530 4410 l0 -160 30 0 30 0 0 160 0 160 -30 0 -30 0 0 -160z"/>
 <path d="M3680 4410 l0 -160 30 0 c25 0 40 15 120 116 l90 116 0 -116 0 -116 30 0 30 0 0 160 0 160 -32 -1 c-30 0 -41 -11 -118 -111 l-85 -111 -3 111 -3 112 -29 0 -30 0 0 -160z"/>
 <path d="M4060 4410 l0 -160 115 0 115 0 0 25 c0 25 -1 25 -85 25 l-85 0 0 40 0 40 75 0 c73 0 75 1 75 25 0 24 -2 25 -75 25 l-75 0 0 45 0 45 90 0 c89 0 90 0 90 25 l0 25 -120 0 -120 0 0 -160z"/>
 <path d="M4385 4554 c-46 -24 -50 -31 -31 -53 18 -19 18 -19 49 0 39 23 100 25 118 3 21 -25 -1 -47 -72 -71 -72 -25 -99 -51 -99 -95 0 -42 17 -68 55 -84 41 -17 67 -17 118 -3 41 11 56 31 38 53 -9 11 -18 11 -54 -1 -51 -17 -97 -5 -97 26 0 25 15 36 81 55 69 20 94 45 94 98 0 59 -37 88 -113 88 -32 0 -70 -7 -87 -16z"/>
 <path d="M4675 4554 c-46 -24 -50 -31 -31 -53 18 -19 18 -19 49 0 39 23 100 25 118 3 21 -25 -1 -47 -72 -71 -72 -25 -99 -51 -99 -95 0 -42 17 -68 55 -84 41 -17 67 -17 118 -3 41 11 56 31 38 53 -9 11 -18 11 -54 -1 -51 -17 -97 -5 -97 26 0 25 15 36 81 55 69 20 94 45 94 98 0 59 -37 88 -113 88 -32 0 -70 -7 -87 -16z"/>
 <path d="M2340 4435 c0 -25 1 -25 80 -25 79 0 80 0 80 25 0 25 -1 25 -80 25 -79 0 -80 0 -80 -25z"/>
 </g>

</svg>